<svg id="virus" xmlns="http://www.w3.org/2000/svg" width="42.667" height="42.667" viewBox="0 0 42.667 42.667">
  <g id="Grupo_128057" data-name="Grupo 128057" transform="translate(14.349 32.667)">
    <g id="Grupo_128056" data-name="Grupo 128056">
      <path id="Trazado_188589" data-name="Trazado 188589" d="M173.046,392h-.022a.833.833,0,1,0,0,1.667h.022a.833.833,0,1,0,0-1.667Z" transform="translate(-172.19 -392.002)" fill="#0d2380"/>
    </g>
  </g>
  <g id="Grupo_128059" data-name="Grupo 128059">
    <g id="Grupo_128058" data-name="Grupo 128058">
      <path id="Trazado_188590" data-name="Trazado 188590" d="M39.981,7.667H36V2.685A2.688,2.688,0,0,0,33.315,0H2.685A2.688,2.688,0,0,0,0,2.685v21.3a2.688,2.688,0,0,0,2.685,2.685H6.667v4.982a2.688,2.688,0,0,0,2.685,2.685h2.5a.833.833,0,0,0,0-1.667h-2.5a1.02,1.02,0,0,1-1.019-1.019V14.334H18.948a.833.833,0,0,0,.589-.244l1.423-1.423H41V31.648a1.02,1.02,0,0,1-1.019,1.019h-.864a8.751,8.751,0,0,0-8.951-8.333,8.751,8.751,0,0,0-8.951,8.333H17.6a.833.833,0,0,0,0,1.667h3.757a8.062,8.062,0,0,0,.329,1.215,2.752,2.752,0,0,0-.46,1.529A2.782,2.782,0,0,0,24,39.857h.76v1.183a1.629,1.629,0,0,0,1.627,1.627h7.422a1.629,1.629,0,0,0,1.627-1.627V39.857h.889a2.782,2.782,0,0,0,2.779-2.779,2.752,2.752,0,0,0-.46-1.529,8.051,8.051,0,0,0,.329-1.215h1a2.688,2.688,0,0,0,2.685-2.685v-21.3A2.688,2.688,0,0,0,39.981,7.667ZM37.11,36.288a1.11,1.11,0,0,1-.781,1.9H34.607a.833.833,0,0,0-.833.833V41h-1.12v-.652a.833.833,0,1,0-1.667,0V41h-1.64v-.652a.833.833,0,1,0-1.667,0V41H26.431V39.023a.833.833,0,0,0-.833-.833H24a1.11,1.11,0,0,1-.781-1.9.833.833,0,0,0,.18-.921,6.409,6.409,0,0,1-.523-2.543A7.075,7.075,0,0,1,30.167,26a7.075,7.075,0,0,1,7.286,6.824,6.409,6.409,0,0,1-.523,2.543A.833.833,0,0,0,37.11,36.288ZM6.667,10.352V25H2.685a1.02,1.02,0,0,1-1.019-1.018V6.667H12.281a.833.833,0,0,0,.589-.244L14.293,5H26.919a.833.833,0,1,0,0-1.667H13.948c-.027,0-.055,0-.082,0l-.036.005-.044.007-.04.01-.039.01-.039.014-.038.014-.035.016-.039.019-.033.019-.037.023L13.45,3.5l-.031.023q-.032.026-.06.055h0L11.936,5H1.667V2.685A1.02,1.02,0,0,1,2.685,1.667H33.315a1.02,1.02,0,0,1,1.018,1.018v.648H32.666a.833.833,0,0,0,0,1.667h1.667V7.667H9.352A2.688,2.688,0,0,0,6.667,10.352ZM41,11H20.615c-.027,0-.055,0-.082,0l-.038.005-.043.007-.042.01-.037.009-.041.014-.036.013-.037.017-.037.018-.035.021-.035.021-.037.027-.029.021c-.021.017-.041.036-.061.055h0L18.6,12.667H8.334V10.352A1.02,1.02,0,0,1,9.352,9.334H39.981A1.02,1.02,0,0,1,41,10.352Z" fill="#0d2380"/>
    </g>
  </g>
  <g id="Grupo_128061" data-name="Grupo 128061" transform="translate(9.542 10.167)">
    <g id="Grupo_128060" data-name="Grupo 128060">
      <path id="Trazado_188591" data-name="Trazado 188591" d="M115.359,122.006h-.022a.833.833,0,0,0,0,1.667h.022a.833.833,0,0,0,0-1.667Z" transform="translate(-114.503 -122.006)" fill="#0d2380"/>
    </g>
  </g>
  <g id="Grupo_128063" data-name="Grupo 128063" transform="translate(12.875 10.167)">
    <g id="Grupo_128062" data-name="Grupo 128062">
      <path id="Trazado_188592" data-name="Trazado 188592" d="M155.359,122.006h-.022a.833.833,0,0,0,0,1.667h.022a.833.833,0,1,0,0-1.667Z" transform="translate(-154.503 -122.006)" fill="#0d2380"/>
    </g>
  </g>
  <g id="Grupo_128065" data-name="Grupo 128065" transform="translate(16.209 10.167)">
    <g id="Grupo_128064" data-name="Grupo 128064">
      <path id="Trazado_188593" data-name="Trazado 188593" d="M195.36,122.006h-.022a.833.833,0,0,0,0,1.667h.022a.833.833,0,0,0,0-1.667Z" transform="translate(-194.504 -122.006)" fill="#0d2380"/>
    </g>
  </g>
  <g id="Grupo_128067" data-name="Grupo 128067" transform="translate(2.875 2.5)">
    <g id="Grupo_128066" data-name="Grupo 128066">
      <path id="Trazado_188594" data-name="Trazado 188594" d="M35.356,30h-.022a.833.833,0,1,0,0,1.667h.022a.833.833,0,0,0,0-1.667Z" transform="translate(-34.5 -30)" fill="#0d2380"/>
    </g>
  </g>
  <g id="Grupo_128069" data-name="Grupo 128069" transform="translate(6.208 2.5)">
    <g id="Grupo_128068" data-name="Grupo 128068">
      <path id="Trazado_188595" data-name="Trazado 188595" d="M75.357,30h-.022a.833.833,0,0,0,0,1.667h.022a.833.833,0,1,0,0-1.667Z" transform="translate(-74.501 -30)" fill="#0d2380"/>
    </g>
  </g>
  <g id="Grupo_128071" data-name="Grupo 128071" transform="translate(9.542 2.5)">
    <g id="Grupo_128070" data-name="Grupo 128070">
      <path id="Trazado_188596" data-name="Trazado 188596" d="M115.357,30h-.022a.833.833,0,1,0,0,1.667h.022a.833.833,0,1,0,0-1.667Z" transform="translate(-114.501 -30)" fill="#0d2380"/>
    </g>
  </g>
  <g id="Grupo_128073" data-name="Grupo 128073" transform="translate(28.48 3.333)">
    <g id="Grupo_128072" data-name="Grupo 128072">
      <path id="Trazado_188597" data-name="Trazado 188597" d="M342.621,40H342.6a.833.833,0,0,0,0,1.667h.023a.833.833,0,0,0,0-1.667Z" transform="translate(-341.765 -40)" fill="#0d2380"/>
    </g>
  </g>
  <g id="Grupo_128075" data-name="Grupo 128075" transform="translate(10 17.693)">
    <g id="Grupo_128074" data-name="Grupo 128074">
      <path id="Trazado_188598" data-name="Trazado 188598" d="M125.976,212.322h-5.139a.833.833,0,1,0,0,1.667h5.139a.833.833,0,1,0,0-1.667Z" transform="translate(-120.004 -212.322)" fill="#0d2380"/>
    </g>
  </g>
  <g id="Grupo_128077" data-name="Grupo 128077" transform="translate(10 21.027)">
    <g id="Grupo_128076" data-name="Grupo 128076">
      <path id="Trazado_188599" data-name="Trazado 188599" d="M131.116,252.321H120.837a.833.833,0,1,0,0,1.667h10.278a.833.833,0,1,0,0-1.667Z" transform="translate(-120.004 -252.321)" fill="#0d2380"/>
    </g>
  </g>
  <g id="Grupo_128079" data-name="Grupo 128079" transform="translate(10 24.36)">
    <g id="Grupo_128078" data-name="Grupo 128078">
      <path id="Trazado_188600" data-name="Trazado 188600" d="M125.976,292.321h-5.139a.833.833,0,1,0,0,1.667h5.139a.833.833,0,1,0,0-1.667Z" transform="translate(-120.004 -292.321)" fill="#0d2380"/>
    </g>
  </g>
  <g id="Grupo_128081" data-name="Grupo 128081" transform="translate(27.388 17.693)">
    <g id="Grupo_128080" data-name="Grupo 128080">
      <path id="Trazado_188601" data-name="Trazado 188601" d="M339.773,212.321H329.494a.833.833,0,1,0,0,1.667h10.278a.833.833,0,1,0,0-1.667Z" transform="translate(-328.661 -212.321)" fill="#0d2380"/>
    </g>
  </g>
  <g id="Grupo_128083" data-name="Grupo 128083" transform="translate(24.554 31.483)">
    <g id="Grupo_128082" data-name="Grupo 128082">
      <path id="Trazado_188602" data-name="Trazado 188602" d="M297.147,377.793a2.5,2.5,0,1,0,2.5,2.5A2.5,2.5,0,0,0,297.147,377.793Zm0,3.333a.833.833,0,1,1,.833-.833A.834.834,0,0,1,297.147,381.126Z" transform="translate(-294.647 -377.793)" fill="#0d2380"/>
    </g>
  </g>
  <g id="Grupo_128085" data-name="Grupo 128085" transform="translate(30.78 31.483)">
    <g id="Grupo_128084" data-name="Grupo 128084">
      <path id="Trazado_188603" data-name="Trazado 188603" d="M371.858,377.793a2.5,2.5,0,1,0,2.5,2.5A2.5,2.5,0,0,0,371.858,377.793Zm0,3.333a.833.833,0,1,1,.833-.833A.834.834,0,0,1,371.858,381.126Z" transform="translate(-369.358 -377.793)" fill="#0d2380"/>
    </g>
  </g>
</svg>
