<svg id="huella-dactilar" xmlns="http://www.w3.org/2000/svg" width="42.67" height="42.67" viewBox="0 0 42.67 42.67">
  <g id="Grupo_128015" data-name="Grupo 128015" transform="translate(10.502 22.169)">
    <g id="Grupo_128014" data-name="Grupo 128014">
      <path id="Trazado_188560" data-name="Trazado 188560" d="M126.843,266.01a.832.832,0,1,0,.833.833A.831.831,0,0,0,126.843,266.01Z" transform="translate(-126.01 -266.01)" fill="#0d2380"/>
    </g>
  </g>
  <g id="Grupo_128017" data-name="Grupo 128017">
    <g id="Grupo_128016" data-name="Grupo 128016">
      <path id="Trazado_188561" data-name="Trazado 188561" d="M7.5,0H.833A.833.833,0,0,0,0,.833V7.5a.833.833,0,0,0,1.667,0V1.667H7.5A.833.833,0,0,0,7.5,0Z" fill="#0d2380"/>
    </g>
  </g>
  <g id="Grupo_128019" data-name="Grupo 128019" transform="translate(34.336)">
    <g id="Grupo_128018" data-name="Grupo 128018">
      <path id="Trazado_188562" data-name="Trazado 188562" d="M419.5,0h-6.667a.833.833,0,1,0,0,1.667h5.834V7.5a.833.833,0,0,0,1.667,0V.833A.833.833,0,0,0,419.5,0Z" transform="translate(-412)" fill="#0d2380"/>
    </g>
  </g>
  <g id="Grupo_128021" data-name="Grupo 128021" transform="translate(0 34.336)">
    <g id="Grupo_128020" data-name="Grupo 128020">
      <path id="Trazado_188563" data-name="Trazado 188563" d="M7.5,418.667H1.667v-5.834a.833.833,0,1,0-1.667,0V419.5a.833.833,0,0,0,.833.833H7.5a.833.833,0,0,0,0-1.667Z" transform="translate(0 -412)" fill="#0d2380"/>
    </g>
  </g>
  <g id="Grupo_128023" data-name="Grupo 128023" transform="translate(34.336 34.336)">
    <g id="Grupo_128022" data-name="Grupo 128022">
      <path id="Trazado_188564" data-name="Trazado 188564" d="M419.5,412a.833.833,0,0,0-.833.833v5.834h-5.834a.833.833,0,1,0,0,1.667H419.5a.833.833,0,0,0,.833-.833v-6.667A.833.833,0,0,0,419.5,412Z" transform="translate(-412 -412)" fill="#0d2380"/>
    </g>
  </g>
  <g id="Grupo_128025" data-name="Grupo 128025" transform="translate(19.138 2.167)">
    <g id="Grupo_128024" data-name="Grupo 128024">
      <path id="Trazado_188565" data-name="Trazado 188565" d="M233.284,26.078a14.377,14.377,0,0,0-2.9,0,.833.833,0,1,0,.17,1.658,12.694,12.694,0,0,1,2.557,0,.852.852,0,0,0,.086,0,.833.833,0,0,0,.084-1.663Z" transform="translate(-229.639 -26.004)" fill="#0d2380"/>
    </g>
  </g>
  <g id="Grupo_128027" data-name="Grupo 128027" transform="translate(8.136 30.502)">
    <g id="Grupo_128026" data-name="Grupo 128026">
      <path id="Trazado_188566" data-name="Trazado 188566" d="M116.784,373.793a.833.833,0,0,0-1.092-.443,12.517,12.517,0,0,1-16.459-6.832.833.833,0,0,0-1.545.625,14.183,14.183,0,0,0,18.653,7.741A.833.833,0,0,0,116.784,373.793Z" transform="translate(-97.627 -365.998)" fill="#0d2380"/>
    </g>
  </g>
  <g id="Grupo_128029" data-name="Grupo 128029" transform="translate(7.167 22.168)">
    <g id="Grupo_128028" data-name="Grupo 128028">
      <path id="Trazado_188567" data-name="Trazado 188567" d="M86.833,266a.833.833,0,0,0-.833.833v3.334a.833.833,0,1,0,1.667,0v-3.334A.833.833,0,0,0,86.833,266Z" transform="translate(-86 -266)" fill="#0d2380"/>
    </g>
  </g>
  <g id="Grupo_128031" data-name="Grupo 128031" transform="translate(7.167 3.214)">
    <g id="Grupo_128030" data-name="Grupo 128030">
      <path id="Trazado_188568" data-name="Trazado 188568" d="M95.745,39.076a.833.833,0,0,0-1.092-.443A14.15,14.15,0,0,0,86,51.688v3.334a.833.833,0,1,0,1.667,0V51.688A12.486,12.486,0,0,1,95.3,40.168.833.833,0,0,0,95.745,39.076Z" transform="translate(-86 -38.567)" fill="#0d2380"/>
    </g>
  </g>
  <g id="Grupo_128033" data-name="Grupo 128033" transform="translate(28.983 24.252)">
    <g id="Grupo_128032" data-name="Grupo 128032">
      <path id="Trazado_188569" data-name="Trazado 188569" d="M353.455,291a.833.833,0,0,0-.833.833v1.25a12.466,12.466,0,0,1-4.55,9.646.833.833,0,1,0,1.061,1.286,14.127,14.127,0,0,0,5.156-10.932v-1.25A.833.833,0,0,0,353.455,291Z" transform="translate(-347.769 -291)" fill="#0d2380"/>
    </g>
  </g>
  <g id="Grupo_128035" data-name="Grupo 128035" transform="translate(25.692 3.214)">
    <g id="Grupo_128034" data-name="Grupo 128034">
      <path id="Trazado_188570" data-name="Trazado 188570" d="M309.437,38.633a.833.833,0,1,0-.649,1.535c6.868,2.9,7.624,9.343,7.631,11.975,0,.085,0,.151,0,.21v3.716a.833.833,0,1,0,1.667-.007v-3.75C318.089,46.244,315.246,41.09,309.437,38.633Z" transform="translate(-308.279 -38.567)" fill="#0d2380"/>
    </g>
  </g>
  <g id="Grupo_128037" data-name="Grupo 128037" transform="translate(28.792 9.913)">
    <g id="Grupo_128036" data-name="Grupo 128036">
      <path id="Trazado_188571" data-name="Trazado 188571" d="M348.635,123.19A10.748,10.748,0,0,0,347,119.316a.833.833,0,0,0-1.381.933A9.088,9.088,0,0,1,347,123.525a.833.833,0,1,0,1.633-.335Z" transform="translate(-345.479 -118.949)" fill="#0d2380"/>
    </g>
  </g>
  <g id="Grupo_128039" data-name="Grupo 128039" transform="translate(10.501 5.505)">
    <g id="Grupo_128038" data-name="Grupo 128038">
      <path id="Trazado_188572" data-name="Trazado 188572" d="M142.886,67.907a10.837,10.837,0,0,0-13.712,1.324c-3.07,3.069-3.122,5.977-3.165,8.314-.027,1.508,0-.775-.012,2.677a.833.833,0,0,0,1.667,0V78.15c.067-2.551-.089-4.963,2.689-7.74a9.168,9.168,0,0,1,11.6-1.121.833.833,0,0,0,.933-1.381Z" transform="translate(-125.997 -66.059)" fill="#0d2380"/>
    </g>
  </g>
  <g id="Grupo_128041" data-name="Grupo 128041" transform="translate(10.501 25.502)">
    <g id="Grupo_128040" data-name="Grupo 128040">
      <path id="Trazado_188573" data-name="Trazado 188573" d="M143.113,314.657a.833.833,0,0,0-1.157-.224,9.028,9.028,0,0,1-5.038,1.577,9.19,9.19,0,0,1-9.251-9.177.833.833,0,0,0-1.667,0,10.836,10.836,0,0,0,10.892,10.835,10.692,10.692,0,0,0,6-1.854A.833.833,0,0,0,143.113,314.657Z" transform="translate(-126 -306)" fill="#0d2380"/>
    </g>
  </g>
  <g id="Grupo_128043" data-name="Grupo 128043" transform="translate(28.792 16.751)">
    <g id="Grupo_128042" data-name="Grupo 128042">
      <path id="Trazado_188574" data-name="Trazado 188574" d="M348.023,201a.833.833,0,0,0-.833.833v8.751a9.113,9.113,0,0,1-1.567,5.121.833.833,0,0,0,1.381.933,10.774,10.774,0,0,0,1.853-6.054v-8.751A.833.833,0,0,0,348.023,201Z" transform="translate(-345.48 -201)" fill="#0d2380"/>
    </g>
  </g>
  <g id="Grupo_128045" data-name="Grupo 128045" transform="translate(13.834 12.908)">
    <g id="Grupo_128044" data-name="Grupo 128044">
      <path id="Trazado_188575" data-name="Trazado 188575" d="M173.5,174.148a5.838,5.838,0,0,1-5.834-5.834v-10a5.775,5.775,0,0,1,.459-2.267.833.833,0,0,0-1.534-.651,7.432,7.432,0,0,0-.591,2.918v10a7.5,7.5,0,0,0,7.5,7.5.833.833,0,0,0,0-1.667Z" transform="translate(-166 -154.887)" fill="#0d2380"/>
    </g>
  </g>
  <g id="Grupo_128047" data-name="Grupo 128047" transform="translate(25.214 26.844)">
    <g id="Grupo_128046" data-name="Grupo 128046">
      <path id="Trazado_188576" data-name="Trazado 188576" d="M305.36,322.115a.834.834,0,0,0-.984.649,5.812,5.812,0,0,1-1.592,2.948.833.833,0,0,0,1.179,1.179,7.476,7.476,0,0,0,2.046-3.792A.834.834,0,0,0,305.36,322.115Z" transform="translate(-302.54 -322.098)" fill="#0d2380"/>
    </g>
  </g>
  <g id="Grupo_128049" data-name="Grupo 128049" transform="translate(17.909 8.834)">
    <g id="Grupo_128048" data-name="Grupo 128048">
      <path id="Trazado_188577" data-name="Trazado 188577" d="M218.313,106a7.439,7.439,0,0,0-2.918.591.833.833,0,1,0,.65,1.535,5.782,5.782,0,0,1,2.268-.459,5.84,5.84,0,0,1,5.834,5.834v7.509a.833.833,0,0,0,1.667,0V113.5A7.509,7.509,0,0,0,218.313,106Z" transform="translate(-214.886 -106)" fill="#0d2380"/>
    </g>
  </g>
  <g id="Grupo_128051" data-name="Grupo 128051" transform="translate(17.168 12.168)">
    <g id="Grupo_128050" data-name="Grupo 128050">
      <path id="Trazado_188578" data-name="Trazado 188578" d="M210.167,146A4.172,4.172,0,0,0,206,150.167v7.5a.833.833,0,1,0,1.667,0v-7.5a2.5,2.5,0,0,1,5,0,.833.833,0,1,0,1.667,0A4.172,4.172,0,0,0,210.167,146Z" transform="translate(-206 -146)" fill="#0d2380"/>
    </g>
  </g>
  <g id="Grupo_128053" data-name="Grupo 128053" transform="translate(17.43 20.502)">
    <g id="Grupo_128052" data-name="Grupo 128052">
      <path id="Trazado_188579" data-name="Trazado 188579" d="M217.217,250.989c-.006-.359-.009.17,0-4.155a.829.829,0,1,0-1.658,0c-.011,4.165-.015,3.442,0,4.183a3.9,3.9,0,0,1-.2,1.789,2.5,2.5,0,0,1-4.607,0,.833.833,0,0,0-1.535.65,4.167,4.167,0,0,0,7.677,0A5.4,5.4,0,0,0,217.217,250.989Z" transform="translate(-209.147 -246.001)" fill="#0d2380"/>
    </g>
  </g>
  <g id="Grupo_128055" data-name="Grupo 128055" transform="translate(20.502 15.501)">
    <g id="Grupo_128054" data-name="Grupo 128054">
      <path id="Trazado_188580" data-name="Trazado 188580" d="M246.833,186a.833.833,0,0,0-.833.833v10a.833.833,0,0,0,1.667,0v-10A.833.833,0,0,0,246.833,186Z" transform="translate(-246 -186)" fill="#0d2380"/>
    </g>
  </g>
</svg>
