<svg xmlns="http://www.w3.org/2000/svg" width="55" height="52.276" viewBox="0 0 55 52.276">
  <g id="_000000ff" data-name="#000000ff" transform="translate(0 -12.719)">
    <path id="Trazado_188620" data-name="Trazado 188620" d="M43.971,13a2.506,2.506,0,0,1,2.755.306,3.88,3.88,0,0,1,.812,1.126q3.53,6.126,7.071,12.249A2.664,2.664,0,0,1,55,27.93v.143a2.494,2.494,0,0,1-2.245,2.372c-1.173.035-2.347,0-3.521.016q0,11.337,0,22.675a4.659,4.659,0,0,1-.167,1.69,2.665,2.665,0,0,1-2.549,1.722q-7.457.006-14.914,0,0,1.3,0,2.6c1.391.006,2.783-.008,4.175.006a2.925,2.925,0,0,1,2.59,1.678,4.8,4.8,0,0,1,.278,2.189,2.432,2.432,0,0,1-.193,1.289,1.419,1.419,0,0,1-1.29.675q-12.19,0-24.379,0a1.437,1.437,0,0,1-1.322-.645,2.332,2.332,0,0,1-.214-1.32,7.506,7.506,0,0,1,.095-1.68,2.929,2.929,0,0,1,2.725-2.185c1.408-.018,2.817,0,4.224-.009q0-1.3,0-2.6-7.427,0-14.852,0a4.473,4.473,0,0,1-1.809-.205A2.69,2.69,0,0,1,0,54.132V24.676a2.669,2.669,0,0,1,2.58-2.427c2.914-.012,5.83,0,8.744-.005a9.531,9.531,0,0,1,1.8-2.826,9.948,9.948,0,0,1,4.962-2.881,11.2,11.2,0,0,1,7.673.845,9.768,9.768,0,0,1,4.574,4.862q3.94,0,7.877,0l4.749-8.225A2.477,2.477,0,0,1,43.971,13m.762,1.418a.86.86,0,0,0-.362.375q-3.524,6.1-7.045,12.2a6.221,6.221,0,0,0-.414.763.847.847,0,0,0,.78,1.087q7.419.011,14.836,0a.849.849,0,0,0,.744-1.254q-3.692-6.407-7.392-12.807a.871.871,0,0,0-1.148-.37M18.595,18.087a8.2,8.2,0,0,0-5.079,3.459A8.961,8.961,0,0,0,12.149,26.3q3.435,0,6.87,0a.832.832,0,0,1,.889.629.8.8,0,0,1-.78.978c-2.327.009-4.654,0-6.98,0q0,1.708,0,3.416a5.919,5.919,0,0,0,.163,1.352c1.806,0,3.61,0,5.416,0a2.79,2.79,0,0,0,1.4-.582,3.177,3.177,0,0,1,2.253-.608c1.335.147,2.375,1.321,3.763,1.191,1.423,0,2.848,0,4.272,0a6.974,6.974,0,0,0,.184-1.557c0-1.071,0-2.141,0-3.212q-3.471,0-6.942,0a.818.818,0,0,1-.8-.473.8.8,0,0,1,.692-1.13c2.347-.019,4.7,0,7.043-.009A9.571,9.571,0,0,0,28.5,22.175a8.075,8.075,0,0,0-3.583-3.4,9.477,9.477,0,0,0-6.323-.685m-16.983,6.9q0,12.457,0,24.915H4.266c0-1.1-.006-2.208.005-3.312A4.835,4.835,0,0,1,6.1,42.911a5.175,5.175,0,0,1,3.619-1.052,6.253,6.253,0,0,1,3.03-4.761,12.428,12.428,0,0,1-1.6-2.8,2.829,2.829,0,0,1-2.1-.72,3.827,3.827,0,0,1-.652-4.5,2.33,2.33,0,0,1,2.144-1.147,17.318,17.318,0,0,1,.289-4.075c-2.717,0-5.432,0-8.149,0a1.044,1.044,0,0,0-1.063,1.128m29.253-1.13a15.441,15.441,0,0,1,.345,4.075,2.541,2.541,0,0,1,1.483.365,2.932,2.932,0,0,1,1.188,2.394,3.685,3.685,0,0,1-1.351,3.091,3,3,0,0,1-1.952.512,12.434,12.434,0,0,1-1.635,2.816,6.274,6.274,0,0,1,2.965,4.713,5.119,5.119,0,0,1,3.383.953A4.847,4.847,0,0,1,37.246,46.5c.017,1.133,0,2.268.008,3.4q5.184,0,10.366,0,0-9.721,0-19.441-4.8,0-9.592,0a2.772,2.772,0,0,1-1.5-.309,2.48,2.48,0,0,1-.993-3.257c.57-1.018,1.167-2.023,1.743-3.038q-3.2,0-6.41,0M9.848,29.8a2.091,2.091,0,0,0-.214,1.7,1.519,1.519,0,0,0,1.025,1.176,19.83,19.83,0,0,1-.125-3.135.8.8,0,0,0-.686.261M31.21,29.54a18.039,18.039,0,0,1-.144,3.15,1.307,1.307,0,0,0,.94-.719,2.255,2.255,0,0,0,0-2.133c-.162-.28-.507-.3-.795-.3M19.7,33.631a3.6,3.6,0,0,1-1.865.658c-1.648,0-3.3,0-4.945,0a11.464,11.464,0,0,0,3.369,4.092,8.936,8.936,0,0,0,4.472,1.884,7.075,7.075,0,0,0,2.65-.693,11.718,11.718,0,0,0,5.432-5.282c-1.084,0-2.168,0-3.252,0a5.9,5.9,0,0,1-1.818-.149c-.872-.246-1.615-.816-2.492-1.039-.582-.15-1.081.257-1.552.529m-8.153,7.3a4.166,4.166,0,0,0,.218,3.228,4.453,4.453,0,0,0,2.838,2.34,8.881,8.881,0,0,0,2.3.153,6.128,6.128,0,0,1-1.265-2.585,24.44,24.44,0,0,1-.169-4.272,14.6,14.6,0,0,1-1.653-1.447,4.933,4.933,0,0,0-2.264,2.583m14.874-1.323c-.095.084-.256.155-.218.312-.008.935.009,1.869-.006,2.8a6.315,6.315,0,0,1-1.424,3.922,8.991,8.991,0,0,0,2.175-.135,4.443,4.443,0,0,0,2.731-2.035,4.269,4.269,0,0,0,.337-3.738,4.889,4.889,0,0,0-2.162-2.384,13.466,13.466,0,0,1-1.432,1.255m-9.344,1.2c0,.641-.009,1.283,0,1.925a4.536,4.536,0,0,0,1.332,3.165,2.66,2.66,0,0,0,1.88.758,4.836,4.836,0,0,0,2.268-.272,4.141,4.141,0,0,0,2-3.29c.056-.768.017-1.538.028-2.307a10.865,10.865,0,0,1-2.676.966,7.383,7.383,0,0,1-4.837-.944M7.522,43.886a3.228,3.228,0,0,0-1.639,2.7c-.012,1.1,0,2.21,0,3.314q5.815,0,11.633,0a.808.808,0,1,1,0,1.609H1.612c.006.833-.017,1.666.01,2.5a1.055,1.055,0,0,0,1.17.926q21.864,0,43.729,0A1.034,1.034,0,0,0,47.61,54c.027-.828,0-1.658.011-2.487q-13.123,0-26.244.008a.849.849,0,0,1-.931-.641.806.806,0,0,1,.825-.97c4.79-.012,9.581-.006,14.371-.009,0-1.105.006-2.211,0-3.316a3.235,3.235,0,0,0-1.579-2.7,3.865,3.865,0,0,0-2.262-.452,6.1,6.1,0,0,1-3.839,4.448,6.58,6.58,0,0,1-2.5.372c-3.259-.005-6.517.017-9.776,0a6.021,6.021,0,0,1-3.189-.956,6.09,6.09,0,0,1-2.655-3.83,4.086,4.086,0,0,0-2.317.412M19.9,56.549q0,1.3,0,2.6,5.043,0,10.087,0,0-1.3,0-2.6-5.043,0-10.087,0m-6.745,4.7c-.484.6-.238,1.424-.3,2.13q12.087,0,24.173,0c-.01-.491.021-.983-.016-1.473a1.316,1.316,0,0,0-1.344-1.139q-10.638-.01-21.277,0A1.433,1.433,0,0,0,13.158,61.25Z" fill="#0d2380"/>
    <path id="Trazado_188621" data-name="Trazado 188621" d="M413.085,61.725a.805.805,0,0,1,1.111.721c.012,1.543,0,3.086.005,4.63a.823.823,0,0,1-.708.883.8.8,0,0,1-.9-.786c-.012-1.538,0-3.077-.005-4.615A.829.829,0,0,1,413.085,61.725Z" transform="translate(-368.266 -43.683)" fill="#0d2380"/>
    <path id="Trazado_188622" data-name="Trazado 188622" d="M413.051,136.494a.817.817,0,1,1,.074,1.47A.84.84,0,0,1,413.051,136.494Z" transform="translate(-368.324 -110.379)" fill="#0d2380"/>
    <path id="Trazado_188623" data-name="Trazado 188623" d="M139.011,165.224a3.651,3.651,0,0,1,1.433.187c.462.135,1.095.1,1.348.592a.809.809,0,0,1-.684,1.174c-.507-.048-1-.207-1.5-.3-.36-.085-.8-.116-1.008-.472A.81.81,0,0,1,139.011,165.224Z" transform="translate(-123.605 -136.091)" fill="#0d2380"/>
    <path id="Trazado_188624" data-name="Trazado 188624" d="M224.111,165.181a.919.919,0,0,1,.971.19.806.806,0,0,1-.3,1.3c-.559.157-1.132.252-1.7.388a.91.91,0,0,1-.986-.208.807.807,0,0,1,.267-1.263C222.94,165.411,223.533,165.324,224.111,165.181Z" transform="translate(-198.066 -136.034)" fill="#0d2380"/>
  </g>
</svg>
