<svg xmlns="http://www.w3.org/2000/svg" xmlns:xlink="http://www.w3.org/1999/xlink" width="55" height="55" viewBox="0 0 55 55">
  <defs>
    <clipPath id="clip-path">
      <path id="path3720" d="M0-682.665H55v55H0Z" transform="translate(0 682.665)" fill="#0d2380"/>
    </clipPath>
  </defs>
  <g id="g3714" transform="translate(0 682.665)">
    <g id="g3716" transform="translate(0 -682.665)">
      <g id="g3718" clip-path="url(#clip-path)">
        <g id="g3724" transform="translate(0 11.312)">
          <path id="path3726" d="M40.592-11.185H-12.259a1.074,1.074,0,0,1-1.074-1.074,1.074,1.074,0,0,1,1.074-1.074H40.592a1.074,1.074,0,0,1,1.074,1.074A1.074,1.074,0,0,1,40.592-11.185Z" transform="translate(13.333 13.333)" fill="#0d2380"/>
        </g>
      </g>
    </g>
    <g id="g3728" transform="translate(40.574 -677.01)">
      <path id="path3730" d="M-12.218-11.185A1.077,1.077,0,0,1-13.3-12.259a1.072,1.072,0,0,1,1.071-1.074h.006a1.074,1.074,0,0,1,1.074,1.074A1.074,1.074,0,0,1-12.218-11.185Z" transform="translate(13.295 13.333)" fill="#0d2380"/>
    </g>
    <g id="g3732" transform="translate(46.372 -677.01)">
      <path id="path3734" d="M-12.218-11.185A1.077,1.077,0,0,1-13.3-12.259a1.072,1.072,0,0,1,1.071-1.074h.006a1.074,1.074,0,0,1,1.074,1.074A1.074,1.074,0,0,1-12.218-11.185Z" transform="translate(13.295 13.333)" fill="#0d2380"/>
    </g>
    <g id="g3736" transform="translate(34.777 -677.01)">
      <path id="path3738" d="M-12.218-11.185A1.077,1.077,0,0,1-13.3-12.259a1.072,1.072,0,0,1,1.071-1.074h.006a1.074,1.074,0,0,1,1.074,1.074A1.074,1.074,0,0,1-12.218-11.185Z" transform="translate(13.295 13.333)" fill="#0d2380"/>
    </g>
    <g id="g3740" transform="translate(6.474 -677.01)">
      <path id="path3742" d="M3.882-11.185H-12.259a1.074,1.074,0,0,1-1.074-1.074,1.074,1.074,0,0,1,1.074-1.074H3.882a1.074,1.074,0,0,1,1.074,1.074A1.074,1.074,0,0,1,3.882-11.185Z" transform="translate(13.333 13.333)" fill="#0d2380"/>
    </g>
    <g id="g3744" transform="translate(0 -682.665)">
      <g id="g3746" clip-path="url(#clip-path)">
        <g id="g3752" transform="translate(9.024 18.033)">
          <path id="path3754" d="M-106.255-3.113A18.37,18.37,0,0,1-119.33-8.529a18.571,18.571,0,0,1-3.113-22.019,1.074,1.074,0,0,1,1.46-.42,1.074,1.074,0,0,1,.42,1.46,16.413,16.413,0,0,0,2.752,19.46,16.236,16.236,0,0,0,11.556,4.787A16.236,16.236,0,0,0-94.7-10.048a16.359,16.359,0,0,0,0-23.109,16.416,16.416,0,0,0-19.463-2.752,1.074,1.074,0,0,1-1.46-.42,1.074,1.074,0,0,1,.42-1.46A18.574,18.574,0,0,1-93.18-34.676a18.51,18.51,0,0,1,0,26.147A18.37,18.37,0,0,1-106.255-3.113Z" transform="translate(124.731 40.078)" fill="#0d2380"/>
        </g>
        <g id="g3756" transform="translate(0 0)">
          <path id="path3758" d="M-105.323-519.256h-9.193a1.074,1.074,0,0,1-1.074-1.074,1.074,1.074,0,0,1,1.074-1.074h9.193a1.3,1.3,0,0,0,1.3-1.3v-39.776a1.3,1.3,0,0,0-1.3-1.3h-48.107a1.3,1.3,0,0,0-1.3,1.3V-522.7a1.3,1.3,0,0,0,1.3,1.3h9.193a1.074,1.074,0,0,1,1.074,1.074,1.074,1.074,0,0,1-1.074,1.074h-9.193a3.45,3.45,0,0,1-3.446-3.446v-39.776a3.45,3.45,0,0,1,3.446-3.446h48.107a3.45,3.45,0,0,1,3.446,3.446V-522.7A3.45,3.45,0,0,1-105.323-519.256Z" transform="translate(156.877 565.925)" fill="#0d2380"/>
        </g>
        <g id="g3760" transform="translate(26.424 37.986)">
          <path id="path3762" d="M-12.259-8.621A1.074,1.074,0,0,1-13.333-9.7v-2.564a1.074,1.074,0,0,1,1.074-1.074,1.074,1.074,0,0,1,1.074,1.074V-9.7A1.074,1.074,0,0,1-12.259-8.621Z" transform="translate(13.333 13.333)" fill="#0d2380"/>
        </g>
        <g id="g3764" transform="translate(20.611 24.141)">
          <path id="path3766" d="M-.633-108.379H-12.259a1.074,1.074,0,0,1-1.074-1.074v-3.84a5.758,5.758,0,0,1,5.751-5.751H-5.31a5.758,5.758,0,0,1,5.751,5.751v3.84A1.074,1.074,0,0,1-.633-108.379Zm-10.552-2.148h9.477v-2.765a3.607,3.607,0,0,0-3.6-3.6H-7.582a3.607,3.607,0,0,0-3.6,3.6Z" transform="translate(13.333 119.044)" fill="#0d2380"/>
        </g>
        <g id="g3768" transform="translate(18.294 32.657)">
          <path id="path3770" d="M-212.3-86.39h12.7a2.856,2.856,0,0,1,2.852,2.852v4.108a9.215,9.215,0,0,1-9.2,9.2,9.215,9.215,0,0,1-9.2-9.2v-4.108A2.857,2.857,0,0,1-212.3-86.39Zm6.349,14.016A7.064,7.064,0,0,0-198.9-79.43v-4.108a.713.713,0,0,0-.7-.7h-12.7a.715.715,0,0,0-.707.7v4.108A7.064,7.064,0,0,0-205.951-72.374Z" transform="translate(215.156 86.39)" fill="#0d2380"/>
        </g>
        <g id="g3772" transform="translate(14.11 23.12)">
          <path id="path3774" d="M-12.3-11.156a1.071,1.071,0,0,1-.76-.315,1.074,1.074,0,0,1,0-1.519,1.076,1.076,0,0,1,1.521,0,1.072,1.072,0,0,1,0,1.518l0,0A1.071,1.071,0,0,1-12.3-11.156Z" transform="translate(13.371 13.305)" fill="#0d2380"/>
        </g>
      </g>
    </g>
  </g>
</svg>
