<svg xmlns="http://www.w3.org/2000/svg" width="55" height="55.015" viewBox="0 0 55 55.015">
  <g id="la-seguridad-cibernetica" transform="translate(-0.079)">
    <g id="Page-1_36_" transform="translate(0.079 0)">
      <g id="_x30_37---Cyber-Security" transform="translate(0 0)">
        <path id="Shape_179_" d="M52.414,24.841a3.666,3.666,0,0,0-3.536,2.749h-2.01A18.277,18.277,0,0,0,40.5,14.607V11.095a1.833,1.833,0,0,1,1.833-1.833h4.712a3.666,3.666,0,1,0,0-1.833H42.333a3.666,3.666,0,0,0-3.666,3.666v2.121a18.2,18.2,0,0,0-9.165-2.99V8.215a3.666,3.666,0,1,0-1.833,0v2.01a18.2,18.2,0,0,0-9.165,2.99V11.095A3.666,3.666,0,0,0,14.84,7.429H10.127a3.666,3.666,0,1,0,0,1.833H14.84a1.833,1.833,0,0,1,1.833,1.833v3.512A18.277,18.277,0,0,0,10.3,27.591H8.294a3.666,3.666,0,1,0,0,1.833H10.3a18.277,18.277,0,0,0,6.368,12.984V45.92a1.833,1.833,0,0,1-1.833,1.833H10.127a3.666,3.666,0,1,0,0,1.833H14.84a3.666,3.666,0,0,0,3.666-3.666V43.8a18.2,18.2,0,0,0,9.165,2.99V48.8a3.666,3.666,0,1,0,1.833,0V46.79a18.2,18.2,0,0,0,9.165-2.99V45.92a3.666,3.666,0,0,0,3.666,3.666h4.712a3.666,3.666,0,1,0,0-1.833H42.333A1.833,1.833,0,0,1,40.5,45.92V42.408a18.277,18.277,0,0,0,6.368-12.984h2.01a3.659,3.659,0,1,0,3.536-4.582ZM50.581,6.512a1.833,1.833,0,1,1-1.833,1.833A1.833,1.833,0,0,1,50.581,6.512ZM6.592,10.178a1.833,1.833,0,1,1,1.3-.537,1.833,1.833,0,0,1-1.3.537Zm0,40.324a1.833,1.833,0,1,1,1.833-1.833A1.833,1.833,0,0,1,6.592,50.5Zm43.99-3.666a1.833,1.833,0,1,1-1.833,1.833,1.833,1.833,0,0,1,1.833-1.833ZM26.753,4.68a1.833,1.833,0,1,1,1.833,1.833A1.833,1.833,0,0,1,26.753,4.68ZM4.759,30.34a1.833,1.833,0,1,1,1.833-1.833A1.833,1.833,0,0,1,4.759,30.34ZM30.419,52.335A1.833,1.833,0,1,1,28.586,50.5,1.833,1.833,0,0,1,30.419,52.335ZM28.586,45a16.5,16.5,0,1,1,16.5-16.5A16.5,16.5,0,0,1,28.586,45ZM52.414,30.34a1.833,1.833,0,1,1,1.833-1.833A1.833,1.833,0,0,1,52.414,30.34Z" transform="translate(-1.079 -1)" fill="#0d2380"/>
        <path id="Shape_178_" d="M211.623,154.333a.916.916,0,0,1-.916-.916v-2.749a10.1,10.1,0,0,0-20.157-1.008.916.916,0,0,0,1.824.183,8.272,8.272,0,0,1,16.5.825v2.749a2.749,2.749,0,0,0,2.749,2.749.916.916,0,0,0,0-1.833Z" transform="translate(-173.118 -127.742)" fill="#0d2380"/>
        <path id="Shape_177_" d="M211.624,194.25a4.582,4.582,0,0,1-4.582-4.582v-2.749a6.415,6.415,0,0,0-12.83,0v.137a1.7,1.7,0,0,1-1.7,1.7h-1.053a.916.916,0,1,0,0,1.833h1.053a3.534,3.534,0,0,0,3.529-3.529v-.137a4.582,4.582,0,1,1,9.164,0v2.749a6.421,6.421,0,0,0,6.415,6.415.916.916,0,1,0,0-1.833Z" transform="translate(-173.12 -163.993)" fill="#0d2380"/>
        <path id="Shape_176_" d="M212.424,223.1a2.749,2.749,0,0,0-3.208-2.712,2.832,2.832,0,0,0-2.291,2.815,5.454,5.454,0,0,1-5.5,5.4.916.916,0,0,0,0,1.833,7.288,7.288,0,0,0,7.332-7.228,1,1,0,0,1,.755-1.008.916.916,0,0,1,1.078.9c0,5.053-3.7,9.165-8.248,9.165a.916.916,0,0,0,0,1.833C207.9,234.1,212.424,229.163,212.424,223.1Z" transform="translate(-182.167 -200.174)" fill="#0d2380"/>
        <path id="Shape_175_" d="M326.5,332.727a5.916,5.916,0,0,1-4.739-2.345.916.916,0,0,0-1.522,1.021,7.771,7.771,0,0,0,6.261,3.157.916.916,0,1,0,0-1.833Z" transform="translate(-290.747 -299.721)" fill="#0d2380"/>
        <path id="Shape_174_" d="M243.455,366.159a9.117,9.117,0,0,1-4.578-2.808,1.81,1.81,0,0,0-2.211-.411,11.823,11.823,0,0,1-5.347,1.358.916.916,0,1,0,0,1.833,13.457,13.457,0,0,0,6.18-1.573,10.965,10.965,0,0,0,5.512,3.378.889.889,0,0,0,.222.027.916.916,0,0,0,.221-1.805h0Z" transform="translate(-209.311 -329.459)" fill="#0d2380"/>
        <path id="Shape_173_" d="M249.75,408.666a6.029,6.029,0,0,1-2.665-1.466,2.532,2.532,0,0,0-2.738-.475,7.914,7.914,0,0,1-3.065.66.916.916,0,0,0,0,1.833,9.74,9.74,0,0,0,3.788-.806.709.709,0,0,1,.759.126,7.871,7.871,0,0,0,3.482,1.909.917.917,0,1,0,.44-1.78h0Z" transform="translate(-218.357 -369.218)" fill="#0d2380"/>
      </g>
    </g>
  </g>
</svg>
