<svg xmlns="http://www.w3.org/2000/svg" width="55" height="55" viewBox="0 0 55 55">
  <g id="seguro-de-calidad" transform="translate(-1 -1)">
    <path id="Trazado_188612" data-name="Trazado 188612" d="M19.547,36.4l-1.254,1.254,4.235,4.235L32.021,30.5,30.658,29.36l-8.249,9.9Z" transform="translate(-1.952 -3.202)" fill="#0d2380"/>
    <path id="Trazado_188613" data-name="Trazado 188613" d="M7.661,10.323A2.661,2.661,0,1,0,5,7.661,2.665,2.665,0,0,0,7.661,10.323Zm0-3.548a.887.887,0,1,1-.887.887A.889.889,0,0,1,7.661,6.774Z" transform="translate(-0.452 -0.452)" fill="#0d2380"/>
    <path id="Trazado_188614" data-name="Trazado 188614" d="M15.661,10.323A2.661,2.661,0,1,0,13,7.661,2.665,2.665,0,0,0,15.661,10.323Zm0-3.548a.887.887,0,1,1-.887.887A.889.889,0,0,1,15.661,6.774Z" transform="translate(-1.355 -0.452)" fill="#0d2380"/>
    <path id="Trazado_188615" data-name="Trazado 188615" d="M23.661,10.323A2.661,2.661,0,1,0,21,7.661,2.665,2.665,0,0,0,23.661,10.323Zm0-3.548a.887.887,0,1,1-.887.887A.889.889,0,0,1,23.661,6.774Z" transform="translate(-2.258 -0.452)" fill="#0d2380"/>
    <path id="Trazado_188616" data-name="Trazado 188616" d="M56,23.177A11.539,11.539,0,0,0,45.355,11.69V3.661A2.665,2.665,0,0,0,42.694,1H3.661A2.665,2.665,0,0,0,1,3.661V53.339A2.665,2.665,0,0,0,3.661,56H44.468A4.441,4.441,0,0,0,48.9,51.565V38.258a1.776,1.776,0,0,0-1.774-1.774v-2.1A11.545,11.545,0,0,0,56,23.177Zm-1.774,0a9.758,9.758,0,1,1-9.758-9.758A9.77,9.77,0,0,1,54.226,23.177ZM33.037,24.634a11.438,11.438,0,0,0,1.672,4.661v2.363A16.042,16.042,0,0,1,23.177,47.094,16.042,16.042,0,0,1,11.645,31.658V24.864a33.229,33.229,0,0,0,11.532-3.347,32.351,32.351,0,0,0,9.86,3.117Zm-.084-1.81A30.2,30.2,0,0,1,23.6,19.734l-.42-.224-.42.224a31.634,31.634,0,0,1-12.082,3.447l-.8.075v8.4A17.815,17.815,0,0,0,22.946,48.871l.232.063.232-.063A17.815,17.815,0,0,0,36.484,31.658v-.179a11.522,11.522,0,0,0,1.724,1.369,19.491,19.491,0,0,1-15.03,17.806,19.386,19.386,0,0,1-15.081-19V21.4a30.034,30.034,0,0,0,15.081-4.279,29.846,29.846,0,0,0,9.987,3.771,11.677,11.677,0,0,0-.211,1.934ZM3.661,2.774H42.694a.889.889,0,0,1,.887.887v7.984H2.774V3.661A.889.889,0,0,1,3.661,2.774ZM2.774,53.339V13.419H38.349a11.577,11.577,0,0,0-4.685,5.759,28.126,28.126,0,0,1-10.018-3.85l-.47-.294-.47.294a28.262,28.262,0,0,1-15,4.3H6.323v12.03A21.151,21.151,0,0,0,22.985,52.43l.192.043.192-.043A21.268,21.268,0,0,0,39.914,33.768a11.4,11.4,0,0,0,1.892.618v2.1a1.776,1.776,0,0,0-1.774,1.774V51.565a4.39,4.39,0,0,0,.91,2.661H3.661A.889.889,0,0,1,2.774,53.339ZM47.129,38.258v1.774H41.806V38.258ZM44.468,54.226a2.665,2.665,0,0,1-2.661-2.661V41.806h5.323v9.758A2.665,2.665,0,0,1,44.468,54.226Zm.887-17.742H43.581V34.664c.294.022.587.045.887.045s.593-.022.887-.045Z" fill="#0d2380"/>
    <path id="Trazado_188617" data-name="Trazado 188617" d="M49,25h1.774v1.774H49Z" transform="translate(-5.419 -2.71)" fill="#0d2380"/>
    <path id="Trazado_188618" data-name="Trazado 188618" d="M53,25h1.774v1.774H53Z" transform="translate(-5.871 -2.71)" fill="#0d2380"/>
    <path id="Trazado_188619" data-name="Trazado 188619" d="M45,25h1.774v1.774H45Z" transform="translate(-4.968 -2.71)" fill="#0d2380"/>
  </g>
</svg>
