<svg xmlns="http://www.w3.org/2000/svg" width="42.667" height="56.889" viewBox="0 0 42.667 56.889">
  <g id="bloquear" transform="translate(-64)">
    <g id="Grupo_128013" data-name="Grupo 128013" transform="translate(64)">
      <g id="Grupo_128012" data-name="Grupo 128012" transform="translate(0)">
        <path id="Trazado_188558" data-name="Trazado 188558" d="M215.273,285.886l-.748,6.723a1.185,1.185,0,0,0,1.178,1.316h4.741a1.185,1.185,0,0,0,1.178-1.316l-.748-6.723a4.689,4.689,0,0,0,1.94-3.813,4.741,4.741,0,0,0-9.482,0A4.689,4.689,0,0,0,215.273,285.886Zm2.8-6.183a2.362,2.362,0,0,1,1.023,4.5,1.186,1.186,0,0,0-.662,1.2l.685,6.159h-2.093l.685-6.159a1.186,1.186,0,0,0-.662-1.2,2.362,2.362,0,0,1,1.023-4.5Z" transform="translate(-196.74 -246.518)" fill="#0d2380"/>
        <path id="Trazado_188559" data-name="Trazado 188559" d="M105.481,21.333h-3.556V16.592a16.592,16.592,0,0,0-33.185,0v4.741H65.185A1.185,1.185,0,0,0,64,22.518v29.63a4.745,4.745,0,0,0,4.741,4.741h33.185a4.745,4.745,0,0,0,4.741-4.741V22.518A1.185,1.185,0,0,0,105.481,21.333Zm-34.37-4.741a14.222,14.222,0,1,1,28.444,0v4.741h-2.37V16.592a11.852,11.852,0,1,0-23.7,0v4.741h-2.37Zm23.7,0v4.741H75.852V16.592a9.481,9.481,0,0,1,18.963,0ZM104.3,52.148a2.373,2.373,0,0,1-2.37,2.37H68.741a2.373,2.373,0,0,1-2.37-2.37V23.7H104.3Z" transform="translate(-64)" fill="#0d2380"/>
      </g>
    </g>
  </g>
</svg>
