<svg xmlns="http://www.w3.org/2000/svg" width="42.714" height="50" viewBox="0 0 42.714 50">
  <g id="_x31_9_Private_Storage" transform="translate(-4 -1.936)">
    <g id="Grupo_128010" data-name="Grupo 128010" transform="translate(4 1.936)">
      <path id="Trazado_188556" data-name="Trazado 188556" d="M25.357,1.936,4,9.7V26.967C4,46.475,24.724,51.781,24.933,51.833l.424.1.424-.1c.209-.052,20.933-5.358,20.933-24.866V9.7Zm17.8,25.031c0,15.446-14.966,20.479-17.791,21.291-2.724-.806-17.8-5.977-17.8-21.291V12.2l17.8-6.471,17.8,6.471Z" transform="translate(-4 -1.936)" fill="#0d2380"/>
      <path id="Trazado_188557" data-name="Trazado 188557" d="M11.81,18.412,9.293,20.929l8.377,8.377,15.5-15.5L30.65,11.293,17.67,24.273Z" transform="translate(0.127 5.361)" fill="#0d2380"/>
    </g>
  </g>
</svg>
