<svg xmlns="http://www.w3.org/2000/svg" xmlns:xlink="http://www.w3.org/1999/xlink" width="432" height="419" viewBox="0 0 432 419">
  <defs>
    <clipPath id="clip-path">
      <path id="Trazado_187876" data-name="Trazado 187876" d="M0,0H361.742V368.105H0Z" fill="none"/>
    </clipPath>
    <clipPath id="clip-path-2">
      <rect id="Rect치ngulo_38429" data-name="Rect치ngulo 38429" width="361.744" height="368.105" fill="none"/>
    </clipPath>
    <filter id="Elipse_5080" x="66" y="62" width="298" height="298" filterUnits="userSpaceOnUse">
      <feOffset dy="3" input="SourceAlpha"/>
      <feGaussianBlur stdDeviation="3" result="blur"/>
      <feFlood flood-opacity="0.161"/>
      <feComposite operator="in" in2="blur"/>
      <feComposite in="SourceGraphic"/>
    </filter>
    <clipPath id="clip-path-4">
      <rect id="Rect치ngulo_40492" data-name="Rect치ngulo 40492" width="112.744" height="104.486" fill="none"/>
    </clipPath>
    <filter id="Elipse_5082" x="298" y="0" width="131" height="131" filterUnits="userSpaceOnUse">
      <feOffset dy="3" input="SourceAlpha"/>
      <feGaussianBlur stdDeviation="3" result="blur-2"/>
      <feFlood flood-opacity="0.161"/>
      <feComposite operator="in" in2="blur-2"/>
      <feComposite in="SourceGraphic"/>
    </filter>
    <filter id="Elipse_5082-2" x="301" y="288" width="131" height="131" filterUnits="userSpaceOnUse">
      <feOffset dy="3" input="SourceAlpha"/>
      <feGaussianBlur stdDeviation="3" result="blur-3"/>
      <feFlood flood-opacity="0.161"/>
      <feComposite operator="in" in2="blur-3"/>
      <feComposite in="SourceGraphic"/>
    </filter>
    <filter id="Elipse_5082-3" x="0" y="0" width="131" height="131" filterUnits="userSpaceOnUse">
      <feOffset dy="3" input="SourceAlpha"/>
      <feGaussianBlur stdDeviation="3" result="blur-4"/>
      <feFlood flood-opacity="0.161"/>
      <feComposite operator="in" in2="blur-4"/>
      <feComposite in="SourceGraphic"/>
    </filter>
    <filter id="Elipse_5082-4" x="0" y="288" width="131" height="131" filterUnits="userSpaceOnUse">
      <feOffset dy="3" input="SourceAlpha"/>
      <feGaussianBlur stdDeviation="3" result="blur-5"/>
      <feFlood flood-opacity="0.161"/>
      <feComposite operator="in" in2="blur-5"/>
      <feComposite in="SourceGraphic"/>
    </filter>
  </defs>
  <g id="Grupo_127762" data-name="Grupo 127762" transform="translate(-585 -9450)">
    <g id="Grupo_127757" data-name="Grupo 127757">
      <g id="Grupo_127744" data-name="Grupo 127744" transform="translate(619 9474)">
        <g id="Enmascarar_grupo_110" data-name="Enmascarar grupo 110" transform="translate(0 0)" clip-path="url(#clip-path)">
          <g id="Grupo_124787" data-name="Grupo 124787" transform="translate(0 0.001)">
            <g id="Grupo_124786" data-name="Grupo 124786" clip-path="url(#clip-path-2)">
              <path id="Trazado_187132" data-name="Trazado 187132" d="M158.186,173.61H11.641A11.777,11.777,0,0,1,.03,160.941C6.076,74.925,73.273,6.218,157.386.03A11.741,11.741,0,0,1,169.781,11.9V161.754a11.733,11.733,0,0,1-11.595,11.856" transform="translate(0.002 -0.003)" fill="#fff2bf"/>
              <path id="Trazado_187133" data-name="Trazado 187133" d="M35.529,161.754V11.9A11.736,11.736,0,0,1,47.918.03c84.119,6.188,151.31,74.895,157.361,160.911a11.777,11.777,0,0,1-11.611,12.669H47.124a11.729,11.729,0,0,1-11.595-11.856" transform="translate(156.433 -0.003)" fill="#fff2bf"/>
              <path id="Trazado_187134" data-name="Trazado 187134" d="M47.124,35.2H193.668a11.777,11.777,0,0,1,11.611,12.669C199.228,133.889,132.037,202.6,47.918,208.784a11.737,11.737,0,0,1-12.389-11.873V47.06A11.729,11.729,0,0,1,47.124,35.2" transform="translate(156.433 159.292)" fill="#fff2bf"/>
              <path id="Trazado_187135" data-name="Trazado 187135" d="M169.78,47.06V196.911a11.737,11.737,0,0,1-12.389,11.873C73.272,202.6,6.081,133.889.029,47.873A11.777,11.777,0,0,1,11.64,35.2H158.185A11.729,11.729,0,0,1,169.78,47.06" transform="translate(-0.002 159.292)" fill="#fff2bf"/>
            </g>
          </g>
        </g>
      </g>
      <g id="Grupo_127756" data-name="Grupo 127756" transform="translate(0 -1)">
        <g transform="matrix(1, 0, 0, 1, 585, 9451)" filter="url(#Elipse_5080)">
          <circle id="Elipse_5080-2" data-name="Elipse 5080" cx="140" cy="140" r="140" transform="translate(75 68)" fill="#d9d9d9"/>
        </g>
        <circle id="Elipse_5081" data-name="Elipse 5081" cx="130" cy="130" r="130" transform="translate(670 9529)" fill="#fff"/>
        <g id="Grupo_127749" data-name="Grupo 127749" transform="translate(1.592 3.949)">
          <g id="Grupo_127745" data-name="Grupo 127745" transform="translate(494.653 9236.412)">
            <path id="Trazado_187398" data-name="Trazado 187398" d="M283.96,415.409l4.869-2.811-4.869-2.811-4.869,2.811-4.869,2.811,4.869,2.811,4.869,2.812,4.869-2.812Z" transform="translate(3.701)" fill="#fec2b5"/>
            <path id="Trazado_187399" data-name="Trazado 187399" d="M283.96,408.408V387.793l4.868-2.814V405.6Z" transform="translate(4.511)" fill="#fc502d"/>
            <path id="Trazado_187400" data-name="Trazado 187400" d="M283.96,387.793l-4.869-2.814V405.6l4.869,2.811Z" transform="translate(3.919)" fill="#c94024"/>
            <path id="Trazado_187401" data-name="Trazado 187401" d="M288.829,384.983l-4.869-2.812-4.869,2.812,4.869,2.811Z" transform="translate(4.128)" fill="#fec2b5"/>
            <path id="Trazado_187402" data-name="Trazado 187402" d="M288.829,409.345l-4.869-2.811v1.874l4.869,2.811Z" transform="translate(4.511)" fill="#5cd359"/>
            <path id="Trazado_187403" data-name="Trazado 187403" d="M279.092,411.219V396.226l4.869-2.81v14.991Z" transform="translate(3.919)" fill="#c1621a"/>
            <path id="Trazado_187404" data-name="Trazado 187404" d="M279.091,396.226l-4.868-2.813v14.994l4.869,2.811Z" transform="translate(3.327)" fill="#db7926"/>
            <path id="Trazado_187405" data-name="Trazado 187405" d="M283.96,393.416l-4.869-2.811-4.869,2.811,4.869,2.81Z" transform="translate(3.504)" fill="#ef8a2e"/>
            <path id="Trazado_187406" data-name="Trazado 187406" d="M279.092,411.219V396.226l4.869-2.81v14.991Z" transform="translate(3.919)" fill="#c94024"/>
            <path id="Trazado_187407" data-name="Trazado 187407" d="M279.091,396.226l-4.868-2.813v14.994l4.869,2.811Z" transform="translate(3.327)" fill="#fc502d"/>
            <path id="Trazado_187408" data-name="Trazado 187408" d="M283.96,393.416l-4.869-2.811-4.869,2.811,4.869,2.81Z" transform="translate(3.504)" fill="#fec2b5"/>
            <path id="Trazado_187409" data-name="Trazado 187409" d="M283.96,414.03V405.6l4.869-2.811v8.433Z" transform="translate(4.511)" fill="#fc502d"/>
            <path id="Trazado_187410" data-name="Trazado 187410" d="M283.96,405.6l-4.869-2.811v8.433l4.869,2.811Z" transform="translate(3.919)" fill="#c94024"/>
            <path id="Trazado_187411" data-name="Trazado 187411" d="M288.829,402.786l-4.869-2.811-4.869,2.811,4.869,2.81Z" transform="translate(4.128)" fill="#fec2b5"/>
            <g id="Grupo_124802" data-name="Grupo 124802" transform="translate(246.882 368.98)">
              <g id="Grupo_127747" data-name="Grupo 127747">
                <g id="Grupo_127746" data-name="Grupo 127746" clip-path="url(#clip-path-4)">
                  <g id="Grupo_124801" data-name="Grupo 124801" transform="translate(0.613 -0.001)">
                    <path id="Trazado_187412" data-name="Trazado 187412" d="M308.751,466.511l-41.03-21.229c-1.16-.6-1.015-1.649.325-2.343l27.94-14.452a5.558,5.558,0,0,1,4.528-.168l41.03,21.23c1.16.6,1.015,1.65-.325,2.343l-27.938,14.451a5.549,5.549,0,0,1-4.528.168" transform="translate(-245.173 -368.979)" fill="#dadeec"/>
                    <path id="Trazado_187413" data-name="Trazado 187413" d="M339.787,407.789,298.08,386.226a1.758,1.758,0,0,0-1.428-.172h0l-.068.028-.017.007-1.358.572,1.474.658v.073l.012,30.7a4.911,4.911,0,0,0,2.37,4.006l40.594,20.987.231,1.712,1.482-.634a1.751,1.751,0,0,0,.8-1.666l-.013-30.7a4.905,4.905,0,0,0-2.37-4.006" transform="translate(-241.899 -368.979)" fill="#2490c9"/>
                    <path id="Trazado_187414" data-name="Trazado 187414" d="M339.787,407.789,298.08,386.226a1.758,1.758,0,0,0-1.428-.172h0l-.068.028-.017.007-1.358.572,1.474.658v.073l.008,20.234,18.981,13.44,25.775-11.624a4.382,4.382,0,0,0-1.655-1.65" transform="translate(-241.899 -368.979)" fill="#2490c9"/>
                    <path id="Trazado_187415" data-name="Trazado 187415" d="M336.208,408.272l-4.087,1.541,3.086,2.13,2.576-.983a5.209,5.209,0,0,0-1.576-2.688" transform="translate(-237.624 -368.979)" fill="#0035d3"/>
                    <path id="Trazado_187416" data-name="Trazado 187416" d="M338.519,444.631,296.812,423.07a4.91,4.91,0,0,1-2.37-4.006l-.012-30.7c0-1.536,1.059-2.234,2.368-1.557l41.706,21.56a4.905,4.905,0,0,1,2.37,4.006l.012,30.7c0,1.537-1.059,2.234-2.368,1.557" transform="translate(-241.989 -368.979)" fill="#dadeec"/>
                    <path id="Trazado_187417" data-name="Trazado 187417" d="M336.969,442.344l-38.952-20.125a4.486,4.486,0,0,1-2.168-3.666l-.012-28.093c0-1.406.97-2.044,2.167-1.425l38.952,20.128a4.484,4.484,0,0,1,2.168,3.666l.012,28.094c0,1.4-.97,2.043-2.167,1.425" transform="translate(-241.826 -368.979)" fill="#fff"/>
                    <path id="Trazado_187418" data-name="Trazado 187418" d="M336.969,442.344l-38.952-20.125a4.486,4.486,0,0,1-2.168-3.666l-.012-28.093c0-1.406.97-2.044,2.167-1.425l38.952,20.128a4.484,4.484,0,0,1,2.168,3.666l.012,28.094c0,1.4-.97,2.043-2.167,1.425" transform="translate(-241.826 -368.979)" fill="#fff"/>
                    <path id="Trazado_187419" data-name="Trazado 187419" d="M342.325,445.579l-5.608-.664-36.2-18.727a5.554,5.554,0,0,0-4.528.167l-25.655,13.271-3.391-.4v1.724h0a1.191,1.191,0,0,0,.781,1.065l41.03,21.23a5.557,5.557,0,0,0,4.528-.168l27.938-14.451a1.666,1.666,0,0,0,1.108-1.366Z" transform="translate(-245.173 -368.979)" fill="#2490c9"/>
                    <path id="Trazado_187420" data-name="Trazado 187420" d="M315.122,433.749l-2.572-1.331H284.266l-13.936,7.209-3.391-.4v1.724h0a1.191,1.191,0,0,0,.781,1.065l41.03,21.23a4.682,4.682,0,0,0,2.337.392Z" transform="translate(-245.173 -368.979)" fill="#2490c9"/>
                    <path id="Trazado_187421" data-name="Trazado 187421" d="M268.445,439.4l-1.505-.177v1.724h0a1.189,1.189,0,0,0,.781,1.065l.723.373Z" transform="translate(-245.173 -368.979)" fill="#0035d3"/>
                    <path id="Trazado_187422" data-name="Trazado 187422" d="M304.787,463.416a5.813,5.813,0,0,0,3.847-.213v-3.847h-3.847Z" transform="translate(-240.79 -368.979)" fill="#0035d3"/>
                    <path id="Trazado_187423" data-name="Trazado 187423" d="M308.751,461.522,267.721,440.3c-1.16-.6-1.015-1.649.325-2.343l27.94-14.457a5.558,5.558,0,0,1,4.528-.168l41.03,21.23c1.16.6,1.015,1.65-.325,2.343l-27.938,14.453a5.557,5.557,0,0,1-4.528.168" transform="translate(-245.173 -368.979)" fill="#dadeec"/>
                    <path id="Trazado_187424" data-name="Trazado 187424" d="M341.218,446.272l-27.942,14.451a5.549,5.549,0,0,1-4.528.168l-41.03-21.23a1.444,1.444,0,0,1-.722-.707,1.086,1.086,0,0,0,.722,1.338l41.03,21.23a5.557,5.557,0,0,0,4.528-.168L341.213,446.9c.9-.466,1.259-1.093,1.047-1.636a2.051,2.051,0,0,1-1.047,1.006" transform="translate(-245.172 -368.979)" fill="#fff"/>
                    <path id="Trazado_187425" data-name="Trazado 187425" d="M283.482,433.263l-1.857-.961c-.15-.076-.131-.212.041-.3l2.191-1.134a.714.714,0,0,1,.581-.021l1.857.961c.15.076.131.212-.041.3l-2.191,1.134a.718.718,0,0,1-.581.022" transform="translate(-243.484 -368.979)" fill="#2490c9"/>
                    <path id="Trazado_187426" data-name="Trazado 187426" d="M286.052,434.746l-1.857-.961c-.15-.077-.131-.212.041-.3l2.191-1.134a.714.714,0,0,1,.581-.021l1.857.96c.15.077.131.213-.041.3l-2.191,1.134a.718.718,0,0,1-.581.022" transform="translate(-243.186 -368.979)" fill="#2490c9"/>
                    <path id="Trazado_187427" data-name="Trazado 187427" d="M288.623,436.23l-1.857-.96c-.15-.077-.131-.213.041-.3L289,433.835a.714.714,0,0,1,.581-.021l1.857.961c.15.077.131.212-.041.3l-2.191,1.134a.718.718,0,0,1-.581.022" transform="translate(-242.888 -368.979)" fill="#2490c9"/>
                    <path id="Trazado_187428" data-name="Trazado 187428" d="M292.175,435.009l-1.857-.96c-.15-.077-.131-.213.041-.3l1.84-.951a.71.71,0,0,1,.581-.023l1.857.961c.15.077.131.212-.041.3l-1.839.952a.718.718,0,0,1-.581.022" transform="translate(-242.477 -368.979)" fill="#2490c9"/>
                    <path id="Trazado_187429" data-name="Trazado 187429" d="M294.744,436.488l-1.857-.961c-.15-.076-.131-.212.041-.3l1.839-.952a.718.718,0,0,1,.581-.022l1.857.961c.15.076.131.212-.041.3l-1.84.952a.718.718,0,0,1-.581.022" transform="translate(-242.18 -368.979)" fill="#2490c9"/>
                    <path id="Trazado_187430" data-name="Trazado 187430" d="M297.313,437.975l-1.857-.961c-.15-.076-.131-.212.041-.3l1.839-.952a.718.718,0,0,1,.581-.022l1.857.961c.15.076.131.212-.041.3l-1.84.952a.718.718,0,0,1-.581.022" transform="translate(-241.882 -368.979)" fill="#2490c9"/>
                    <path id="Trazado_187431" data-name="Trazado 187431" d="M299.883,439.455l-1.857-.961c-.15-.077-.131-.212.041-.3l1.839-.952a.718.718,0,0,1,.581-.022l1.857.96c.15.077.131.213-.041.3l-1.84.952a.71.71,0,0,1-.581.022" transform="translate(-241.584 -368.979)" fill="#2490c9"/>
                    <path id="Trazado_187432" data-name="Trazado 187432" d="M302.452,440.943l-1.857-.961c-.15-.077-.131-.212.041-.3l1.84-.952a.706.706,0,0,1,.581-.021l1.857.96c.15.077.131.212-.041.3l-1.84.952a.718.718,0,0,1-.581.022" transform="translate(-241.287 -368.979)" fill="#2490c9"/>
                    <path id="Trazado_187433" data-name="Trazado 187433" d="M305.024,442.423l-1.857-.961c-.15-.077-.131-.213.041-.3l1.839-.951a.71.71,0,0,1,.581-.022l1.857.96c.15.077.131.212-.041.3l-1.839.952a.718.718,0,0,1-.581.022" transform="translate(-240.989 -368.979)" fill="#2490c9"/>
                    <path id="Trazado_187434" data-name="Trazado 187434" d="M307.591,443.908l-1.857-.961c-.15-.077-.131-.212.041-.3l1.839-.952a.718.718,0,0,1,.581-.022l1.857.96c.15.077.131.213-.041.3l-1.84.951a.714.714,0,0,1-.581.023" transform="translate(-240.692 -368.979)" fill="#2490c9"/>
                    <path id="Trazado_187435" data-name="Trazado 187435" d="M310.16,445.389l-1.857-.961c-.15-.076-.131-.212.041-.3l1.84-.952a.714.714,0,0,1,.581-.022l1.857.961c.15.076.131.212-.041.3l-1.839.952a.718.718,0,0,1-.581.022" transform="translate(-240.394 -368.979)" fill="#2490c9"/>
                    <path id="Trazado_187436" data-name="Trazado 187436" d="M312.729,446.876l-1.857-.961c-.15-.077-.131-.212.041-.3l1.84-.952a.706.706,0,0,1,.581-.022l1.857.96c.15.077.131.212-.041.3l-1.84.952a.718.718,0,0,1-.581.022" transform="translate(-240.097 -368.979)" fill="#2490c9"/>
                    <path id="Trazado_187437" data-name="Trazado 187437" d="M315.3,448.355l-1.857-.96c-.15-.077-.131-.213.041-.3l1.839-.951a.714.714,0,0,1,.581-.023l1.857.961c.15.077.131.212-.041.3l-1.84.952a.718.718,0,0,1-.581.022" transform="translate(-239.799 -368.979)" fill="#2490c9"/>
                    <path id="Trazado_187438" data-name="Trazado 187438" d="M295.96,434.3l-1.857-.961c-.149-.077-.131-.212.041-.3l1.839-.952a.71.71,0,0,1,.581-.022l1.857.96c.149.077.131.212-.041.3l-1.839.952a.718.718,0,0,1-.581.022" transform="translate(-242.039 -368.979)" fill="#fec2b5"/>
                    <path id="Trazado_187439" data-name="Trazado 187439" d="M293.353,432.8l-1.857-.961c-.15-.077-.131-.213.041-.3l1.84-.951a.706.706,0,0,1,.581-.022l1.857.96c.15.077.131.212-.041.3l-1.839.952a.718.718,0,0,1-.581.022" transform="translate(-242.341 -368.979)" fill="#fec2b5"/>
                    <path id="Trazado_187440" data-name="Trazado 187440" d="M290.964,431.289l-4-2.069c-.15-.076-.131-.212.041-.3l1.839-.952a.718.718,0,0,1,.581-.022l4,2.069c.151.077.131.213-.041.3l-1.839.952a.71.71,0,0,1-.581.022" transform="translate(-242.865 -368.979)" fill="#2490c9"/>
                    <path id="Trazado_187441" data-name="Trazado 187441" d="M292.711,429.456l-3.245-1.679c-.148-.076-.131-.212.042-.3l1.839-.952a.714.714,0,0,1,.581-.022l3.245,1.679c.149.077.13.213-.041.3l-1.84.952a.71.71,0,0,1-.581.022" transform="translate(-242.576 -368.979)" fill="#2490c9"/>
                    <path id="Trazado_187442" data-name="Trazado 187442" d="M298.53,435.786l-1.857-.96c-.15-.077-.131-.213.041-.3l1.839-.951a.714.714,0,0,1,.581-.023l1.857.961c.15.077.131.212-.041.3l-1.84.952a.718.718,0,0,1-.581.022" transform="translate(-241.741 -368.979)" fill="#fec2b5"/>
                    <path id="Trazado_187443" data-name="Trazado 187443" d="M301.1,437.27l-1.857-.961c-.15-.077-.131-.213.041-.3l1.84-.951a.706.706,0,0,1,.581-.022l1.857.96c.15.077.131.212-.041.3l-1.839.952a.715.715,0,0,1-.58.022" transform="translate(-241.444 -368.979)" fill="#2490c9"/>
                    <path id="Trazado_187444" data-name="Trazado 187444" d="M303.668,438.754l-1.857-.961c-.15-.077-.131-.212.041-.3l1.839-.952a.706.706,0,0,1,.581-.021l1.857.96c.15.077.131.212-.041.3l-1.84.952a.718.718,0,0,1-.581.022" transform="translate(-241.146 -368.979)" fill="#2490c9"/>
                    <path id="Trazado_187445" data-name="Trazado 187445" d="M306.238,440.236l-1.857-.961c-.15-.076-.131-.212.041-.3l1.84-.952a.714.714,0,0,1,.581-.022l1.857.961c.15.076.131.212-.041.3l-1.84.952a.718.718,0,0,1-.581.022" transform="translate(-240.848 -368.979)" fill="#2490c9"/>
                    <path id="Trazado_187446" data-name="Trazado 187446" d="M308.807,441.721l-1.857-.961c-.15-.077-.131-.212.041-.3l1.839-.952a.706.706,0,0,1,.581-.021l1.857.96c.15.077.131.212-.041.3l-1.839.952a.718.718,0,0,1-.581.022" transform="translate(-240.551 -368.979)" fill="#2490c9"/>
                    <path id="Trazado_187447" data-name="Trazado 187447" d="M311.376,443.2l-1.857-.961c-.15-.077-.131-.212.041-.3l1.839-.952a.718.718,0,0,1,.581-.022l1.857.96c.15.077.131.213-.041.3l-1.84.951a.714.714,0,0,1-.581.023" transform="translate(-240.253 -368.979)" fill="#2490c9"/>
                    <path id="Trazado_187448" data-name="Trazado 187448" d="M313.946,444.686l-1.857-.961c-.15-.077-.131-.212.041-.3l1.839-.952a.718.718,0,0,1,.581-.022l1.857.96c.15.077.131.213-.041.3l-1.839.951a.714.714,0,0,1-.581.023" transform="translate(-239.956 -368.979)" fill="#2490c9"/>
                    <path id="Trazado_187449" data-name="Trazado 187449" d="M316.515,446.171l-1.857-.961c-.15-.077-.131-.213.041-.3l1.839-.952a.71.71,0,0,1,.581-.022l1.857.96c.15.077.131.212-.041.3l-1.84.952a.718.718,0,0,1-.581.022" transform="translate(-239.658 -368.979)" fill="#2490c9"/>
                    <path id="Trazado_187450" data-name="Trazado 187450" d="M319.084,447.654l-1.857-.961c-.15-.077-.131-.213.041-.3l1.839-.952a.71.71,0,0,1,.581-.022l1.857.96c.15.077.131.212-.041.3l-1.839.952a.718.718,0,0,1-.581.022" transform="translate(-239.361 -368.979)" fill="#2490c9"/>
                    <path id="Trazado_187451" data-name="Trazado 187451" d="M323.881,450.291l-4.05-2.1c-.15-.077-.131-.212.041-.3l1.84-.952a.714.714,0,0,1,.581-.022l4.05,2.1c.15.077.131.212-.041.3l-1.839.952a.71.71,0,0,1-.581.022" transform="translate(-239.059 -368.979)" fill="#2490c9"/>
                    <path id="Trazado_187452" data-name="Trazado 187452" d="M328.816,447.4l-3.419-1.77c-.148-.077-.131-.212.042-.3l1.839-.952a.71.71,0,0,1,.581-.022l3.418,1.774c.15.077.131.212-.041.3l-1.84.952a.718.718,0,0,1-.581.022" transform="translate(-238.414 -368.979)" fill="#2490c9"/>
                    <path id="Trazado_187453" data-name="Trazado 187453" d="M303.029,435.5l-1.857-.961c-.15-.077-.131-.212.041-.3l1.839-.952a.718.718,0,0,1,.581-.022l1.857.96c.15.077.131.213-.041.3l-1.84.951a.71.71,0,0,1-.581.022" transform="translate(-241.22 -368.979)" fill="#2490c9"/>
                    <path id="Trazado_187454" data-name="Trazado 187454" d="M300.4,433.976l-1.857-.961c-.15-.077-.131-.213.041-.3l1.84-.952a.706.706,0,0,1,.581-.022l1.857.96c.15.077.131.212-.041.3l-1.839.952a.718.718,0,0,1-.581.022" transform="translate(-241.525 -368.979)" fill="#2490c9"/>
                    <path id="Trazado_187455" data-name="Trazado 187455" d="M297.763,432.455l-1.857-.961c-.15-.076-.131-.212.041-.3l1.839-.951a.714.714,0,0,1,.581-.023l1.857.961c.15.077.131.212-.041.3l-1.84.952a.718.718,0,0,1-.581.022" transform="translate(-241.83 -368.979)" fill="#fec2b5"/>
                    <path id="Trazado_187456" data-name="Trazado 187456" d="M295.129,430.935l-1.857-.961c-.15-.077-.131-.212.041-.3l1.84-.952a.714.714,0,0,1,.581-.022l1.857.961c.15.076.131.212-.041.3l-1.839.951a.714.714,0,0,1-.581.023" transform="translate(-242.135 -368.979)" fill="#2490c9"/>
                    <path id="Trazado_187457" data-name="Trazado 187457" d="M305.6,436.98l-1.857-.961c-.15-.077-.131-.212.041-.3l1.839-.952a.706.706,0,0,1,.581-.021l1.857.96c.15.077.131.212-.041.3l-1.84.952a.718.718,0,0,1-.581.022" transform="translate(-240.922 -368.979)" fill="#2490c9"/>
                    <path id="Trazado_187458" data-name="Trazado 187458" d="M308.167,438.463l-1.857-.961c-.15-.077-.131-.212.041-.3l1.84-.952a.706.706,0,0,1,.581-.022l1.857.96c.15.077.131.212-.041.3l-1.839.952a.718.718,0,0,1-.581.022" transform="translate(-240.625 -368.979)" fill="#2490c9"/>
                    <path id="Trazado_187459" data-name="Trazado 187459" d="M310.737,439.947l-1.857-.961c-.15-.077-.131-.213.041-.3l1.839-.952a.71.71,0,0,1,.581-.022l1.857.96c.15.077.131.212-.041.3l-1.84.952a.718.718,0,0,1-.581.022" transform="translate(-240.327 -368.979)" fill="#2490c9"/>
                    <path id="Trazado_187460" data-name="Trazado 187460" d="M313.306,441.429l-1.857-.961c-.15-.077-.131-.212.041-.3l1.84-.952a.714.714,0,0,1,.581-.022l1.857.96c.15.077.131.213-.041.3l-1.84.952a.71.71,0,0,1-.581.022" transform="translate(-240.03 -368.979)" fill="#2490c9"/>
                    <path id="Trazado_187461" data-name="Trazado 187461" d="M315.876,442.913l-1.857-.96c-.15-.077-.131-.213.041-.3l1.839-.951a.714.714,0,0,1,.581-.023l1.857.961c.15.077.131.212-.041.3l-1.84.952a.718.718,0,0,1-.581.022" transform="translate(-239.732 -368.979)" fill="#2490c9"/>
                    <path id="Trazado_187462" data-name="Trazado 187462" d="M318.445,444.4l-1.857-.961c-.15-.077-.131-.213.041-.3l1.839-.951a.714.714,0,0,1,.581-.023l1.857.961c.15.077.131.212-.041.3l-1.84.952a.718.718,0,0,1-.581.022" transform="translate(-239.435 -368.979)" fill="#2490c9"/>
                    <path id="Trazado_187463" data-name="Trazado 187463" d="M321.014,445.88l-1.857-.961c-.15-.077-.131-.213.041-.3l1.839-.952a.71.71,0,0,1,.581-.022l1.857.96c.15.077.131.212-.041.3l-1.84.952a.718.718,0,0,1-.581.022" transform="translate(-239.137 -368.979)" fill="#2490c9"/>
                    <path id="Trazado_187464" data-name="Trazado 187464" d="M323.584,447.363l-1.857-.961c-.15-.076-.131-.212.041-.3l1.839-.952a.718.718,0,0,1,.581-.022l1.857.961c.15.076.131.212-.041.3l-1.84.952a.718.718,0,0,1-.581.022" transform="translate(-238.84 -368.979)" fill="#2490c9"/>
                    <path id="Trazado_187465" data-name="Trazado 187465" d="M326.153,448.846l-1.857-.961c-.15-.076-.131-.212.041-.3l1.839-.952a.71.71,0,0,1,.581-.02l1.857.96c.15.077.131.212-.041.3l-1.839.952a.718.718,0,0,1-.581.022" transform="translate(-238.542 -368.979)" fill="#2490c9"/>
                    <path id="Trazado_187466" data-name="Trazado 187466" d="M301.676,431.828l-1.854-.962c-.15-.077-.131-.213.041-.3l1.839-.951a.714.714,0,0,1,.581-.023l1.857.961c.15.077.131.212-.041.3l-1.84.952a.718.718,0,0,1-.581.022" transform="translate(-241.377 -368.979)" fill="#2490c9"/>
                    <path id="Trazado_187467" data-name="Trazado 187467" d="M299.12,430.351l-1.857-.961c-.15-.076-.131-.212.041-.3l1.839-.952a.71.71,0,0,1,.581-.02l1.857.96c.15.077.131.212-.041.3l-1.84.952a.718.718,0,0,1-.581.022" transform="translate(-241.673 -368.979)" fill="#2490c9"/>
                    <path id="Trazado_187468" data-name="Trazado 187468" d="M296.563,428.876l-1.857-.961c-.15-.077-.131-.212.041-.3l1.839-.952a.706.706,0,0,1,.581-.021l1.857.96c.15.077.131.212-.041.3l-1.84.952a.718.718,0,0,1-.581.022" transform="translate(-241.969 -368.979)" fill="#2490c9"/>
                    <path id="Trazado_187469" data-name="Trazado 187469" d="M294.007,427.4l-1.857-.961c-.15-.077-.131-.212.041-.3l1.839-.952a.718.718,0,0,1,.581-.022l1.857.96c.15.077.131.213-.041.3l-1.84.951a.71.71,0,0,1-.581.022" transform="translate(-242.265 -368.979)" fill="#2490c9"/>
                    <path id="Trazado_187470" data-name="Trazado 187470" d="M296.635,425.881l-1.857-.961c-.15-.077-.131-.212.041-.3l.608-.315a.718.718,0,0,1,.581-.022l1.857.961c.148.077.131.212-.042.3l-.608.315a.71.71,0,0,1-.581.022" transform="translate(-241.961 -368.979)" fill="#2490c9"/>
                    <path id="Trazado_187471" data-name="Trazado 187471" d="M299.972,427.807l-1.857-.961c-.15-.076-.131-.212.041-.3l.608-.315a.718.718,0,0,1,.581-.022l1.857.961c.148.077.131.212-.042.3l-.608.315a.71.71,0,0,1-.581.022" transform="translate(-241.574 -368.979)" fill="#2490c9"/>
                    <path id="Trazado_187472" data-name="Trazado 187472" d="M302.518,429.277l-1.857-.961c-.15-.076-.131-.212.041-.3l.608-.315a.718.718,0,0,1,.581-.022l1.857.961c.148.077.131.212-.042.3l-.608.315a.71.71,0,0,1-.581.022" transform="translate(-241.279 -368.979)" fill="#2490c9"/>
                    <path id="Trazado_187473" data-name="Trazado 187473" d="M305.064,430.75l-1.857-.961c-.15-.076-.131-.212.041-.3l.608-.315a.718.718,0,0,1,.581-.022l1.857.961c.148.077.131.212-.042.3l-.608.315a.71.71,0,0,1-.581.022" transform="translate(-240.984 -368.979)" fill="#2490c9"/>
                    <path id="Trazado_187474" data-name="Trazado 187474" d="M307.609,432.217l-1.857-.96c-.15-.077-.131-.213.041-.3l.608-.315a.718.718,0,0,1,.581-.022l1.857.961c.148.077.131.212-.042.3l-.608.315a.71.71,0,0,1-.581.022" transform="translate(-240.69 -368.979)" fill="#2490c9"/>
                    <path id="Trazado_187475" data-name="Trazado 187475" d="M321.823,440.424l-1.857-.961c-.15-.077-.131-.212.041-.3l.608-.315a.71.71,0,0,1,.581-.022l1.857.96c.148.077.131.213-.042.3l-.608.315a.718.718,0,0,1-.581.022" transform="translate(-239.043 -368.979)" fill="#2490c9"/>
                    <path id="Trazado_187476" data-name="Trazado 187476" d="M324.369,441.893l-1.857-.961c-.15-.077-.131-.212.041-.3l.608-.315a.718.718,0,0,1,.581-.022l1.857.961c.148.077.131.212-.042.3l-.608.315a.71.71,0,0,1-.581.022" transform="translate(-238.749 -368.979)" fill="#2490c9"/>
                    <path id="Trazado_187477" data-name="Trazado 187477" d="M326.914,443.363l-1.857-.961c-.15-.076-.131-.212.041-.3l.608-.315a.718.718,0,0,1,.581-.022l1.857.961c.148.077.131.212-.042.3l-.608.315a.708.708,0,0,1-.58.022" transform="translate(-238.454 -368.979)" fill="#2490c9"/>
                    <path id="Trazado_187478" data-name="Trazado 187478" d="M329.46,444.833l-1.857-.961c-.149-.077-.131-.212.041-.3l.608-.315a.714.714,0,0,1,.581-.023l1.857.961c.148.077.131.213-.042.3l-.608.316a.718.718,0,0,1-.581.022" transform="translate(-238.159 -368.979)" fill="#2490c9"/>
                    <path id="Trazado_187479" data-name="Trazado 187479" d="M304.246,433.311l-1.857-.961c-.15-.077-.131-.213.041-.3l1.839-.952a.71.71,0,0,1,.581-.022l1.857.96c.15.077.131.212-.041.3l-1.84.952a.718.718,0,0,1-.581.022" transform="translate(-241.079 -368.979)" fill="#2490c9"/>
                    <path id="Trazado_187480" data-name="Trazado 187480" d="M306.815,434.793l-1.857-.961c-.15-.076-.131-.212.041-.3l1.839-.952a.71.71,0,0,1,.581-.02l1.857.96c.15.077.131.212-.041.3l-1.84.952a.718.718,0,0,1-.581.022" transform="translate(-240.782 -368.979)" fill="#2490c9"/>
                    <path id="Trazado_187481" data-name="Trazado 187481" d="M309.384,436.277l-1.857-.961c-.15-.076-.131-.212.041-.3l1.839-.952a.718.718,0,0,1,.581-.022l1.857.961c.15.076.131.212-.041.3l-1.84.952a.718.718,0,0,1-.581.022" transform="translate(-240.484 -368.979)" fill="#2490c9"/>
                    <path id="Trazado_187482" data-name="Trazado 187482" d="M311.953,437.76l-1.857-.96c-.15-.077-.131-.213.041-.3l1.839-.951a.714.714,0,0,1,.581-.023l1.857.961c.15.077.131.212-.041.3l-1.84.952a.718.718,0,0,1-.581.022" transform="translate(-240.187 -368.979)" fill="#2490c9"/>
                    <path id="Trazado_187483" data-name="Trazado 187483" d="M314.522,439.244l-1.857-.961c-.15-.077-.131-.213.041-.3l1.839-.951a.714.714,0,0,1,.581-.023l1.857.961c.15.077.131.212-.041.3l-1.84.952a.718.718,0,0,1-.581.022" transform="translate(-239.889 -368.979)" fill="#2490c9"/>
                    <path id="Trazado_187484" data-name="Trazado 187484" d="M317.092,440.728l-1.857-.961c-.15-.077-.131-.212.041-.3l1.84-.952a.706.706,0,0,1,.581-.022l1.857.96c.15.077.131.212-.041.3l-1.839.952a.718.718,0,0,1-.581.022" transform="translate(-239.591 -368.979)" fill="#2490c9"/>
                    <path id="Trazado_187485" data-name="Trazado 187485" d="M319.661,442.21l-1.857-.961c-.15-.076-.131-.212.041-.3l1.84-.952a.714.714,0,0,1,.581-.022l1.857.961c.15.076.131.212-.041.3l-1.839.952a.718.718,0,0,1-.581.022" transform="translate(-239.294 -368.979)" fill="#2490c9"/>
                    <path id="Trazado_187486" data-name="Trazado 187486" d="M322.231,443.694l-1.857-.961c-.15-.077-.131-.212.041-.3l1.84-.952a.714.714,0,0,1,.581-.022l1.857.96c.15.077.131.213-.041.3l-1.84.952a.71.71,0,0,1-.581.022" transform="translate(-238.996 -368.979)" fill="#2490c9"/>
                    <path id="Trazado_187487" data-name="Trazado 187487" d="M324.8,445.177l-1.857-.961c-.15-.077-.131-.212.041-.3l1.839-.952a.718.718,0,0,1,.581-.022l1.857.96c.15.077.131.213-.041.3l-1.84.951a.71.71,0,0,1-.581.022" transform="translate(-238.699 -368.979)" fill="#2490c9"/>
                    <path id="Trazado_187488" data-name="Trazado 187488" d="M289.931,433.495l-5.467-2.829c-.15-.077-.131-.212.041-.3l1.839-.952a.71.71,0,0,1,.581-.022l5.467,2.829c.149.077.131.212-.041.3l-1.84.952a.718.718,0,0,1-.581.022" transform="translate(-243.155 -368.979)" fill="#2490c9"/>
                    <path id="Trazado_187489" data-name="Trazado 187489" d="M321.5,451.717l-5.467-2.828c-.15-.077-.131-.213.041-.3l1.839-.952a.71.71,0,0,1,.581-.022l5.467,2.828c.15.077.131.213-.041.3l-1.839.951a.71.71,0,0,1-.581.022" transform="translate(-239.5 -368.979)" fill="#2490c9"/>
                    <path id="Trazado_187490" data-name="Trazado 187490" d="M310.846,449.061l-1.857-.961c-.15-.077-.131-.213.041-.3l2.191-1.135a.71.71,0,0,1,.581-.02l1.857.96c.15.077.131.212-.041.3l-2.191,1.134a.718.718,0,0,1-.581.022" transform="translate(-240.315 -368.979)" fill="#2490c9"/>
                    <path id="Trazado_187491" data-name="Trazado 187491" d="M292.3,438.289l-2.969-1.536c-.15-.077-.131-.212.041-.3l2.191-1.134a.714.714,0,0,1,.581-.021l2.969,1.536c.15.077.131.212-.041.3l-2.191,1.134a.71.71,0,0,1-.581.022" transform="translate(-242.591 -368.979)" fill="#2490c9"/>
                    <path id="Trazado_187492" data-name="Trazado 187492" d="M308.486,447.632l-2.969-1.536c-.15-.076-.131-.212.041-.3l2.193-1.134a.715.715,0,0,1,.58-.022l2.969,1.536c.15.077.131.212-.041.3l-2.191,1.134a.71.71,0,0,1-.581.022" transform="translate(-240.717 -368.979)" fill="#2490c9"/>
                    <path id="Trazado_187493" data-name="Trazado 187493" d="M296.011,440.43l-2.969-1.535c-.15-.077-.131-.213.041-.3l2.191-1.134a.714.714,0,0,1,.581-.021l2.969,1.536c.15.077.131.213-.041.3l-2.191,1.135a.718.718,0,0,1-.581.022" transform="translate(-242.162 -368.979)" fill="#2490c9"/>
                    <path id="Trazado_187494" data-name="Trazado 187494" d="M295.863,437.451l12.908,6.679a.155.155,0,0,1,.109.2.169.169,0,0,1-.109.1l-2.232,1.156a.707.707,0,0,1-.58,0L293.052,438.9Z" transform="translate(-242.149 -368.979)" fill="#2490c9"/>
                    <path id="Trazado_187495" data-name="Trazado 187495" d="M317.978,451.753l2.068,1.07c.123.063.112.174-.035.247l-.893.464a.59.59,0,0,1-.477.018l-2.068-1.07c-.123-.063-.112-.174.035-.246l.893-.464a.586.586,0,0,1,.476-.019" transform="translate(-239.434 -368.979)" fill="#2490c9"/>
                    <path id="Trazado_187496" data-name="Trazado 187496" d="M315.388,450.257l2.068,1.07c.122.063.112.174-.035.247l-.893.464a.59.59,0,0,1-.476.018l-2.068-1.07c-.122-.063-.112-.174.035-.246l.893-.465a.586.586,0,0,1,.476-.018" transform="translate(-239.734 -368.979)" fill="#2490c9"/>
                    <path id="Trazado_187497" data-name="Trazado 187497" d="M312.818,448.773l2.068,1.07c.122.063.112.174-.035.247l-.893.464a.59.59,0,0,1-.476.018l-2.068-1.07c-.123-.063-.112-.174.035-.246l.893-.464a.586.586,0,0,1,.476-.019" transform="translate(-240.032 -368.979)" fill="#2490c9"/>
                    <path id="Trazado_187498" data-name="Trazado 187498" d="M316.806,449.438l2.068,1.07c.122.063.112.174-.035.247l-.893.464a.59.59,0,0,1-.476.018l-2.068-1.07c-.123-.063-.112-.174.035-.246l.893-.465a.586.586,0,0,1,.476-.018" transform="translate(-239.57 -368.979)" fill="#2490c9"/>
                    <path id="Trazado_187499" data-name="Trazado 187499" d="M319.626,412.911l-1.775-.919a.646.646,0,0,1-.3-.513c0-.2.127-.29.291-.2l1.775.919a.638.638,0,0,1,.3.513c0,.2-.127.289-.291.2" transform="translate(-239.312 -368.979)" fill="#dadeec"/>
                    <path id="Trazado_187500" data-name="Trazado 187500" d="M323.5,415.1l-2.618-1.355a.646.646,0,0,1-.3-.513c0-.2.127-.29.291-.2l2.618,1.355a.638.638,0,0,1,.3.513c0,.2-.127.29-.292.2" transform="translate(-238.96 -368.979)" fill="#dadeec"/>
                    <path id="Trazado_187501" data-name="Trazado 187501" d="M318.838,421.391l-1.775-.919a.643.643,0,0,1-.3-.513c0-.2.127-.29.291-.2l1.775.919a.641.641,0,0,1,.3.513c0,.2-.127.29-.292.2" transform="translate(-239.403 -368.979)" fill="#dadeec"/>
                    <path id="Trazado_187502" data-name="Trazado 187502" d="M322.3,423.347l-2.618-1.355a.642.642,0,0,1-.3-.513c0-.2.126-.29.291-.2l2.617,1.355a.638.638,0,0,1,.3.513c0,.2-.127.29-.291.2" transform="translate(-239.099 -368.979)" fill="#dadeec"/>
                    <path id="Trazado_187503" data-name="Trazado 187503" d="M315.194,411.882l-1.109-.574a.646.646,0,0,1-.3-.513c0-.2.127-.29.291-.2l1.109.574a.638.638,0,0,1,.3.513c0,.2-.127.29-.292.2" transform="translate(-239.748 -368.979)" fill="#dadeec"/>
                    <path id="Trazado_187504" data-name="Trazado 187504" d="M318.824,415.332l-3.389-1.754a.646.646,0,0,1-.3-.513c0-.2.127-.29.292-.2l3.389,1.753a.638.638,0,0,1,.3.513c0,.2-.127.29-.291.2" transform="translate(-239.592 -368.979)" fill="#dadeec"/>
                    <path id="Trazado_187505" data-name="Trazado 187505" d="M316.594,417.16l-1.109-.574a.643.643,0,0,1-.3-.513c0-.2.127-.29.291-.2l1.109.574a.641.641,0,0,1,.3.513c0,.2-.127.29-.291.2" transform="translate(-239.586 -368.979)" fill="#dadeec"/>
                    <path id="Trazado_187506" data-name="Trazado 187506" d="M323.513,427l-2.962-1.534a.643.643,0,0,1-.3-.513c0-.2.127-.289.292-.2l2.959,1.529a.638.638,0,0,1,.3.513c0,.2-.127.29-.291.2" transform="translate(-238.999 -368.979)" fill="#dadeec"/>
                    <path id="Trazado_187507" data-name="Trazado 187507" d="M316.246,419.962l-.712-.368a.643.643,0,0,1-.3-.513c0-.2.127-.289.292-.2l.712.367a.641.641,0,0,1,.3.513c0,.2-.127.29-.291.2" transform="translate(-239.58 -368.979)" fill="#dadeec"/>
                    <path id="Trazado_187508" data-name="Trazado 187508" d="M316.466,423.061l-.884-.457a.646.646,0,0,1-.3-.513c0-.2.127-.29.291-.2l.884.457a.638.638,0,0,1,.3.513c0,.2-.127.289-.292.2" transform="translate(-239.575 -368.979)" fill="#dadeec"/>
                    <path id="Trazado_187509" data-name="Trazado 187509" d="M319.7,424.84l-2.331-1.206a.646.646,0,0,1-.3-.513c0-.2.127-.29.292-.2l2.331,1.206a.638.638,0,0,1,.3.513c0,.2-.127.289-.291.2" transform="translate(-239.368 -368.979)" fill="#dadeec"/>
                    <path id="Trazado_187510" data-name="Trazado 187510" d="M317.282,424.974l-1.674-.868a.643.643,0,0,1-.3-.513c0-.2.127-.289.292-.2l1.674.867a.638.638,0,0,1,.3.513c0,.2-.127.29-.291.2" transform="translate(-239.572 -368.979)" fill="#dadeec"/>
                    <path id="Trazado_187511" data-name="Trazado 187511" d="M325.6,428.327l-1.077-.558a.644.644,0,0,1-.3-.513c0-.2.127-.29.291-.2l1.077.558a.638.638,0,0,1,.3.513c0,.2-.127.289-.292.2" transform="translate(-238.54 -368.979)" fill="#dadeec"/>
                    <path id="Trazado_187512" data-name="Trazado 187512" d="M320.484,419.3l-2.962-1.534a.643.643,0,0,1-.3-.513c0-.2.127-.289.291-.2l2.962,1.533a.638.638,0,0,1,.3.513c0,.2-.127.289-.291.2" transform="translate(-239.35 -368.979)" fill="#dadeec"/>
                    <path id="Trazado_187513" data-name="Trazado 187513" d="M320.624,417.754l-5.163-2.672a.646.646,0,0,1-.3-.513c0-.2.127-.29.291-.2l5.163,2.671a.638.638,0,0,1,.3.513c0,.2-.127.29-.292.2" transform="translate(-239.589 -368.979)" fill="#dadeec"/>
                    <path id="Trazado_187514" data-name="Trazado 187514" d="M318.472,419.622l-2.962-1.533a.643.643,0,0,1-.3-.513c0-.2.127-.29.292-.2l2.961,1.534a.638.638,0,0,1,.3.513c0,.2-.127.289-.291.2" transform="translate(-239.583 -368.979)" fill="#dadeec"/>
                    <path id="Trazado_187515" data-name="Trazado 187515" d="M322.3,420.458l-1.077-.558a.639.639,0,0,1-.3-.513c0-.2.127-.289.291-.2l1.077.557a.64.64,0,0,1,.3.513c0,.2-.127.29-.291.2" transform="translate(-238.921 -368.979)" fill="#dadeec"/>
                    <path id="Trazado_187516" data-name="Trazado 187516" d="M331.05,419.23l-6.374-3.3a.643.643,0,0,1-.3-.513c0-.2.127-.289.291-.2l6.374,3.3a.638.638,0,0,1,.3.513c0,.2-.127.289-.291.2" transform="translate(-238.522 -368.979)" fill="#dadeec"/>
                    <path id="Trazado_187517" data-name="Trazado 187517" d="M319.119,422.94l-3.562-1.843a.643.643,0,0,1-.3-.513c0-.2.127-.29.292-.2l3.561,1.843a.641.641,0,0,1,.3.513c0,.2-.127.29-.291.2" transform="translate(-239.578 -368.979)" fill="#dadeec"/>
                    <path id="Trazado_187518" data-name="Trazado 187518" d="M316.678,411.158l-2.618-1.356a.643.643,0,0,1-.3-.513c0-.2.127-.29.291-.2l2.618,1.355a.638.638,0,0,1,.3.513c0,.2-.127.29-.292.2" transform="translate(-239.751 -368.979)" fill="#dadeec"/>
                    <path id="Trazado_187519" data-name="Trazado 187519" d="M317.336,426.414l-3.032-1.569a.646.646,0,0,1-.3-.513c0-.2.127-.29.292-.2l3.032,1.569a.638.638,0,0,1,.3.513c0,.2-.127.29-.291.2" transform="translate(-239.723 -368.979)" fill="#dadeec"/>
                    <path id="Trazado_187520" data-name="Trazado 187520" d="M247.517,428.776l15.621-8.149c3.094-1.6,6.012-1.855,8.217-.715s3.418,3.532,3.418,6.734v1.024c-.112.067-.223.133-.345.2v-1.223c0-3.087-1.153-5.383-3.245-6.466s-4.888-.829-7.872.714l-15.621,8.15a.182.182,0,0,1-.234-.056.146.146,0,0,1,.062-.211" transform="translate(-247.432 -368.979)" fill="#dadeec"/>
                    <path id="Trazado_187521" data-name="Trazado 187521" d="M291.963,419.068V387.525c0-6.314,4.964-14.019,11.065-17.177,2.988-1.546,5.8-1.791,7.936-.69s3.3,3.412,3.3,6.5v2.2l-.345.309v-2.505c0-2.978-1.116-5.192-3.124-6.236s-4.714-.8-7.588.689c-6.006,3.107-10.894,10.692-10.894,16.909v31.543c0,5.232-3.436,11.426-8.1,15.155v-.414c4.475-3.686,7.752-9.671,7.752-14.741" transform="translate(-243.172 -368.979)" fill="#dadeec"/>
                    <path id="Trazado_187522" data-name="Trazado 187522" d="M311.183,379.328h0a14.532,14.532,0,0,1,7.051-3.093c4.358-.6,6.159,3.97,6.159,3.97a22.727,22.727,0,0,1,.488,3.776c-.019,1.4-.132,6.5-.132,6.5l-13.814-7.133h0a.153.153,0,0,1-.1-.136v-3.62c.113-.1.23-.164.345-.267" transform="translate(-240.089 -368.979)" fill="#2490c9"/>
                    <path id="Trazado_187523" data-name="Trazado 187523" d="M324.064,376.425l-13.1-6.766.051.169c-2.018-1.168-5.068-1.294-9.15,1.387a21.709,21.709,0,0,0-9.491,14.13c-.413,1.389-.243,10.193-.243,10.193s-.027,21.231-.054,23.7a18.712,18.712,0,0,1-2.378,8.231,31.291,31.291,0,0,1-5.524,6.62v4.321c.635,4.672,2.85,5.762,6.147,6.028,2.66.215,5.492-1.5,7.758-3.382l-.137.128v4.321c.635,4.672,2.85,5.762,6.144,6.028s6.86-2.439,9.275-4.729a24.211,24.211,0,0,0,5.579-8.941,19.791,19.791,0,0,0,.757-7.231s.027-23.209.054-27.784.19-3.777,1.863-8.377a19.2,19.2,0,0,1,6.115-7.82l10.653-2.843Z" transform="translate(-243.177 -368.979)" fill="#dadeec"/>
                    <path id="Trazado_187524" data-name="Trazado 187524" d="M302.721,451.147a7.934,7.934,0,0,1-3.108-4.09,17.437,17.437,0,0,1-.3-3.463s.01-1.16.041-2.216l.079-.06V440.9l-.065.05c.009-.238.019-.462.03-.651a12.193,12.193,0,0,0-.837-3.438,5.825,5.825,0,0,0-5.1-3.256c-3.394-.107-6.966,2.08-7.726,2.573v-1.416c-.05.03-.1.06-.157.09,0-.19.01-.384.015-.574.027-.02.052-.039.078-.06v-.414l-.064.051c.009-.238.018-.462.031-.652a12.287,12.287,0,0,0-.838-3.438,5.83,5.83,0,0,0-5.1-3.256c-3.393-.107-6.967,2.081-7.726,2.573v-1.415c-.112.067-.223.132-.345.2v2.478c0,3,1.116,5.259,3.143,6.38l.008.008.07.036.056.032.038.017,14.016,7.232-.018-.017Z" transform="translate(-244.63 -368.979)" fill="#2490c9"/>
                    <path id="Trazado_187525" data-name="Trazado 187525" d="M285.111,427.008s-.1-.049-.29-.116c-.057-.024-.112-.053-.17-.077l-13.307-6.9a7.91,7.91,0,0,0-5.4-.183c-2.957.97-18.452,9.3-18.452,9.3l13.843,7.147h0a.124.124,0,0,0,.037.009l13.725,7.088s7.766-4.312,13.139-7.093l.345-.178a36.2,36.2,0,0,1,4.489-2.107,9.4,9.4,0,0,1,6.217.467Z" transform="translate(-247.425 -368.979)" fill="#dadeec"/>
                    <path id="Trazado_187526" data-name="Trazado 187526" d="M293.912,434.363l.161.082s-.058-.033-.161-.082" transform="translate(-242.049 -368.979)" fill="#dadeec"/>
                    <path id="Trazado_187527" data-name="Trazado 187527" d="M323.521,386.424h0a14.513,14.513,0,0,1,7.051-3.093c4.359-.6,6.16,3.97,6.16,3.97a22.821,22.821,0,0,1,.486,3.776c-.018,1.4-.131,6.5-.131,6.5l-13.817-7.13h0a.154.154,0,0,1-.095-.136v-3.62c.112-.1.23-.164.345-.266" transform="translate(-238.66 -368.979)" fill="#2490c9"/>
                    <path id="Trazado_187528" data-name="Trazado 187528" d="M305.353,451.708a10.912,10.912,0,0,0,4.954-1.359c6.057-3.134,10.985-10.784,10.985-17.052V401.755c0-6.215,4.886-13.8,10.894-16.909,2.878-1.488,5.572-1.734,7.588-.689s3.124,3.259,3.124,6.237v7.052a.174.174,0,0,0,.345,0v-7.054c0-3.092-1.172-5.4-3.3-6.5s-4.947-.856-7.936.689c-6.1,3.157-11.066,10.862-11.066,17.177V433.3c0,6.169-4.85,13.7-10.813,16.785-2.855,1.477-5.531,1.721-7.535.684s-3.105-3.234-3.105-6.189v-3.7c0-3.2-1.214-5.593-3.419-6.734s-5.122-.887-8.216.713l-15.621,8.151a.145.145,0,0,0-.062.21.182.182,0,0,0,.234.056l15.621-8.15c2.983-1.543,5.779-1.8,7.872-.713s3.246,3.378,3.246,6.466v3.7c0,3.07,1.164,5.362,3.278,6.457a6.323,6.323,0,0,0,2.925.674" transform="translate(-244.57 -368.979)" fill="#0035d3"/>
                    <path id="Trazado_187529" data-name="Trazado 187529" d="M303.153,409.487l-2.309-1.2a.839.839,0,0,1-.4-.667c0-.258.165-.377.379-.266l2.309,1.195a.83.83,0,0,1,.4.668c0,.258-.165.377-.379.266" transform="translate(-241.292 -368.979)" fill="#fcfacb"/>
                    <path id="Trazado_187530" data-name="Trazado 187530" d="M307.66,412.022l-3.4-1.762a.835.835,0,0,1-.4-.667c0-.258.165-.377.379-.265l3.4,1.761a.83.83,0,0,1,.4.668c0,.258-.165.376-.379.265" transform="translate(-240.897 -368.979)" fill="#fcfacb"/>
                    <path id="Trazado_187531" data-name="Trazado 187531" d="M303.136,401.6l-4.406-2.279a.841.841,0,0,1-.4-.668c0-.259.165-.377.379-.266l4.406,2.28a.832.832,0,0,1,.4.668c0,.258-.165.376-.379.265" transform="translate(-241.537 -368.979)" fill="#fcfacb"/>
                    <path id="Trazado_187532" data-name="Trazado 187532" d="M300.235,403.978l-1.438-.748a.834.834,0,0,1-.4-.666c0-.259.165-.377.379-.266l1.443.746a.832.832,0,0,1,.4.668c0,.258-.165.377-.379.266" transform="translate(-241.529 -368.979)" fill="#fcfacb"/>
                    <path id="Trazado_187533" data-name="Trazado 187533" d="M299.782,407.622l-.926-.478a.839.839,0,0,1-.4-.667c0-.259.165-.377.379-.266l.926.478a.832.832,0,0,1,.4.668c0,.259-.165.377-.379.266" transform="translate(-241.523 -368.979)" fill="#fcfacb"/>
                    <path id="Trazado_187534" data-name="Trazado 187534" d="M305.294,406.755l-3.852-1.993a.839.839,0,0,1-.4-.667c0-.258.165-.377.379-.266l3.853,1.993a.829.829,0,0,1,.4.668c0,.258-.165.377-.379.266" transform="translate(-241.223 -368.979)" fill="#fcfacb"/>
                    <path id="Trazado_187535" data-name="Trazado 187535" d="M305.475,404.749l-6.714-3.474a.836.836,0,0,1-.4-.667c0-.258.165-.377.379-.266l6.714,3.474a.832.832,0,0,1,.4.668c0,.259-.165.377-.379.266" transform="translate(-241.534 -368.979)" fill="#fcfacb"/>
                    <path id="Trazado_187536" data-name="Trazado 187536" d="M302.677,407.182l-3.852-1.993a.839.839,0,0,1-.4-.667c0-.259.165-.377.379-.266l3.852,1.992a.832.832,0,0,1,.4.667c0,.259-.165.377-.379.266" transform="translate(-241.526 -368.979)" fill="#fcfacb"/>
                    <path id="Trazado_187537" data-name="Trazado 187537" d="M307.658,408.267l-1.4-.724a.839.839,0,0,1-.4-.667c0-.258.165-.377.379-.266l1.4.724a.832.832,0,0,1,.4.668c0,.258-.165.377-.379.266" transform="translate(-240.665 -368.979)" fill="#fcfacb"/>
                    <path id="Trazado_187538" data-name="Trazado 187538" d="M304.179,398.452l-2.309-1.2a.836.836,0,0,1-.4-.667c0-.258.165-.377.379-.266l2.309,1.2a.835.835,0,0,1,.4.668c0,.259-.165.377-.379.266" transform="translate(-241.173 -368.979)" fill="#fcfacb"/>
                    <path id="Trazado_187539" data-name="Trazado 187539" d="M309.22,401.3l-3.4-1.762a.832.832,0,0,1-.395-.667c0-.258.164-.377.378-.266l3.4,1.761a.835.835,0,0,1,.4.668c0,.259-.165.377-.379.266" transform="translate(-240.716 -368.979)" fill="#fcfacb"/>
                    <path id="Trazado_187540" data-name="Trazado 187540" d="M303.153,409.487l-2.309-1.2a.839.839,0,0,1-.4-.667c0-.258.165-.377.379-.266l2.309,1.195a.83.83,0,0,1,.4.668c0,.258-.165.377-.379.266" transform="translate(-241.292 -368.979)" fill="#fcfacb"/>
                    <path id="Trazado_187541" data-name="Trazado 187541" d="M307.66,412.022l-3.4-1.762a.835.835,0,0,1-.4-.667c0-.258.165-.377.379-.265l3.4,1.761a.83.83,0,0,1,.4.668c0,.258-.165.376-.379.265" transform="translate(-240.897 -368.979)" fill="#fcfacb"/>
                    <path id="Trazado_187542" data-name="Trazado 187542" d="M298.415,397.115l-1.443-.746a.838.838,0,0,1-.4-.667c0-.259.165-.377.379-.266l1.443.746a.832.832,0,0,1,.4.668c0,.258-.165.377-.379.266" transform="translate(-241.741 -368.979)" fill="#fcfacb"/>
                    <path id="Trazado_187543" data-name="Trazado 187543" d="M303.136,401.6l-4.406-2.279a.841.841,0,0,1-.4-.668c0-.259.165-.377.379-.266l4.406,2.28a.832.832,0,0,1,.4.668c0,.258-.165.376-.379.265" transform="translate(-241.537 -368.979)" fill="#fcfacb"/>
                    <path id="Trazado_187544" data-name="Trazado 187544" d="M300.235,403.978l-1.438-.748a.834.834,0,0,1-.4-.666c0-.259.165-.377.379-.266l1.443.746a.832.832,0,0,1,.4.668c0,.258-.165.377-.379.266" transform="translate(-241.529 -368.979)" fill="#fcfacb"/>
                    <path id="Trazado_187545" data-name="Trazado 187545" d="M309.233,416.779l-3.852-1.993a.836.836,0,0,1-.4-.667c0-.258.165-.377.379-.266l3.852,1.993a.832.832,0,0,1,.4.668c0,.258-.165.377-.379.266" transform="translate(-240.767 -368.979)" fill="#fcfacb"/>
                    <path id="Trazado_187546" data-name="Trazado 187546" d="M299.782,407.622l-.926-.478a.839.839,0,0,1-.4-.667c0-.259.165-.377.379-.266l.926.478a.832.832,0,0,1,.4.668c0,.259-.165.377-.379.266" transform="translate(-241.523 -368.979)" fill="#fcfacb"/>
                    <path id="Trazado_187547" data-name="Trazado 187547" d="M300.069,411.65l-1.149-.6a.836.836,0,0,1-.4-.667c0-.258.165-.376.379-.265l1.15.6a.832.832,0,0,1,.4.667c0,.259-.165.377-.379.266" transform="translate(-241.515 -368.979)" fill="#fcfacb"/>
                    <path id="Trazado_187548" data-name="Trazado 187548" d="M304.274,413.965l-3.031-1.568a.841.841,0,0,1-.4-.668c0-.258.165-.377.379-.266l3.032,1.568a.83.83,0,0,1,.4.668c0,.258-.165.377-.379.266" transform="translate(-241.246 -368.979)" fill="#fcfacb"/>
                    <path id="Trazado_187549" data-name="Trazado 187549" d="M301.13,414.14l-2.179-1.129a.836.836,0,0,1-.4-.667c0-.258.165-.377.379-.266l2.179,1.128a.832.832,0,0,1,.4.668c0,.258-.165.377-.379.266" transform="translate(-241.512 -368.979)" fill="#fcfacb"/>
                    <path id="Trazado_187550" data-name="Trazado 187550" d="M305.294,406.755l-3.852-1.993a.839.839,0,0,1-.4-.667c0-.258.165-.377.379-.266l3.853,1.993a.829.829,0,0,1,.4.668c0,.258-.165.377-.379.266" transform="translate(-241.223 -368.979)" fill="#fcfacb"/>
                    <path id="Trazado_187551" data-name="Trazado 187551" d="M305.475,404.749l-6.714-3.474a.836.836,0,0,1-.4-.667c0-.258.165-.377.379-.266l6.714,3.474a.832.832,0,0,1,.4.668c0,.259-.165.377-.379.266" transform="translate(-241.534 -368.979)" fill="#fcfacb"/>
                    <path id="Trazado_187552" data-name="Trazado 187552" d="M302.677,407.182l-3.852-1.993a.839.839,0,0,1-.4-.667c0-.259.165-.377.379-.266l3.852,1.992a.832.832,0,0,1,.4.667c0,.259-.165.377-.379.266" transform="translate(-241.526 -368.979)" fill="#fcfacb"/>
                    <path id="Trazado_187553" data-name="Trazado 187553" d="M307.658,408.267l-1.4-.724a.839.839,0,0,1-.4-.667c0-.258.165-.377.379-.266l1.4.724a.832.832,0,0,1,.4.668c0,.258-.165.377-.379.266" transform="translate(-240.665 -368.979)" fill="#fcfacb"/>
                    <path id="Trazado_187554" data-name="Trazado 187554" d="M303.519,411.494l-4.631-2.4a.835.835,0,0,1-.4-.668c0-.258.165-.376.379-.265l4.631,2.4a.83.83,0,0,1,.4.668c0,.258-.165.376-.379.265" transform="translate(-241.519 -368.979)" fill="#fcfacb"/>
                    <path id="Trazado_187555" data-name="Trazado 187555" d="M300.345,396.17l-3.4-1.762a.835.835,0,0,1-.4-.667c0-.258.165-.377.379-.266l3.4,1.762a.829.829,0,0,1,.4.667c0,.259-.165.377-.379.266" transform="translate(-241.744 -368.979)" fill="#fcfacb"/>
                    <path id="Trazado_187556" data-name="Trazado 187556" d="M301.2,416.011l-3.943-2.039a.838.838,0,0,1-.4-.668c0-.258.165-.377.379-.267l3.943,2.04a.835.835,0,0,1,.4.668c0,.258-.165.377-.379.266" transform="translate(-241.708 -368.979)" fill="#fcfacb"/>
                    <path id="Trazado_187557" data-name="Trazado 187557" d="M302.667,428.048l-2.309-1.2a.836.836,0,0,1-.4-.667c0-.258.165-.377.379-.266l2.309,1.194a.835.835,0,0,1,.4.668c0,.258-.165.377-.379.266" transform="translate(-241.349 -368.979)" fill="#fcfacb"/>
                    <path id="Trazado_187558" data-name="Trazado 187558" d="M307.174,430.585l-3.4-1.762a.835.835,0,0,1-.4-.667c0-.258.165-.377.379-.267l3.4,1.761a.832.832,0,0,1,.4.668c0,.258-.165.377-.379.267" transform="translate(-240.953 -368.979)" fill="#fcfacb"/>
                    <path id="Trazado_187559" data-name="Trazado 187559" d="M302.653,420.162l-4.406-2.279a.838.838,0,0,1-.4-.668c0-.258.165-.377.379-.266l4.406,2.28a.832.832,0,0,1,.4.668c0,.258-.165.377-.379.266" transform="translate(-241.593 -368.979)" fill="#fcfacb"/>
                    <path id="Trazado_187560" data-name="Trazado 187560" d="M299.75,422.54l-1.443-.746a.835.835,0,0,1-.4-.667c0-.258.165-.377.379-.266l1.443.746a.832.832,0,0,1,.4.668c0,.258-.165.377-.379.266" transform="translate(-241.586 -368.979)" fill="#fcfacb"/>
                    <path id="Trazado_187561" data-name="Trazado 187561" d="M299.3,426.184l-.926-.479a.836.836,0,0,1-.4-.667c0-.258.165-.377.379-.266l.926.479a.832.832,0,0,1,.4.668c0,.258-.165.377-.379.266" transform="translate(-241.579 -368.979)" fill="#fcfacb"/>
                    <path id="Trazado_187562" data-name="Trazado 187562" d="M304.808,425.316l-3.852-1.993a.836.836,0,0,1-.4-.667c0-.258.165-.377.379-.266l3.853,1.993a.835.835,0,0,1,.4.668c0,.258-.165.377-.379.266" transform="translate(-241.279 -368.979)" fill="#fcfacb"/>
                    <path id="Trazado_187563" data-name="Trazado 187563" d="M304.989,423.311l-6.714-3.474a.836.836,0,0,1-.4-.667c0-.258.165-.377.379-.266l6.714,3.474a.832.832,0,0,1,.4.668c0,.258-.165.377-.379.266" transform="translate(-241.59 -368.979)" fill="#fcfacb"/>
                    <path id="Trazado_187564" data-name="Trazado 187564" d="M302.191,425.744l-3.852-1.993a.839.839,0,0,1-.4-.668c0-.257.165-.377.379-.266l3.852,1.993a.832.832,0,0,1,.4.668c0,.258-.165.377-.379.266" transform="translate(-241.582 -368.979)" fill="#fcfacb"/>
                    <path id="Trazado_187565" data-name="Trazado 187565" d="M307.172,426.828l-1.4-.723a.839.839,0,0,1-.4-.668c0-.258.165-.377.379-.266l1.4.724a.835.835,0,0,1,.4.668c0,.258-.165.377-.379.266" transform="translate(-240.721 -368.979)" fill="#fcfacb"/>
                    <path id="Trazado_187566" data-name="Trazado 187566" d="M317.512,471.253l4.276-2.213,4.276,2.213-4.276,2.213Z" transform="translate(-239.316 -368.979)" fill="#dadeec"/>
                    <path id="Trazado_187567" data-name="Trazado 187567" d="M325.647,466.495l4.276-2.214,4.276,2.214-4.276,2.213Z" transform="translate(-238.374 -368.979)" fill="#dadeec"/>
                    <path id="Trazado_187568" data-name="Trazado 187568" d="M333.757,461.848l4.276-2.213,4.276,2.213-4.276,2.213Z" transform="translate(-237.435 -368.979)" fill="#dadeec"/>
                    <path id="Trazado_187569" data-name="Trazado 187569" d="M329.923,466.494v-11.8l-4.276-2.207v11.8Z" transform="translate(-238.374 -368.979)" fill="#1a6ec1"/>
                    <path id="Trazado_187570" data-name="Trazado 187570" d="M329.48,454.693l4.276-2.213v11.8l-4.276,2.213Z" transform="translate(-237.93 -368.979)" fill="#0035d3"/>
                    <path id="Trazado_187571" data-name="Trazado 187571" d="M329.923,466.494v-11.8l-4.276-2.207v11.8Z" transform="translate(-238.374 -368.979)" fill="#0035d3"/>
                    <path id="Trazado_187572" data-name="Trazado 187572" d="M321.789,471.253v-6.638l-4.276-2.212v6.638Z" transform="translate(-239.316 -368.979)" fill="#0035d3"/>
                    <path id="Trazado_187573" data-name="Trazado 187573" d="M321.345,464.615l4.276-2.213v6.64l-4.276,2.214Z" transform="translate(-238.872 -368.979)" fill="#0035d3"/>
                    <path id="Trazado_187574" data-name="Trazado 187574" d="M317.512,462.4l4.276-2.214,4.276,2.214-4.276,2.213Z" transform="translate(-239.316 -368.979)" fill="#51b0ff"/>
                    <path id="Trazado_187575" data-name="Trazado 187575" d="M338.034,461.848V445.622l-4.276-2.213v16.226Z" transform="translate(-237.435 -368.979)" fill="#0035d3"/>
                    <path id="Trazado_187576" data-name="Trazado 187576" d="M337.59,445.622l4.276-2.212v16.225l-4.276,2.213Z" transform="translate(-236.991 -368.979)" fill="#0035d3"/>
                    <path id="Trazado_187577" data-name="Trazado 187577" d="M333.757,443.41l4.276-2.213,4.276,2.213-4.276,2.212Z" transform="translate(-237.435 -368.979)" fill="#51b0ff"/>
                    <path id="Trazado_187578" data-name="Trazado 187578" d="M325.647,452.482l4.276-2.213,4.276,2.213-4.276,2.213Z" transform="translate(-238.374 -368.979)" fill="#51b0ff"/>
                    <path id="Trazado_187579" data-name="Trazado 187579" d="M263.42,449.116a1.959,1.959,0,0,0-2.131.293,8.616,8.616,0,0,0-2.008,4.4c-.036,1.417,1.251,1.321,2.016.985a12.859,12.859,0,0,0,3.135-3.81,1.812,1.812,0,0,0-.375-1.49c-.215-.151-.642-.38-.642-.38" transform="translate(-246.06 -368.979)" fill="#fcfacb"/>
                    <path id="Trazado_187580" data-name="Trazado 187580" d="M263.508,448.83l.061,1.226a.683.683,0,0,1-.386.637,1.661,1.661,0,0,1-1.018.142c-.994-.143-1.083-.4-1.154-1.623s2.5-.382,2.5-.382" transform="translate(-245.86 -368.979)" fill="#dadeec"/>
                    <path id="Trazado_187581" data-name="Trazado 187581" d="M259.09,446.76a1.959,1.959,0,0,0-2.13.292,8.615,8.615,0,0,0-2.008,4.4c-.036,1.417,1.251,1.321,2.016.986a12.883,12.883,0,0,0,3.135-3.81,1.813,1.813,0,0,0-.375-1.491c-.215-.151-.642-.38-.642-.38" transform="translate(-246.562 -368.979)" fill="#fcfacb"/>
                    <path id="Trazado_187582" data-name="Trazado 187582" d="M259.178,446.473l.061,1.226a.683.683,0,0,1-.386.637,1.661,1.661,0,0,1-1.018.142c-.994-.143-1.083-.4-1.154-1.623s2.5-.382,2.5-.382" transform="translate(-246.361 -368.979)" fill="#dadeec"/>
                    <path id="Trazado_187583" data-name="Trazado 187583" d="M271.173,423.972c-.391-5.7-6.883.838-6.883.838l-4.444,3.9-4,3.94a3.306,3.306,0,0,0-.994,2.84l1.619,11.048a1.176,1.176,0,0,0,1.215.944,4.434,4.434,0,0,0,.6-.047A1.4,1.4,0,0,0,259.621,446l-.3-10.333,8.4-4.539s3.835-1.465,3.445-7.161" transform="translate(-246.577 -368.979)" fill="#2490c9"/>
                    <path id="Trazado_187584" data-name="Trazado 187584" d="M275.5,426.144c-.391-5.7-6.883.837-6.883.837l-4.444,3.9-4,3.94a3.306,3.306,0,0,0-.994,2.84l1.619,11.048a1.177,1.177,0,0,0,1.215.944,4.435,4.435,0,0,0,.6-.047,1.4,1.4,0,0,0,1.339-1.432l-.3-10.333,8.4-4.54s3.835-1.464,3.445-7.161" transform="translate(-246.076 -368.979)" fill="#2490c9"/>
                    <path id="Trazado_187585" data-name="Trazado 187585" d="M271.348,407.855c4.923,1.83,4.824,4.437,4.824,4.437a132.866,132.866,0,0,0-.635,15.948c.137,2.669-15.826,2.873-13.444-4.248,2.807-8.4,1.755-15.2,3.07-16.22s4.91-.389,6.186.083" transform="translate(-245.762 -368.979)" fill="#fcfacb"/>
                    <path id="Trazado_187586" data-name="Trazado 187586" d="M272.294,410.168a2.391,2.391,0,0,1-2.925,1.054c-1.358-.313-2.251-1.294-1.993-2.19a2.393,2.393,0,0,1,2.926-1.054c1.358.314,2.249,1.294,1.993,2.19" transform="translate(-245.128 -368.979)" fill="#ffd3b0"/>
                    <path id="Trazado_187587" data-name="Trazado 187587" d="M270.224,411.53a4.059,4.059,0,0,1-.893-.1,3.364,3.364,0,0,1-1.726-.947,1.565,1.565,0,0,1-.436-1.5,2.622,2.622,0,0,1,3.211-1.206,3.338,3.338,0,0,1,1.725.947,1.558,1.558,0,0,1,.436,1.5,2.277,2.277,0,0,1-2.318,1.306m-.741-3.437a1.818,1.818,0,0,0-1.854.993,1.19,1.19,0,0,0,.345,1.127,2.889,2.889,0,0,0,1.478.806c1.227.283,2.414-.122,2.639-.9a1.186,1.186,0,0,0-.345-1.127,2.866,2.866,0,0,0-1.478-.806,3.4,3.4,0,0,0-.781-.09" transform="translate(-245.152 -368.979)" fill="#fff"/>
                    <path id="Trazado_187588" data-name="Trazado 187588" d="M268.6,407.656a9.642,9.642,0,0,1-.042,1.575c-.027.44,1.69.85,2.135.452s.267-.812.373-2.307-2.465.28-2.465.28" transform="translate(-244.986 -368.979)" fill="#ffd3b0"/>
                    <path id="Trazado_187589" data-name="Trazado 187589" d="M271.061,407.377a3.373,3.373,0,0,1-2.507,1.919l.032-1.261Z" transform="translate(-244.986 -368.979)" fill="#eaaf92"/>
                    <path id="Trazado_187590" data-name="Trazado 187590" d="M272.76,403.854A3.384,3.384,0,0,1,270.042,408a3.85,3.85,0,0,1-4.625-2.436,3.386,3.386,0,0,1,2.718-4.146l.008,0a3.849,3.849,0,0,1,4.617,2.439" transform="translate(-245.364 -368.979)" fill="#ffd3b0"/>
                    <path id="Trazado_187591" data-name="Trazado 187591" d="M269.964,404.828a12.784,12.784,0,0,1-3.53.81c-1.451.009-1.127-1.074-1.127-1.074l4.288-.556Z" transform="translate(-245.366 -368.979)" fill="#eaaf92"/>
                    <path id="Trazado_187592" data-name="Trazado 187592" d="M266.173,405.038a7.505,7.505,0,0,1,3.412-.4,1.726,1.726,0,0,1,.962.51.579.579,0,0,0,.291.19c.282.057.745-1,1.3-1.018s.916.325.465.971-.3,1.37-.09,1.474,2.406-1.406.466-4.849-6.867-1.589-7.633-.891a1.219,1.219,0,0,1-1.464.069s-.736,4.941,2.294,3.945" transform="translate(-245.537 -368.979)" fill="#1d1d1b"/>
                    <path id="Trazado_187593" data-name="Trazado 187593" d="M272.864,419.279v2.584a1,1,0,0,1-.383.778l-5.922,4.839.669.922,7.821-5.083a1.4,1.4,0,0,0,.647-1l.529-4.505Z" transform="translate(-245.217 -368.979)" fill="#ffd3b0"/>
                    <path id="Trazado_187594" data-name="Trazado 187594" d="M274.6,411s1.8,2.422,2.466,8.8c0,0-3.068.89-4.81.385s2.343-9.18,2.343-9.18" transform="translate(-244.607 -368.979)" fill="#fcfacb"/>
                    <path id="Trazado_187595" data-name="Trazado 187595" d="M271.993,414.063a40.778,40.778,0,0,0-.745,4.955,1.019,1.019,0,0,0,.743.977Z" transform="translate(-244.674 -368.979)" fill="#fec2b5"/>
                    <path id="Trazado_187596" data-name="Trazado 187596" d="M272.365,430.838l-1.309-.155-8.449-4.371a1.293,1.293,0,0,0-1.057.039l-5.987,3.1-.791-.094v.706h0a.278.278,0,0,0,.182.248l9.576,4.955a1.3,1.3,0,0,0,1.057-.039l6.515-3.376a.386.386,0,0,0,.259-.319Z" transform="translate(-246.582 -368.979)" fill="#fcfacb"/>
                    <path id="Trazado_187597" data-name="Trazado 187597" d="M266.017,428.076l-.6-.311h-6.6l-3.254,1.682-.791-.093v.7h0a.278.278,0,0,0,.182.249l9.576,4.954a1.083,1.083,0,0,0,.546.092Z" transform="translate(-246.582 -368.979)" fill="#fec2b5"/>
                    <path id="Trazado_187598" data-name="Trazado 187598" d="M255.123,429.4l-.351-.042v.7h0a.278.278,0,0,0,.182.249l.168.087Z" transform="translate(-246.582 -368.979)" fill="#fcfacb"/>
                    <path id="Trazado_187599" data-name="Trazado 187599" d="M263.6,435.3a1.353,1.353,0,0,0,.893-.05v-1.2H263.6Z" transform="translate(-245.559 -368.979)" fill="#fff"/>
                    <path id="Trazado_187600" data-name="Trazado 187600" d="M264.53,434.558l-9.576-4.954c-.271-.14-.237-.385.076-.547l6.52-3.372a1.294,1.294,0,0,1,1.057-.039l9.576,4.954c.271.14.237.385-.076.547l-6.52,3.372a1.3,1.3,0,0,1-1.057.039" transform="translate(-246.582 -368.979)" fill="#fff"/>
                    <path id="Trazado_187601" data-name="Trazado 187601" d="M264.214,433.806l-7.962-4.119c-.223-.116-.2-.321.064-.456l3.494-1.761a1.082,1.082,0,0,1,.879-.033l7.962,4.12c.223.116.2.32-.064.455l-3.494,1.761a1.074,1.074,0,0,1-.879.033" transform="translate(-246.428 -368.979)" fill="#dadeec"/>
                    <path id="Trazado_187602" data-name="Trazado 187602" d="M261.195,425.521l-.1.592a3.951,3.951,0,0,0,.044,1.518l.118.522a.783.783,0,0,0,.656.577.447.447,0,0,0,.524-.315c0-.012,0-.025.006-.038l.158-1.266s.362.425.536.425-.2-1.268-.59-1.985-1.351-.029-1.351-.029" transform="translate(-245.856 -368.979)" fill="#ffd3b0"/>
                    <path id="Trazado_187603" data-name="Trazado 187603" d="M264.49,416.111l-1.028,1.822a3.3,3.3,0,0,0-.421,1.383l-.446,6.233-1.351-.029-.614-7a2.336,2.336,0,0,1,.035-.648l.7-3.55Z" transform="translate(-245.905 -368.979)" fill="#ffd3b0"/>
                    <path id="Trazado_187604" data-name="Trazado 187604" d="M264.287,435.034l-.8-.939-8.443-4.381a1.028,1.028,0,0,1-.49-.844l.008-6.2-.485-.568.456-.237h0a.336.336,0,0,1,.335.017l9.569,4.965a1.02,1.02,0,0,1,.49.84l-.008,6.747a.367.367,0,0,1-.179.36Z" transform="translate(-246.663 -368.979)" fill="#2490c9"/>
                    <path id="Trazado_187605" data-name="Trazado 187605" d="M258.449,431.482l-.6-.311-3.3-5.127v-3.366l-.485-.568.456-.237h0a.334.334,0,0,1,.335.017l9.569,4.965a.907.907,0,0,1,.36.378Z" transform="translate(-246.664 -368.979)" fill="#fec2b5"/>
                    <path id="Trazado_187606" data-name="Trazado 187606" d="M254.288,422.363l-.215-.252.456-.237h0a.336.336,0,0,1,.335.017l.168.087Z" transform="translate(-246.663 -368.979)" fill="#fcfacb"/>
                    <path id="Trazado_187607" data-name="Trazado 187607" d="M263.534,426.91a1.058,1.058,0,0,1,.4.722l-.935.484-.446-.7Z" transform="translate(-245.681 -368.979)" fill="#fee5df"/>
                    <path id="Trazado_187608" data-name="Trazado 187608" d="M263.992,427.1l-9.569-4.965c-.271-.14-.49.008-.491.332l-.008,6.747a1.028,1.028,0,0,0,.489.841l9.569,4.965c.271.14.491-.008.491-.332l.008-6.747a1.02,1.02,0,0,0-.49-.84" transform="translate(-246.68 -368.979)" fill="#fcfacb"/>
                    <path id="Trazado_187609" data-name="Trazado 187609" d="M267.49,428.4l-.153.286a1.994,1.994,0,0,1-.8.794l-.951.525a1.039,1.039,0,0,1-.97.02l-.032-.017a.481.481,0,0,1-.148-.713.634.634,0,0,1,.068-.074l.993-.914s-.558.382-.714.229c-.112-.113.541-.665,1.044-.683a2.122,2.122,0,0,0,.991-.372Z" transform="translate(-245.474 -368.979)" fill="#ffd3b0"/>
                    <path id="Trazado_187610" data-name="Trazado 187610" d="M265.435,407.758a28.108,28.108,0,0,0-5.109,6.808,7.439,7.439,0,0,0,4.293,2.8c3.047.789.817-9.608.817-9.608" transform="translate(-245.939 -368.979)" fill="#fcfacb"/>
                    <path id="Trazado_187611" data-name="Trazado 187611" d="M263.641,417.154l.59-5.109-1.39,4.787c.26.12.528.227.8.322" transform="translate(-245.648 -368.979)" fill="#fec2b5"/>
                    <path id="Trazado_187612" data-name="Trazado 187612" d="M267.452,407.042l-.979-.241a2.33,2.33,0,0,0,1.149.826c.682.168.788-.349.788-.349Z" transform="translate(-245.227 -368.979)" fill="#fff"/>
                    <path id="Trazado_187613" data-name="Trazado 187613" d="M272.148,405.637a.548.548,0,1,1-.545-.488h0a.519.519,0,0,1,.545.488" transform="translate(-244.696 -368.979)" fill="#fff"/>
                    <path id="Trazado_187615" data-name="Trazado 187615" d="M283.49,464.5a16.105,16.105,0,0,0-13.2,0c-3.645,1.886-3.644,4.944,0,6.83a16.1,16.1,0,0,0,13.2,0c3.645-1.886,3.644-4.944,0-6.83m-3.571,4.985a7.4,7.4,0,0,1-6.068,0c-1.674-.867-1.674-2.273,0-3.14a7.4,7.4,0,0,1,6.068,0c1.674.867,1.674,2.272,0,3.139" transform="translate(-245.102 -368.979)" fill="#dadeec"/>
                    <path id="Trazado_187616" data-name="Trazado 187616" d="M268.938,463.382l3.33.046a3.485,3.485,0,0,1,1.052-.792,8.9,8.9,0,0,1,6.7-.221L282,460.747l3.046.043c-.151-.088-.306-.175-.469-.26a18.709,18.709,0,0,0-15.331,0,8.033,8.033,0,0,0-1.9,1.33Z" transform="translate(-245.126 -368.979)" fill="#0050b7"/>
                    <path id="Trazado_187617" data-name="Trazado 187617" d="M283.526,456.458v4.334l-3.046-.043v-4.331Z" transform="translate(-243.605 -368.979)" fill="#0035d3"/>
                    <path id="Trazado_187618" data-name="Trazado 187618" d="M278.707,458.083v4.335l1.978-1.667v-4.333Z" transform="translate(-243.81 -368.979)" fill="#0050b7"/>
                    <path id="Trazado_187619" data-name="Trazado 187619" d="M271.76,459.1v4.333l4.38-3.2,3.376,2.185v-4.327l-3.109-1.352s-4.279,1.174-4.5,1.224-.145,1.141-.145,1.141" transform="translate(-244.616 -368.979)" fill="#0050b7"/>
                    <path id="Trazado_187620" data-name="Trazado 187620" d="M268.772,459.05v4.333l3.33.046V459.1Z" transform="translate(-244.961 -368.979)" fill="#0050b7"/>
                    <path id="Trazado_187621" data-name="Trazado 187621" d="M267.344,457.528v4.333l1.593,1.522V459.05Z" transform="translate(-245.126 -368.979)" fill="#0035d3"/>
                    <path id="Trazado_187622" data-name="Trazado 187622" d="M268.938,459.05l3.33.046a3.5,3.5,0,0,1,1.052-.793,8.9,8.9,0,0,1,6.7-.221L282,456.414l3.046.043c-.151-.088-.306-.174-.469-.26a18.709,18.709,0,0,0-15.331,0,8.062,8.062,0,0,0-1.9,1.33Z" transform="translate(-245.126 -368.979)" fill="#51b0ff"/>
                    <path id="Trazado_187623" data-name="Trazado 187623" d="M279.606,458.616V462.6l2.882-.619s-.17-2.33-.231-2.393-2.651-.971-2.651-.971" transform="translate(-243.706 -368.979)" fill="#c94024"/>
                    <path id="Trazado_187624" data-name="Trazado 187624" d="M277.651,462.6v4.334l.311.3,2.032-1.049s-.315-3.309-.353-3.374c-.658-.1-1.323-.169-1.991-.206" transform="translate(-243.932 -368.979)" fill="#c94024"/>
                    <path id="Trazado_187625" data-name="Trazado 187625" d="M281.574,461.48l-1.742,1.468c1.451,1.029,1.28,2.48-.515,3.409a6.581,6.581,0,0,1-1.665.574l1.8,1.719-1.6,1.345a15.713,15.713,0,0,0,5.53-1.533c3.639-1.883,4.146-4.771,1.529-6.937Z" transform="translate(-243.932 -368.979)" fill="#fec2b5"/>
                    <path id="Trazado_187626" data-name="Trazado 187626" d="M277.835,465.663V470l3.953-1.368,4.752-4.063-.018-4.6-5.028,3.571Z" transform="translate(-243.911 -368.979)" fill="#fec2b5"/>
                    <path id="Trazado_187627" data-name="Trazado 187627" d="M281.574,457.147l-1.742,1.468c1.451,1.028,1.28,2.48-.515,3.408a6.621,6.621,0,0,1-1.665.575l1.8,1.718-1.6,1.345a15.733,15.733,0,0,0,5.53-1.532c3.639-1.883,4.146-4.771,1.529-6.938Z" transform="translate(-243.932 -368.979)" fill="#fc502d"/>
                    <path id="Trazado_187628" data-name="Trazado 187628" d="M279.168,468.628l-1.588-1.515a8.337,8.337,0,0,1-4.128-.757,2.07,2.07,0,0,1-1.443-2.213l-3.78-.053-1.451-1.388c-1.272,1.955-.4,4.2,2.607,5.759a17.359,17.359,0,0,0,8.041,1.638Z" transform="translate(-245.257 -368.979)" fill="#ccc99e"/>
                    <path id="Trazado_187629" data-name="Trazado 187629" d="M277.421,465.77V470.1l-11.214-5.569V460.2l1.637.593Z" transform="translate(-245.258 -368.979)" fill="#ccc99e"/>
                    <path id="Trazado_187630" data-name="Trazado 187630" d="M278,464.3v4.333l-1.747,1.473v-4.334Z" transform="translate(-244.094 -368.979)" fill="#d6d29d"/>
                    <path id="Trazado_187631" data-name="Trazado 187631" d="M279.168,464.3l-1.588-1.516a8.337,8.337,0,0,1-4.128-.757,2.07,2.07,0,0,1-1.443-2.213l-3.78-.053-1.451-1.388c-1.272,1.955-.4,4.2,2.607,5.759a17.359,17.359,0,0,0,8.041,1.638Z" transform="translate(-245.257 -368.979)" fill="#fcfacb"/>
                    <path id="Trazado_187635" data-name="Trazado 187635" d="M321.484,391.484l-9.945-5.146a.56.56,0,0,0-.514-.037V386.3l-.964.5.677.222v6.491a1.675,1.675,0,0,0,.8,1.37l9.507,4.918v.761l.974-.5h0a.6.6,0,0,0,.27-.571v-6.631a1.67,1.67,0,0,0-.8-1.37" transform="translate(-240.179 -368.979)" fill="#0035d3"/>
                    <path id="Trazado_187636" data-name="Trazado 187636" d="M320.532,400.533l-9.945-5.146a1.678,1.678,0,0,1-.8-1.37v-6.628c0-.528.358-.771.8-.542l9.945,5.146a1.67,1.67,0,0,1,.8,1.369v6.629c0,.528-.358.771-.8.542" transform="translate(-240.211 -368.979)" fill="#51b0ff"/>
                    <path id="Trazado_187637" data-name="Trazado 187637" d="M313.641,393.1c0,.384-.3.539-.669.347a1.309,1.309,0,0,1-.669-1.041c0-.384.3-.539.669-.347a1.307,1.307,0,0,1,.669,1.042" transform="translate(-239.919 -368.979)" fill="#fff"/>
                    <path id="Trazado_187638" data-name="Trazado 187638" d="M315.463,394.155c0,.383-.3.539-.669.347a1.312,1.312,0,0,1-.669-1.042c0-.384.3-.539.669-.347a1.3,1.3,0,0,1,.669,1.042" transform="translate(-239.708 -368.979)" fill="#fff"/>
                    <path id="Trazado_187639" data-name="Trazado 187639" d="M317.284,395.206c0,.383-.3.539-.669.347a1.312,1.312,0,0,1-.669-1.041c0-.385.3-.539.669-.347a1.3,1.3,0,0,1,.669,1.042" transform="translate(-239.498 -368.979)" fill="#fff"/>
                    <path id="Trazado_187640" data-name="Trazado 187640" d="M278.122,381.36l-9.756-5.047a.545.545,0,0,0-.5-.036v-.006l-.946.49.669.218v6.368a1.645,1.645,0,0,0,.781,1.344l9.326,4.824v.748l.956-.493h0a.6.6,0,0,0,.266-.561v-6.5a1.635,1.635,0,0,0-.781-1.344" transform="translate(-245.176 -368.979)" fill="#fcfacb"/>
                    <path id="Trazado_187641" data-name="Trazado 187641" d="M277.19,390.236l-9.757-5.045a1.643,1.643,0,0,1-.781-1.344v-6.5c0-.518.351-.756.781-.532l9.757,5.048a1.637,1.637,0,0,1,.781,1.344v6.5c0,.518-.352.756-.781.532" transform="translate(-245.206 -368.979)" fill="#dadeec"/>
                    <path id="Trazado_187642" data-name="Trazado 187642" d="M270.429,382.953c0,.375-.295.528-.658.34a1.281,1.281,0,0,1-.658-1.021c0-.376.295-.529.658-.34a1.276,1.276,0,0,1,.658,1.021" transform="translate(-244.921 -368.979)" fill="#fff"/>
                    <path id="Trazado_187643" data-name="Trazado 187643" d="M272.216,383.98c0,.375-.295.528-.658.341a1.284,1.284,0,0,1-.658-1.022c0-.376.295-.529.658-.34a1.276,1.276,0,0,1,.658,1.021" transform="translate(-244.714 -368.979)" fill="#fff"/>
                    <path id="Trazado_187644" data-name="Trazado 187644" d="M274,385.011c0,.376-.295.528-.658.341a1.284,1.284,0,0,1-.658-1.022c0-.376.295-.529.658-.34a1.276,1.276,0,0,1,.658,1.022" transform="translate(-244.508 -368.979)" fill="#fff"/>
                  </g>
                </g>
              </g>
            </g>
          </g>
          <g id="Grupo_127755" data-name="Grupo 127755">
            <g id="Grupo_127754" data-name="Grupo 127754" transform="translate(1.408 -6)">
              <g id="Grupo_127753" data-name="Grupo 127753" transform="translate(672 9553.052)">
                <g id="Grupo_127750" data-name="Grupo 127750" transform="translate(36.119 0)">
                  <path id="Trazado_187877" data-name="Trazado 187877" d="M325.846-98.439A107.477,107.477,0,0,0,237.812-52.56a7.7,7.7,0,0,1,2.483,2.566L253.94-26.363a80.183,80.183,0,0,1,152.1,35.469h27.348A107.667,107.667,0,0,0,325.846-98.439Z" transform="translate(-237.812 98.439)" fill="#0d2380"/>
                  <g id="Grupo_127749-2" data-name="Grupo 127749" transform="translate(148.568 107.545)">
                    <path id="Trazado_187878" data-name="Trazado 187878" d="M327.138-1.635l31.883-55.222H295.255Z" transform="translate(-295.255 56.857)" fill="#0d2380"/>
                  </g>
                </g>
                <g id="Grupo_127752" data-name="Grupo 127752" transform="translate(0 52.322)">
                  <path id="Trazado_187879" data-name="Trazado 187879" d="M424.633,1.6,410.465-22.942a80.293,80.293,0,0,1-72.65,46.283,80.288,80.288,0,0,1-80.2-80.2H230.267A107.669,107.669,0,0,0,337.815,50.688a107.512,107.512,0,0,0,88.828-47A6.419,6.419,0,0,1,424.633,1.6Z" transform="translate(-213.662 112.08)" fill="#aab2d3"/>
                  <g id="Grupo_127751" data-name="Grupo 127751">
                    <path id="Trazado_187880" data-name="Trazado 187880" d="M255.729-78.209,223.847-22.986h63.766Z" transform="translate(-223.847 78.209)" fill="#aab2d3"/>
                  </g>
                </g>
              </g>
            </g>
          </g>
        </g>
      </g>
    </g>
    <g id="Grupo_127758" data-name="Grupo 127758">
      <g transform="matrix(1, 0, 0, 1, 585, 9450)" filter="url(#Elipse_5082)">
        <circle id="Elipse_5082-5" data-name="Elipse 5082" cx="56.5" cy="56.5" r="56.5" transform="translate(307 6)" fill="#fff"/>
      </g>
      <circle id="Elipse_5083" data-name="Elipse 5083" cx="47.5" cy="47.5" r="47.5" transform="translate(901 9465)" fill="#0d2380"/>
      <text id="P" transform="translate(933 9530)" fill="#fff2bf" font-size="50" font-family="Roboto-Black, Roboto" font-weight="800"><tspan x="0" y="0">P</tspan></text>
    </g>
    <g id="Grupo_127759" data-name="Grupo 127759" transform="translate(3 288)">
      <g transform="matrix(1, 0, 0, 1, 582, 9162)" filter="url(#Elipse_5082-2)">
        <circle id="Elipse_5082-6" data-name="Elipse 5082" cx="56.5" cy="56.5" r="56.5" transform="translate(310 294)" fill="#fff"/>
      </g>
      <circle id="Elipse_5083-2" data-name="Elipse 5083" cx="47.5" cy="47.5" r="47.5" transform="translate(901 9465)" fill="#0d2380"/>
      <text id="H" transform="translate(931 9530)" fill="#fff2bf" font-size="50" font-family="Roboto-Black, Roboto" font-weight="800"><tspan x="0" y="0">H</tspan></text>
    </g>
    <g id="Grupo_127760" data-name="Grupo 127760" transform="translate(-298)">
      <g transform="matrix(1, 0, 0, 1, 883, 9450)" filter="url(#Elipse_5082-3)">
        <circle id="Elipse_5082-7" data-name="Elipse 5082" cx="56.5" cy="56.5" r="56.5" transform="translate(9 6)" fill="#fff"/>
      </g>
      <circle id="Elipse_5083-3" data-name="Elipse 5083" cx="47.5" cy="47.5" r="47.5" transform="translate(901 9465)" fill="#0d2380"/>
      <text id="A" transform="translate(933 9530)" fill="#fff2bf" font-size="50" font-family="Roboto-Black, Roboto" font-weight="800"><tspan x="0" y="0">A</tspan></text>
    </g>
    <g id="Grupo_127761" data-name="Grupo 127761" transform="translate(-298 288)">
      <g transform="matrix(1, 0, 0, 1, 883, 9162)" filter="url(#Elipse_5082-4)">
        <circle id="Elipse_5082-8" data-name="Elipse 5082" cx="56.5" cy="56.5" r="56.5" transform="translate(9 294)" fill="#fff"/>
      </g>
      <circle id="Elipse_5083-4" data-name="Elipse 5083" cx="47.5" cy="47.5" r="47.5" transform="translate(901 9465)" fill="#0d2380"/>
      <text id="V" transform="translate(933 9530)" fill="#fff2bf" font-size="50" font-family="Roboto-Black, Roboto" font-weight="800"><tspan x="0" y="0">V</tspan></text>
    </g>
  </g>
</svg>
