<svg xmlns="http://www.w3.org/2000/svg" xmlns:xlink="http://www.w3.org/1999/xlink" width="86" height="86" viewBox="0 0 86 86">
  <defs>
    <clipPath id="clip-path">
      <rect id="Rectángulo_40566" data-name="Rectángulo 40566" width="60.977" height="70" fill="#0d2380"/>
    </clipPath>
  </defs>
  <g id="Grupo_130043" data-name="Grupo 130043" transform="translate(-758 -5335)">
    <rect id="Rectángulo_40379" data-name="Rectángulo 40379" width="86" height="86" transform="translate(758 5335)" fill="none"/>
    <rect id="Rectángulo_40379-2" data-name="Rectángulo 40379" width="86" height="86" transform="translate(758 5335)" fill="none"/>
    <g id="Grupo_130042" data-name="Grupo 130042" transform="translate(770 5343)">
      <g id="Grupo_130041" data-name="Grupo 130041" clip-path="url(#clip-path)">
        <path id="Trazado_195451" data-name="Trazado 195451" d="M6.508,397.332H23.876L22.5,404.3H15.531a2.051,2.051,0,0,0,0,4.1H46.156a2.051,2.051,0,0,0,0-4.1H39.189l-1.377-6.973H55.18a6.16,6.16,0,0,0,6.1-5.332H.412A6.16,6.16,0,0,0,6.508,397.332Z" transform="translate(-0.356 -338.406)" fill="#0d2380"/>
        <path id="Trazado_195452" data-name="Trazado 195452" d="M54.824,81H46.568c-.087.092-.137.142-.351.355.129.288.25.58.362.875h.316a6.152,6.152,0,0,1,0,12.3h-.316c-.112.3-.234.587-.362.875l.223.223a6.152,6.152,0,0,1-8.7,8.7l-.223-.223c-.288.129-.58.25-.875.362v.316a6.152,6.152,0,0,1-12.3,0v-.316c-.3-.112-.587-.234-.875-.362l-.223.223a6.152,6.152,0,0,1-8.7-8.7l.223-.223c-.129-.288-.25-.58-.362-.875h-.316a6.152,6.152,0,0,1,0-12.3H14.4c.112-.3.234-.587.362-.875-.211-.211-.268-.267-.351-.355H6.152A6.16,6.16,0,0,0,0,87.152v32.266H60.977V87.152A6.16,6.16,0,0,0,54.824,81Zm-42.93,33.77H9.707a2.051,2.051,0,0,1,0-4.1h2.188a2.051,2.051,0,0,1,0,4.1m39.375,0H49.082a2.051,2.051,0,0,1,0-4.1H51.27a2.051,2.051,0,0,1,0,4.1" transform="translate(0 -69.926)" fill="#0d2380"/>
        <path id="Trazado_195453" data-name="Trazado 195453" d="M95.841,10.741a13.038,13.038,0,0,0-2.349,5.666H90.051a2.051,2.051,0,0,0,0,4.1h3.441a13.038,13.038,0,0,0,2.349,5.666l-2.435,2.435a2.05,2.05,0,0,0,2.9,2.9l2.435-2.435a13.038,13.038,0,0,0,5.666,2.349v3.441a2.051,2.051,0,0,0,4.1,0V31.422a13.038,13.038,0,0,0,5.666-2.349l2.435,2.435a2.05,2.05,0,0,0,2.9-2.9l-2.435-2.435a13.038,13.038,0,0,0,2.349-5.666h3.441a2.051,2.051,0,0,0,0-4.1h-3.441a13.038,13.038,0,0,0-2.349-5.666l2.435-2.435a2.05,2.05,0,0,0-2.9-2.9l-2.435,2.435a13.038,13.038,0,0,0-5.666-2.349V2.051a2.051,2.051,0,0,0-4.1,0V5.492a13.038,13.038,0,0,0-5.666,2.349L96.306,5.406a2.05,2.05,0,0,0-2.9,2.9Zm14.074,4.925,2.188-1.094a2.051,2.051,0,0,1,1.835,3.67l-2.187,1.094a2.051,2.051,0,0,1-1.835-3.67M98.06,15.489a2.052,2.052,0,0,1,2.752-.917L103,15.665a2.051,2.051,0,0,1-1.835,3.67l-2.187-1.094a2.052,2.052,0,0,1-.917-2.752" transform="translate(-75.969)" fill="#0d2380"/>
      </g>
    </g>
  </g>
</svg>
