<svg xmlns="http://www.w3.org/2000/svg" xmlns:xlink="http://www.w3.org/1999/xlink" width="86" height="86" viewBox="0 0 86 86">
  <defs>
    <clipPath id="clip-path">
      <rect id="Rectángulo_40565" data-name="Rectángulo 40565" width="70" height="52.5" fill="#0d2380"/>
    </clipPath>
  </defs>
  <g id="Grupo_130040" data-name="Grupo 130040" transform="translate(-372 -5335)">
    <rect id="Rectángulo_40379" data-name="Rectángulo 40379" width="86" height="86" transform="translate(372 5335)" fill="none"/>
    <rect id="Rectángulo_40379-2" data-name="Rectángulo 40379" width="86" height="86" transform="translate(372 5335)" fill="none"/>
    <g id="Grupo_130039" data-name="Grupo 130039" transform="translate(380 5352)">
      <g id="Grupo_130039-2" data-name="Grupo 130039" clip-path="url(#clip-path)">
        <path id="Trazado_195447" data-name="Trazado 195447" d="M95.25,98.891a1.248,1.248,0,0,1-.883-.956L93.976,96H91.024l-.386,1.935a1.249,1.249,0,0,1-.882.956,9.892,9.892,0,0,0-2.11.875,1.251,1.251,0,0,1-1.3-.051l-1.638-1.092-2.08,2.083,1.091,1.638a1.249,1.249,0,0,1,.052,1.3,9.92,9.92,0,0,0-.875,2.113,1.249,1.249,0,0,1-.957.882L80,107.025v2.95l1.935.388a1.249,1.249,0,0,1,.956.882,9.937,9.937,0,0,0,.875,2.113,1.249,1.249,0,0,1-.052,1.3l-1.091,1.638,2.086,2.087,1.637-1.092a1.249,1.249,0,0,1,1.3-.051,9.912,9.912,0,0,0,2.11.875,1.251,1.251,0,0,1,.882.956l.382,1.93h2.953l.386-1.935a1.248,1.248,0,0,1,.882-.956,9.892,9.892,0,0,0,2.11-.875,1.251,1.251,0,0,1,1.3.051l1.638,1.092,2.086-2.088-1.091-1.637a1.249,1.249,0,0,1-.053-1.3,9.941,9.941,0,0,0,.875-2.112,1.251,1.251,0,0,1,.956-.882l1.931-.382v-2.95l-1.935-.388a1.249,1.249,0,0,1-.956-.882,9.937,9.937,0,0,0-.875-2.113,1.249,1.249,0,0,1,.052-1.3l1.091-1.638-2.086-2.087L98.654,99.71a1.249,1.249,0,0,1-1.3.051,9.955,9.955,0,0,0-2.1-.87M100,108.5a7.5,7.5,0,1,1-7.5-7.5,7.5,7.5,0,0,1,7.5,7.5" transform="translate(-67.5 -81)" fill="#0d2380"/>
        <path id="Trazado_195448" data-name="Trazado 195448" d="M138,149a5,5,0,1,1-5-5,5,5,0,0,1,5,5" transform="translate(-108 -121.5)" fill="#0d2380"/>
        <rect id="Rectángulo_40564" data-name="Rectángulo 40564" width="10" height="1.25" transform="translate(30 47.5)" fill="#0d2380"/>
        <path id="Trazado_195449" data-name="Trazado 195449" d="M0,307.75A1.25,1.25,0,0,0,1.25,309h67.5A1.25,1.25,0,0,0,70,307.75V304H42.5v1.25a2.5,2.5,0,0,1-2.5,2.5H30a2.5,2.5,0,0,1-2.5-2.5V304H0Z" transform="translate(0 -256.5)" fill="#0d2380"/>
        <path id="Trazado_195450" data-name="Trazado 195450" d="M24,10V45H86.5V10H79V7.5h7.5V3.75A3.75,3.75,0,0,0,82.751,0h-55A3.75,3.75,0,0,0,24,3.75V7.5H51.5V10Zm7.5-5H29V2.5h2.5Zm5,0H34V2.5h2.5Zm5,0H39V2.5h2.5Zm23.75,10a5,5,0,0,0-4.585,3l-2.29-1a7.5,7.5,0,1,1,3.875,9.875l1-2.291a5,5,0,1,0,2-9.584M56.412,7.625a1.249,1.249,0,0,1,1.576-.156l1.875,1.25a12.461,12.461,0,0,1,1.213-.5L61.526,6a1.251,1.251,0,0,1,1.225-1h5a1.251,1.251,0,0,1,1.225,1l.445,2.218a12.5,12.5,0,0,1,1.213.5l1.875-1.25a1.249,1.249,0,0,1,1.576.156l3.541,3.538a1.249,1.249,0,0,1,.156,1.577l-1.25,1.875a12.112,12.112,0,0,1,.5,1.214l2.218.444a1.25,1.25,0,0,1,1,1.229v5a1.251,1.251,0,0,1-1,1.225l-2.218.444a12.149,12.149,0,0,1-.5,1.214l1.25,1.875a1.249,1.249,0,0,1-.156,1.577l-3.538,3.54a1.249,1.249,0,0,1-1.576.156l-1.875-1.25a12.481,12.481,0,0,1-1.213.5L68.976,34a1.25,1.25,0,0,1-1.225,1h-5a1.25,1.25,0,0,1-1.225-1l-.589-2.939,2.451-.491.386,1.93h2.953l.386-1.935A1.249,1.249,0,0,1,68,29.609a9.888,9.888,0,0,0,2.11-.875,1.251,1.251,0,0,1,1.3.051l1.638,1.092,2.086-2.087-1.091-1.638a1.249,1.249,0,0,1-.052-1.3,9.929,9.929,0,0,0,.875-2.112,1.251,1.251,0,0,1,.956-.883l1.931-.382v-2.95l-1.935-.387a1.249,1.249,0,0,1-.956-.882,9.932,9.932,0,0,0-.875-2.113,1.249,1.249,0,0,1,.052-1.3l1.091-1.638-2.086-2.087L71.4,11.21a1.249,1.249,0,0,1-1.3.051,9.916,9.916,0,0,0-2.11-.875,1.251,1.251,0,0,1-.882-.956L66.727,7.5H63.774l-.386,1.935a1.248,1.248,0,0,1-.882.956,9.891,9.891,0,0,0-2.11.875,1.251,1.251,0,0,1-1.3-.051l-1.638-1.092-2.811,2.811-1.769-1.773Zm-3.9,7.345a1.249,1.249,0,0,1,1.576.156l3.536,3.535a1.249,1.249,0,0,1,.156,1.577l-1.25,1.875a12.148,12.148,0,0,1,.5,1.214l2.218.444a1.25,1.25,0,0,1,1,1.229v5a1.251,1.251,0,0,1-1,1.225l-2.218.444a12.152,12.152,0,0,1-.5,1.214l1.25,1.875a1.249,1.249,0,0,1-.156,1.577l-3.538,3.54a1.249,1.249,0,0,1-1.576.156l-1.875-1.25a12.482,12.482,0,0,1-1.213.5l-.45,2.219a1.25,1.25,0,0,1-1.225,1h-5a1.25,1.25,0,0,1-1.225-1l-.445-2.218a12.445,12.445,0,0,1-1.213-.5l-1.875,1.25a1.248,1.248,0,0,1-1.576-.156l-3.541-3.538a1.249,1.249,0,0,1-.156-1.577l1.25-1.875a12.111,12.111,0,0,1-.5-1.214l-2.219-.448a1.25,1.25,0,0,1-1-1.225V25a1.25,1.25,0,0,1,1-1.225l2.218-.444a12.21,12.21,0,0,1,.5-1.214l-1.25-1.875a1.249,1.249,0,0,1,.156-1.577l3.538-3.54a1.249,1.249,0,0,1,1.576-.156l1.875,1.25a12.478,12.478,0,0,1,1.213-.5l.45-2.219a1.251,1.251,0,0,1,1.225-1h5a1.251,1.251,0,0,1,1.225,1l.445,2.218a12.511,12.511,0,0,1,1.213.5Z" transform="translate(-20.251)" fill="#0d2380"/>
      </g>
    </g>
  </g>
</svg>
