<svg xmlns="http://www.w3.org/2000/svg" xmlns:xlink="http://www.w3.org/1999/xlink" width="86" height="86" viewBox="0 0 86 86">
  <defs>
    <clipPath id="clip-path">
      <rect id="Rectángulo_40568" data-name="Rectángulo 40568" width="70" height="70" fill="#0d2380"/>
    </clipPath>
  </defs>
  <g id="Grupo_130048" data-name="Grupo 130048" transform="translate(6516 6365)">
    <rect id="Rectángulo_40379" data-name="Rectángulo 40379" width="86" height="86" transform="translate(-6516 -6365)" fill="none"/>
    <rect id="Rectángulo_40379-2" data-name="Rectángulo 40379" width="86" height="86" transform="translate(-6516 -6365)" fill="none"/>
    <g id="Grupo_130047" data-name="Grupo 130047" transform="translate(-6508 -6357)">
      <g id="Grupo_130047-2" data-name="Grupo 130047" clip-path="url(#clip-path)">
        <path id="Trazado_195457" data-name="Trazado 195457" d="M24.5,226.329l2.637-2.633-1.622-1.622-2.636,2.637L14.965,216.8a4.667,4.667,0,0,0-6.6,0l-1.346,1.343a4.6,4.6,0,0,0-2.356-.661,4.667,4.667,0,1,0,4.667,4.667,4.605,4.605,0,0,0-.662-2.356l1.346-1.346a2.333,2.333,0,0,1,3.3,0l7.918,7.913L2.52,245.045a.61.61,0,0,0-.187.432v7.548a.623.623,0,0,0,.618.618H10.3a1.167,1.167,0,0,0,.828-.35l1.843-1.843-.7-3.582a2.8,2.8,0,0,1,.77-2.567,2.835,2.835,0,0,1,2.578-.747l3.582.665,4.048-4.048-.758-3.477a2.809,2.809,0,0,1,3.337-3.348l3.558.712.272-.272,7.875,7.875a2.333,2.333,0,0,1,0,3.3l-1.346,1.346a4.6,4.6,0,0,0-2.355-.661A4.667,4.667,0,1,0,38.5,251.31a4.607,4.607,0,0,0-.661-2.356l1.346-1.346a4.667,4.667,0,0,0,0-6.6L31.3,233.131l2.646-2.646-5.157-5.145L7.828,246.305a1.171,1.171,0,0,1-1.657-1.657l16.68-16.672Z" transform="translate(0 -185.977)" fill="#0d2380"/>
        <path id="Trazado_195458" data-name="Trazado 195458" d="M116.414,40.833a4.667,4.667,0,0,0-4.667,4.667,4.6,4.6,0,0,0,.662,2.356L111.062,49.2a2.333,2.333,0,0,1-3.3,0l-7.314-7.319a19.782,19.782,0,0,0-1.071-39.5h-.42A19.856,19.856,0,0,0,79.182,20.619l-7.3-7.3a2.333,2.333,0,0,1,0-3.3l1.346-1.346a4.607,4.607,0,0,0,2.356.661,4.667,4.667,0,1,0-4.667-4.667,4.6,4.6,0,0,0,.661,2.356L70.229,8.369a4.667,4.667,0,0,0,0,6.6L79.2,23.932c.043.485.1.971.176,1.455a1.167,1.167,0,0,1-.327,1.015l-2.788,2.777a2.272,2.272,0,0,0-.2.25l-.626-.626-7.455-7.125a4.614,4.614,0,0,0,.6-2.252,4.705,4.705,0,1,0-2.207,3.949l7.426,7.1L90.592,47.263l7.117,7.444a4.766,4.766,0,1,0,1.7-1.6l-7.142-7.472-.583-.583a2.617,2.617,0,0,0,.287-.222l2.777-2.777a1.167,1.167,0,0,1,1.015-.327c.459.072.916.1,1.374.142l8.983,8.989a4.667,4.667,0,0,0,6.6,0l1.346-1.346a4.606,4.606,0,0,0,2.354.658,4.667,4.667,0,0,0,0-9.333Zm-12.833-31.5A8.167,8.167,0,1,1,95.414,17.5a8.167,8.167,0,0,1,8.167-8.167" transform="translate(-51.081)" fill="#0d2380"/>
      </g>
    </g>
  </g>
</svg>
