<svg xmlns="http://www.w3.org/2000/svg" xmlns:xlink="http://www.w3.org/1999/xlink" width="86" height="86" viewBox="0 0 86 86">
  <defs>
    <clipPath id="clip-path">
      <rect id="Rectángulo_40570" data-name="Rectángulo 40570" width="72.625" height="70" fill="#0d2380"/>
    </clipPath>
  </defs>
  <g id="Grupo_130050" data-name="Grupo 130050" transform="translate(6131 6365)">
    <rect id="Rectángulo_40379" data-name="Rectángulo 40379" width="86" height="86" transform="translate(-6131 -6365)" fill="none"/>
    <rect id="Rectángulo_40379-2" data-name="Rectángulo 40379" width="86" height="86" transform="translate(-6131 -6365)" fill="none"/>
    <g id="Grupo_130049" data-name="Grupo 130049" transform="translate(-6124 -6357)">
      <g id="Grupo_130049-2" data-name="Grupo 130049" clip-path="url(#clip-path)">
        <path id="Trazado_195459" data-name="Trazado 195459" d="M0,142.466a1.312,1.312,0,0,0,1.313,1.313h70a1.312,1.312,0,0,0,1.313-1.313V88.442H0Zm32.435-13.541a2.014,2.014,0,0,1-1.986,1.952H28.808c-.086.242-.19.466-.294.691l1.157,1.157a1.96,1.96,0,0,1,0,2.763l-1.745,1.745a1.96,1.96,0,0,1-2.763,0l-1.157-1.157c-.225.1-.466.207-.691.294v1.641a1.961,1.961,0,0,1-1.952,1.952H18.912a1.961,1.961,0,0,1-1.952-1.952v-1.641c-.242-.086-.466-.19-.691-.294l-1.157,1.157a1.96,1.96,0,0,1-2.763,0l-1.727-1.745a1.96,1.96,0,0,1,0-2.763l1.157-1.157c-.1-.225-.207-.466-.294-.691H9.844a1.961,1.961,0,0,1-1.952-1.952v-2.47A1.961,1.961,0,0,1,9.844,124.5h1.641c.086-.242.19-.466.294-.691l-1.157-1.157a1.96,1.96,0,0,1,0-2.763l1.744-1.744a1.96,1.96,0,0,1,2.763,0l1.157,1.157c.224-.1.466-.207.691-.294v-1.641a1.961,1.961,0,0,1,1.952-1.952H21.4a1.961,1.961,0,0,1,1.952,1.952v1.641c.242.086.466.19.691.294l1.157-1.157a1.96,1.96,0,0,1,2.763,0l1.744,1.744a1.96,1.96,0,0,1,0,2.763l-1.157,1.157c.1.224.207.466.293.691h1.641a1.961,1.961,0,0,1,1.952,1.952Zm36.028-22.211H60.5a.829.829,0,0,1,0-1.658h7.962a.818.818,0,0,1,.829.829.841.841,0,0,1-.829.829m.829,5.561a.829.829,0,0,1-.829.829h-3.42a.829.829,0,0,1,0-1.658h3.42a.829.829,0,0,1,.829.829m-13.022-7.219a.818.818,0,0,1,.829.829.829.829,0,0,1-.829.829H49.637a.819.819,0,0,1-.829-.829.829.829,0,0,1,.829-.829ZM50.984,99.5a.818.818,0,0,1,.829-.829h7.306a.829.829,0,0,1,.829.829.818.818,0,0,1-.829.829H51.813a.84.84,0,0,1-.829-.829m5.665,11.952h5.129a.829.829,0,0,1,.829.829.841.841,0,0,1-.829.829H56.649a.829.829,0,1,1,0-1.658M63.9,92.276h4.56a.829.829,0,0,1,.829.829.818.818,0,0,1-.829.829H63.9a.829.829,0,0,1,0-1.658m-1.416,6.39h5.976a.829.829,0,0,1,.829.829.818.818,0,0,1-.829.829H62.487a.829.829,0,1,1,0-1.658M55.8,92.276h4.56a.829.829,0,1,1,0,1.658H55.8a.829.829,0,0,1,0-1.658m-14.853,0H51.192a.841.841,0,0,1,.829.829.829.829,0,0,1-.829.829H40.95a.818.818,0,0,1-.829-.829.829.829,0,0,1,.829-.829m0,6.39h6.736a.841.841,0,0,1,.829.829.818.818,0,0,1-.829.829H40.95a.818.818,0,0,1-.829-.829.829.829,0,0,1,.829-.829m0,6.39h4.076a.829.829,0,0,1,0,1.658H40.95a.819.819,0,0,1-.829-.829.829.829,0,0,1,.829-.829m0,6.39H54.041a.84.84,0,0,1,.829.829.829.829,0,0,1-.829.829H40.95a.818.818,0,0,1-.829-.829.829.829,0,0,1,.829-.829m0,9.033h27.5a.829.829,0,1,1,0,1.658H40.95a.818.818,0,0,1-.829-.829.841.841,0,0,1,.829-.829m0,6.39H64.214a.829.829,0,0,1,.829.829.818.818,0,0,1-.829.829H40.95a.818.818,0,0,1-.829-.829.841.841,0,0,1,.829-.829m0,6.39h27.5a.829.829,0,0,1,.829.829.819.819,0,0,1-.829.829H40.95a.818.818,0,0,1-.829-.829.841.841,0,0,1,.829-.829M3.333,93.105a.818.818,0,0,1,.829-.829H36.114a.818.818,0,0,1,.829.829v19.171a.819.819,0,0,1-.829.829H4.162a.818.818,0,0,1-.829-.829Z" transform="translate(0 -73.779)" fill="#0d2380" fill-rule="evenodd"/>
        <path id="Trazado_195460" data-name="Trazado 195460" d="M102.779,302.825a3.731,3.731,0,1,0,3.713,3.731,3.722,3.722,0,0,0-3.713-3.731" transform="translate(-82.641 -252.618)" fill="#0d2380" fill-rule="evenodd"/>
        <path id="Trazado_195461" data-name="Trazado 195461" d="M78.5,270.346H76.276a.829.829,0,0,1-.794-.6,8.252,8.252,0,0,0-.622-1.52.836.836,0,0,1,.138-.984l1.589-1.589a.292.292,0,0,0,0-.414l-1.744-1.744a.315.315,0,0,0-.414,0l-1.589,1.589a.835.835,0,0,1-.984.138,6.853,6.853,0,0,0-1.52-.622.851.851,0,0,1-.6-.794v-2.245a.3.3,0,0,0-.294-.294h-2.47a.3.3,0,0,0-.294.294V263.8a.829.829,0,0,1-.6.794,8.255,8.255,0,0,0-1.52.622.835.835,0,0,1-.984-.138l-1.589-1.589a.315.315,0,0,0-.414,0l-1.727,1.762a.292.292,0,0,0,0,.414l1.589,1.589a.835.835,0,0,1,.138.984,7.227,7.227,0,0,0-.622,1.52.85.85,0,0,1-.794.6H57.9a.3.3,0,0,0-.294.294v2.47a.3.3,0,0,0,.294.294h2.228a.829.829,0,0,1,.794.6,8.281,8.281,0,0,0,.622,1.52.836.836,0,0,1-.138.984l-1.589,1.589a.292.292,0,0,0,0,.414l1.744,1.744a.315.315,0,0,0,.414,0l1.589-1.589a.823.823,0,0,1,.587-.242.8.8,0,0,1,.4.1,6.865,6.865,0,0,0,1.52.622.85.85,0,0,1,.6.794v2.245a.3.3,0,0,0,.294.294h2.47a.3.3,0,0,0,.294-.294v-2.245a.829.829,0,0,1,.6-.794,7.807,7.807,0,0,0,1.52-.622.836.836,0,0,1,.984.138l1.589,1.589a.315.315,0,0,0,.414,0l1.744-1.744a.292.292,0,0,0,0-.414L75,276.529a.836.836,0,0,1-.138-.984,6.854,6.854,0,0,0,.622-1.52.85.85,0,0,1,.794-.6H78.5a.3.3,0,0,0,.294-.294v-2.47A.319.319,0,0,0,78.5,270.346Zm-10.311,6.908a5.38,5.38,0,1,1,5.371-5.371,5.377,5.377,0,0,1-5.371,5.371" transform="translate(-48.055 -217.945)" fill="#0d2380" fill-rule="evenodd"/>
        <path id="Trazado_195462" data-name="Trazado 195462" d="M43.231,188.005H69.189L56.2,180.216Z" transform="translate(-36.063 -150.337)" fill="#0d2380" fill-rule="evenodd"/>
        <path id="Trazado_195463" data-name="Trazado 195463" d="M69.189,121.568H43.231L56.2,129.357Z" transform="translate(-36.063 -101.412)" fill="#0d2380" fill-rule="evenodd"/>
        <path id="Trazado_195464" data-name="Trazado 195464" d="M30.105,125.422v16.235l13.541-8.118Z" transform="translate(-25.114 -104.628)" fill="#0d2380" fill-rule="evenodd"/>
        <path id="Trazado_195465" data-name="Trazado 195465" d="M144.779,141.657V125.422l-13.523,8.118Z" transform="translate(-109.494 -104.627)" fill="#0d2380" fill-rule="evenodd"/>
        <path id="Trazado_195466" data-name="Trazado 195466" d="M71.313,0h-70A1.312,1.312,0,0,0,0,1.314V13.006H72.625V1.314A1.312,1.312,0,0,0,71.313,0M40.155,8.032a2.58,2.58,0,0,1-2.573,2.573H34.525a2.58,2.58,0,0,1-2.573-2.573V4.975A2.58,2.58,0,0,1,34.525,2.4h3.057a2.58,2.58,0,0,1,2.573,2.573Zm13.541,0a2.58,2.58,0,0,1-2.573,2.573H48.065a2.58,2.58,0,0,1-2.573-2.573V4.975A2.58,2.58,0,0,1,48.065,2.4h3.057A2.58,2.58,0,0,1,53.7,4.975Zm13.523,0a2.58,2.58,0,0,1-2.573,2.573H61.589a2.58,2.58,0,0,1-2.573-2.573V4.975A2.58,2.58,0,0,1,61.589,2.4h3.057a2.58,2.58,0,0,1,2.573,2.573Z" transform="translate(0 -0.001)" fill="#0d2380" fill-rule="evenodd"/>
        <rect id="Rectángulo_40569" data-name="Rectángulo 40569" width="4.888" height="4.888" rx="2.444" transform="translate(33.61 4.059)" fill="#0d2380"/>
        <path id="Trazado_195467" data-name="Trazado 195467" d="M288.255,24.48H285.2a.921.921,0,0,0-.915.916v3.057a.933.933,0,0,0,.915.915h3.057a.921.921,0,0,0,.915-.915V25.4a.921.921,0,0,0-.915-.916" transform="translate(-237.15 -20.421)" fill="#0d2380" fill-rule="evenodd"/>
        <path id="Trazado_195468" data-name="Trazado 195468" d="M369.925,24.48h-3.057a.921.921,0,0,0-.915.916v3.057a.921.921,0,0,0,.915.915h3.057a.921.921,0,0,0,.915-.915V25.4a.921.921,0,0,0-.915-.916" transform="translate(-305.279 -20.421)" fill="#0d2380" fill-rule="evenodd"/>
      </g>
    </g>
  </g>
</svg>
