<svg xmlns="http://www.w3.org/2000/svg" width="144.873" height="137" viewBox="0 0 144.873 137">
  <g id="Grupo_115779" data-name="Grupo 115779" transform="translate(-1072 -498)">
    <g id="Layer_6" transform="translate(1072 498)">
      <g id="Grupo_109209" data-name="Grupo 109209" transform="translate(0 0)">
        <path id="Trazado_158304" data-name="Trazado 158304" d="M195.283,99.23l-10.467-42.1a1.172,1.172,0,0,0-1.3-.849l-33.5,5.205A1.263,1.263,0,0,0,149,62.679l2.829,43.284a2.3,2.3,0,0,0,2.433,2.207h.283l38.928-6.054a2.312,2.312,0,0,0,1.924-2.659A.226.226,0,0,1,195.283,99.23Z" transform="translate(-64.668 -28.35)" fill="#a7e446"/>
        <path id="Trazado_158305" data-name="Trazado 158305" d="M125.457,97.2l-2.829-43.284a1.128,1.128,0,0,1,1.018-1.188l15.164-2.376L135.529,37.22a1.588,1.588,0,0,0-1.7-1.132L89.7,42.934a1.493,1.493,0,0,0-1.3,1.584L92.075,101.5a3.08,3.08,0,0,0,3.169,2.942.718.718,0,0,0,.339-.057l32.534-5.036a2.355,2.355,0,0,1-2.659-1.924C125.514,97.365,125.457,97.308,125.457,97.2Z" transform="translate(-38.353 -19.582)" fill="#feca2e"/>
        <ellipse id="Elipse_5081" data-name="Elipse 5081" cx="9.788" cy="9.788" rx="9.788" ry="9.788" transform="translate(51.854 116.088)" fill="#a4b7b8"/>
        <ellipse id="Elipse_5082" data-name="Elipse 5082" cx="9.788" cy="9.788" rx="9.788" ry="9.788" transform="translate(100.174 116.088)" fill="#a4b7b8"/>
        <path id="Trazado_158306" data-name="Trazado 158306" d="M22.8,47.816h-.339L5.771,46.176a3.606,3.606,0,1,1,.622-7.186l16.748,1.641a3.6,3.6,0,0,1-.339,7.186Z" transform="translate(-1.049 -20.843)" fill="#a7e446"/>
        <path id="Trazado_158307" data-name="Trazado 158307" d="M157.421,178.26H89.581l5.884-8.544a13.587,13.587,0,0,1,9-5.715l45.208-7.412a3.4,3.4,0,0,0,2.829-3.9A3.461,3.461,0,0,0,149.1,149.8l-47.132,7.695a20.685,20.685,0,0,0-12.108,8.261l-7.752,11.316a5.084,5.084,0,0,0,1.3,7.073,5.272,5.272,0,0,0,2.886.905h71.122a3.4,3.4,0,0,0,3.395-3.395A3.334,3.334,0,0,0,157.421,178.26Z" transform="translate(-35.237 -68.962)" fill="#dae6f1"/>
        <ellipse id="Elipse_5083" data-name="Elipse 5083" cx="3.508" cy="3.508" rx="3.508" ry="3.508" transform="translate(58.135 122.368)" fill="#edf8f9"/>
        <ellipse id="Elipse_5084" data-name="Elipse 5084" cx="3.508" cy="3.508" rx="3.508" ry="3.508" transform="translate(106.455 122.368)" fill="#edf8f9"/>
        <path id="Trazado_158308" data-name="Trazado 158308" d="M247.729,156.572h-1.188v-1.188a1.584,1.584,0,0,0-3.169,0v1.188h-1.188a1.584,1.584,0,1,0,0,3.169h1.188v1.188a1.584,1.584,0,0,0,3.169,0v-1.188h1.188a1.584,1.584,0,1,0,0-3.169Z" transform="translate(-104.44 -70.699)" fill="#fc4b52"/>
        <path id="Trazado_158309" data-name="Trazado 158309" d="M81.248,27.1a5.552,5.552,0,0,1-4.47-4.357c0-.057-.057-.113-.113-.057a.055.055,0,0,0-.057.057,5.481,5.481,0,0,1-4.47,4.357c-.057,0-.113.057-.057.113a.055.055,0,0,0,.057.057,5.552,5.552,0,0,1,4.47,4.357c0,.057.057.113.113.057a.055.055,0,0,0,.057-.057,5.481,5.481,0,0,1,4.47-4.357c.057,0,.113-.057.057-.113,0-.057,0-.057-.057-.057Z" transform="translate(-31.261 -13.758)" fill="#feca2e"/>
        <ellipse id="Elipse_5085" data-name="Elipse 5085" cx="1.697" cy="1.697" rx="1.697" ry="1.697" transform="translate(34.541 24.257)" fill="#a7e446"/>
        <ellipse id="Elipse_5086" data-name="Elipse 5086" cx="1.697" cy="1.697" rx="1.697" ry="1.697" transform="translate(30.58 73.483)" fill="#a7e446"/>
        <ellipse id="Elipse_5087" data-name="Elipse 5087" cx="1.697" cy="1.697" rx="1.697" ry="1.697" transform="translate(132.991 96.681)" fill="#a7e446"/>
        <path id="Trazado_158310" data-name="Trazado 158310" d="M4.506,33.675,21.2,35.259a2.435,2.435,0,0,0,.905,0L46.942,92.236A10.306,10.306,0,0,0,57.636,98.4a20.449,20.449,0,0,0-4.244,4.583l-7.752,11.2a6.486,6.486,0,0,0,1.7,9.053,6.557,6.557,0,0,0,3.678,1.132h3.112a11.183,11.183,0,1,0,15.786.962,7.723,7.723,0,0,0-.962-.962h33.5a11.183,11.183,0,1,0,15.786.962,7.723,7.723,0,0,0-.962-.962h4.809a4.809,4.809,0,1,0,0-9.619H57.013l4.357-6.28a12.128,12.128,0,0,1,8.034-5.092l45.208-7.412a4.813,4.813,0,0,0,3.961-5.545,4.463,4.463,0,0,0-.736-1.867l13.127-2.15a6.033,6.033,0,0,0,5.092-6V46.745a4.745,4.745,0,0,0-4.753-4.753h-.113l-8.091.226-1.7-6.9a2.57,2.57,0,0,0-2.886-1.867l-3.451.509-.113-.736a13.411,13.411,0,0,0-15.277-11.2,17.307,17.307,0,0,0-2.32.566,3.041,3.041,0,0,0-2.207-.566l-4.979.792L89.943,21.4a17.153,17.153,0,0,0-33.892,5.319l.226,1.415-5.149.792a2.948,2.948,0,0,0-2.49,3.055L49.431,44.2l-20.03.566L24.819,34.3a5.043,5.043,0,0,0,.905-7.073A4.992,4.992,0,0,0,22.216,25.3L5.468,23.716A5.019,5.019,0,0,0-.02,28.243a4.936,4.936,0,0,0,4.526,5.432Zm49.565,39.21L52.6,50.14,69.348,88.5l-7.921,1.245ZM58.484,90.2l-1.471.226a1.619,1.619,0,0,1-1.867-1.358v-.226l-.509-7.582ZM91.3,36.956a10.537,10.537,0,0,1,4.809-10.581L98.657,36.56l-7.242,1.132ZM119.648,45.1,122.7,52.12l6.45,25.971v.057a.937.937,0,0,1-.622,1.132h-.113l-2.207.339L111.274,45.33Zm-11.373.339,15.107,34.684-7.921,1.245L99.9,45.726Zm9.109,40.342-.792-1.811,7.921-1.245.736,1.754ZM95.828,89.35l-.849-1.98,7.921-1.245.849,1.924Zm-1.98-4.64L87.623,70.4l-1.471-22.8,15.616,35.929Zm-4.3.622a.9.9,0,0,1-1.018-.792v-.113l-.4-5.771,2.829,6.45Zm2.546,2.49.849,1.98-7.865,1.3-.905-2.037Zm-9.9,3.734-7.865,1.3-.905-2.15,7.921-1.245ZM106.635,87.6l-.849-1.867,7.921-1.245.792,1.811Zm-9.788-41.87,15.673,36.042L104.6,83.013,88.472,45.953Zm-11.033-2.49L85.7,41.426l3.395-.509.339,2.207ZM84.229,62.7,77.1,46.292l6.054-.17ZM74.044,46.349l10.75,24.669L85.7,84.6a3.594,3.594,0,0,0,.283,1.3l-2.942.453L65.67,46.575Zm-11.429.339L80.1,86.8l-7.921,1.245L54.3,46.915Zm7.865,44.472.962,2.15-7.865,1.3-.962-2.207ZM69.97,132.8A8.374,8.374,0,1,1,61.6,124.43,8.355,8.355,0,0,1,69.97,132.8Zm48.32,0a8.374,8.374,0,1,1-8.374-8.374A8.355,8.355,0,0,1,118.29,132.8ZM115.8,90.878a1.981,1.981,0,0,1-1.641,2.263l-45.208,7.412a15.118,15.118,0,0,0-9.9,6.28l-5.884,8.6a1.441,1.441,0,0,0,.339,1.98,1.3,1.3,0,0,0,.792.226h67.84a1.98,1.98,0,1,1,0,3.961H51.072a3.67,3.67,0,0,1-3.678-3.678,3.555,3.555,0,0,1,.679-2.093l7.752-11.2a19.005,19.005,0,0,1,11.26-7.695l46.962-7.695a1.924,1.924,0,0,1,1.754,1.641Zm14.768-7.242-2.376.4-.736-1.7,1.471-.226a3.764,3.764,0,0,0,3.112-4.3c0-.113-.057-.283-.057-.4l-2.433-9.675,3.791,8.713v4.017a3.274,3.274,0,0,1-2.772,3.169Zm.736-38.814a1.875,1.875,0,0,1,1.98,1.867V69.377l-7.865-18.106-1.528-6.224Zm-12.5-8.544,1.471,6-28.007.736-.4-2.6,20.878-3.225.453,2.886a1.433,1.433,0,1,0,2.829-.453l-.453-2.886ZM100.128,24.848a10.553,10.553,0,0,1,12.052,8.827l.113.736-10.864,1.7-2.716-10.92a7.29,7.29,0,0,1,1.415-.339Zm-7.3.453a13.632,13.632,0,0,0-1.924,2.093l-.283-1.754ZM58.824,26.319a14.381,14.381,0,0,1,28.4-4.526v.113l.226,1.415-28.4,4.413Zm-7.3,5.432,5.149-.792.679,4.244a1.4,1.4,0,1,0,2.772-.453l-.679-4.244,28.4-4.413.679,4.244a1.341,1.341,0,0,0,.509.849,12.882,12.882,0,0,0-.509,6.224l.113.736-3.565.566a2.641,2.641,0,0,0-2.207,2.716l.113,1.924L52.2,44.2l-.792-12.335a.122.122,0,0,1,.113-.113Zm-.792,33.5L42.868,47.2l6.677-.17ZM39.813,47.311l11.429,26.31,1.018,15.39a4.5,4.5,0,0,0,4.7,4.3,1.566,1.566,0,0,0,.509-.057l2.207-.339.962,2.263-2.942.509a7.564,7.564,0,0,1-8.148-4.413L30.59,47.537ZM5.185,26.489l16.691,1.584a2.187,2.187,0,1,1-.4,4.357L4.789,30.9a2.216,2.216,0,0,1,.4-4.413Z" transform="translate(0.046 -6.928)"/>
        <path id="Trazado_158311" data-name="Trazado 158311" d="M105.123,230.545a4.923,4.923,0,1,0-4.923-4.923A4.926,4.926,0,0,0,105.123,230.545Zm0-7.016a2.089,2.089,0,0,1,2.093,2.093,2.126,2.126,0,0,1-2.093,2.093,2.093,2.093,0,1,1,0-4.187Z" transform="translate(-43.48 -99.746)"/>
        <path id="Trazado_158312" data-name="Trazado 158312" d="M190.523,230.545a4.923,4.923,0,1,0-4.923-4.923A4.926,4.926,0,0,0,190.523,230.545Zm0-7.016a2.093,2.093,0,1,1-2.093,2.093A2.089,2.089,0,0,1,190.523,223.529Z" transform="translate(-80.56 -99.746)"/>
      </g>
    </g>
  </g>
</svg>
