<svg id="g2727" xmlns="http://www.w3.org/2000/svg" xmlns:xlink="http://www.w3.org/1999/xlink" width="55" height="55" viewBox="0 0 55 55">
  <defs>
    <clipPath id="clip-path">
      <path id="path2733" d="M55-682.665H0v55H55Z" transform="translate(0 682.665)" fill="#0d2380"/>
    </clipPath>
  </defs>
  <g id="g2729" transform="translate(0 0)">
    <g id="g2731" clip-path="url(#clip-path)">
      <g id="g2737" transform="translate(15.135 27.081)">
        <path id="path2739" d="M-97.211,2.785a1.878,1.878,0,0,0,1.337-.553l3.183-3.183a.806.806,0,0,0,0-1.139.806.806,0,0,0-1.139,0l-3.183,3.183a.278.278,0,0,1-.2.081.278.278,0,0,1-.2-.081l-6.139-6.139a.279.279,0,0,1,0-.395l3.183-3.183a.806.806,0,0,0,0-1.139.806.806,0,0,0-1.139,0l-3.183,3.183a1.893,1.893,0,0,0,0,2.673l6.139,6.139A1.878,1.878,0,0,0-97.211,2.785Z" transform="translate(105.24 10)" fill="#0d2380"/>
      </g>
      <g id="g2741" transform="translate(20.184 3.69)">
        <path id="path2743" d="M-8.877-233.326a15.551,15.551,0,0,0,14.336-9.506.806.806,0,0,0-.427-1.056.806.806,0,0,0-1.056.427,13.943,13.943,0,0,1-12.852,8.524,13.968,13.968,0,0,1-13.952-13.952A13.968,13.968,0,0,1-8.877-262.841,13.968,13.968,0,0,1,5.075-248.889a14.051,14.051,0,0,1-.145,2.013.806.806,0,0,0,.681.913.806.806,0,0,0,.913-.681,15.666,15.666,0,0,0,.162-2.245A15.581,15.581,0,0,0-8.877-264.453,15.581,15.581,0,0,0-24.44-248.889,15.581,15.581,0,0,0-8.877-233.326Z" transform="translate(24.44 264.453)" fill="#0d2380"/>
      </g>
      <g id="g2745" transform="translate(24.985 8.03)">
        <path id="path2747" d="M-10.708-167.625H5.723a2.511,2.511,0,0,0,2.219-1.3,2.511,2.511,0,0,0-.054-2.572L-.327-184.857a2.525,2.525,0,0,0-2.165-1.21,2.525,2.525,0,0,0-2.165,1.21L-12.873-171.5a2.512,2.512,0,0,0-.054,2.572A2.511,2.511,0,0,0-10.708-167.625Zm8.216-16.831a.913.913,0,0,1,.793.443l8.216,13.359a.913.913,0,0,1,.02.942.913.913,0,0,1-.812.477H-10.708a.913.913,0,0,1-.812-.476.913.913,0,0,1,.02-.942l8.215-13.359A.913.913,0,0,1-2.492-184.456Z" transform="translate(13.255 186.068)" fill="#0d2380"/>
      </g>
      <g id="g2749" transform="translate(34.933 21.352)">
        <path id="path2751" d="M-20.2-9.287a.814.814,0,0,0,.814.814.814.814,0,0,0,.814-.814.814.814,0,0,0-.814-.814.814.814,0,0,0-.814.814" transform="translate(20.203 10.101)" fill="#0d2380"/>
      </g>
      <g id="g2753" transform="translate(34.929 12.829)">
        <path id="path2755" d="M-9.194-68.5a.806.806,0,0,0,.806-.806v-5.268a.806.806,0,0,0-.806-.806.806.806,0,0,0-.806.806v5.268A.806.806,0,0,0-9.194-68.5Z" transform="translate(10 75.381)" fill="#0d2380"/>
      </g>
      <g id="g2757" transform="translate(16.494 0)">
        <path id="path2759" d="M-375.359-32.533a19.275,19.275,0,0,0,19.253-19.253A19.275,19.275,0,0,0-375.359-71.04a19.218,19.218,0,0,0-9.96,2.773.806.806,0,0,0-.272,1.107.806.806,0,0,0,1.107.272,17.608,17.608,0,0,1,9.125-2.54,17.662,17.662,0,0,1,17.642,17.642,17.662,17.662,0,0,1-17.642,17.642A17.662,17.662,0,0,1-393-51.787a17.7,17.7,0,0,1,5.65-12.939.806.806,0,0,0,.043-1.139.806.806,0,0,0-1.139-.043,19.313,19.313,0,0,0-6.166,14.121A19.275,19.275,0,0,0-375.359-32.533Z" transform="translate(394.612 71.04)" fill="#0d2380"/>
      </g>
      <g id="g2761" transform="translate(18.521 37.323)">
        <path id="path2763" d="M-39.67-36.409a.8.8,0,0,0,.57-.236l2.455-2.455a.806.806,0,0,0,0-1.139.806.806,0,0,0-1.139,0l-2.455,2.455a.806.806,0,0,0,0,1.139A.8.8,0,0,0-39.67-36.409Z" transform="translate(40.476 40.476)" fill="#0d2380"/>
      </g>
      <g id="g2765" transform="translate(13.61 32.412)">
        <path id="path2767" d="M-9.194-5.933a.8.8,0,0,0,.57-.236l2.455-2.455a.806.806,0,0,0,0-1.139.806.806,0,0,0-1.139,0L-9.764-7.309a.806.806,0,0,0,0,1.139A.8.8,0,0,0-9.194-5.933Z" transform="translate(10 10)" fill="#0d2380"/>
      </g>
      <g id="g2769" transform="translate(0 38.65)">
        <path id="path2771" d="M-96.887-89.017a.8.8,0,0,0,.57-.236l7.065-7.065a.806.806,0,0,0,0-1.139.806.806,0,0,0-1.139,0l-7.065,7.065a.806.806,0,0,0,0,1.139A.8.8,0,0,0-96.887-89.017Z" transform="translate(97.693 97.693)" fill="#0d2380"/>
      </g>
      <g id="g2773" transform="translate(7.673 33.937)">
        <path id="path2775" d="M-129.961-14.456a.8.8,0,0,0,.57-.236l11.462-11.462a1.878,1.878,0,0,0,.553-1.337,1.878,1.878,0,0,0-.553-1.337l-6.139-6.139a1.893,1.893,0,0,0-2.673,0l-1.739,1.739a.806.806,0,0,0,0,1.139.806.806,0,0,0,1.139,0l1.739-1.739a.279.279,0,0,1,.395,0l6.139,6.139a.278.278,0,0,1,.081.2.278.278,0,0,1-.081.2L-130.53-15.831a.806.806,0,0,0,0,1.139A.8.8,0,0,0-129.961-14.456Z" transform="translate(130.766 35.519)" fill="#0d2380"/>
      </g>
    </g>
  </g>
</svg>
