<svg xmlns="http://www.w3.org/2000/svg" width="42.67" height="39.697" viewBox="0 0 42.67 39.697">
  <g id="privacidad" transform="translate(0 -16.735)">
    <path id="Trazado_188581" data-name="Trazado 188581" d="M41.217,28.329V49.873c0,.863-1.034,1.722-2.937,2.458V47.417c.631.244.655.3.876.3a.711.711,0,0,0,.29-1.36q-.538-.24-1.166-.46V26.791c5.8-2.04,6.734-6.523-2.631-8.693-7.841-1.817-20.815-1.817-28.657,0C2.352,19.173,0,20.761,0,22.819V44.192a.711.711,0,0,0,1.421,0V25.305a10.5,10.5,0,0,0,2.937,1.486v25.54c-2.846-1.1-4.135-2.635-1.513-4.2a.711.711,0,0,0-.727-1.221C.713,47.75,0,48.746,0,49.873c0,1.71,1.632,3.1,4.851,4.138a.711.711,0,0,0,.928-.676v-6.4a43.385,43.385,0,0,1,7.853-1.375.711.711,0,0,0-.135-1.415A46.389,46.389,0,0,0,5.78,45.46V26.281a.71.71,0,0,0-.493-.676c-6.213-2-4.5-4.609,2.025-6.122,7.629-1.768,20.381-1.769,28.016,0,6.449,1.494,8.293,4.1,2.024,6.121a.711.711,0,0,0-.493.676V45.459A52.236,52.236,0,0,0,26.29,43.931v-.316c0-6.6-9.943-6.606-9.943,0v2.74A2.136,2.136,0,0,0,14.7,48.432V54.3a2.134,2.134,0,0,0,2.132,2.132h8.98A2.134,2.134,0,0,0,27.941,54.3V50.469a.711.711,0,0,0-1.421,0V54.3a.711.711,0,0,1-.711.711h-8.98a.711.711,0,0,1-.711-.711V48.432a.711.711,0,0,1,.711-.711H25.58a.711.711,0,0,0,.711-.711V45.355a49.773,49.773,0,0,1,10.568,1.584v6.4a.711.711,0,0,0,.928.676c3.219-1.035,4.851-2.428,4.851-4.137V28.329a.711.711,0,0,0-1.421,0ZM24.869,46.3h-7.1V45.284c2.349-.1,3.878-.065,4.695-.065a.711.711,0,0,0,.009-1.421c-1.576-.021-3.154,0-4.7.064v-.247c0-4.724,7.1-4.725,7.1,0V46.3Z" fill="#0d2380"/>
    <path id="Trazado_188582" data-name="Trazado 188582" d="M127.223,73.892V67.674a.711.711,0,0,0-.725-.71,76.2,76.2,0,0,0-8.43.618.711.711,0,0,0-.616.7V74.5a.711.711,0,0,0,.711.711,77.272,77.272,0,0,1,8.365-.612A.711.711,0,0,0,127.223,73.892ZM125.8,73.2c-2.422.069-4.789.24-6.929.5V68.911c2.129-.263,4.5-.437,6.929-.508Z" transform="translate(-107.019 -45.767)" fill="#0d2380"/>
    <path id="Trazado_188583" data-name="Trazado 188583" d="M267.613,73.8a.711.711,0,0,0,1.372.369,2.861,2.861,0,0,1,1.557-1.852.711.711,0,0,0,.093-1.235,2.018,2.018,0,1,1,2.234,0,.711.711,0,0,0,.093,1.235,2.878,2.878,0,0,1,1.655,2.6.711.711,0,0,0,1.421,0,4.307,4.307,0,0,0-1.613-3.35,3.439,3.439,0,1,0-5.349,0,4.274,4.274,0,0,0-1.465,2.237Z" transform="translate(-243.815 -44.854)" fill="#0d2380"/>
    <path id="Trazado_188584" data-name="Trazado 188584" d="M228.6,186.751a.711.711,0,0,0,0,1.421,77.77,77.77,0,0,1,10.45.623.711.711,0,0,0,.19-1.409A78.909,78.909,0,0,0,228.6,186.751Z" transform="translate(-207.655 -154.913)" fill="#0d2380"/>
    <path id="Trazado_188585" data-name="Trazado 188585" d="M118.105,188.45a.711.711,0,0,0,.094,1.415c.236,0,2.182-.342,5.946-.528a.711.711,0,0,0-.07-1.419C121.96,188.021,119.952,188.2,118.105,188.45Z" transform="translate(-107.056 -155.975)" fill="#0d2380"/>
    <path id="Trazado_188586" data-name="Trazado 188586" d="M300.928,240.547c1.664.141,3.262.333,4.751.571a.711.711,0,0,0,.224-1.4c-1.523-.243-3.156-.439-4.854-.583a.711.711,0,0,0-.12,1.416Z" transform="translate(-273.608 -202.638)" fill="#0d2380"/>
    <path id="Trazado_188587" data-name="Trazado 188587" d="M224.807,391.447v-1.53h.135a.711.711,0,0,0,0-1.421h-1.691a.711.711,0,0,0,0,1.421h.135v1.53A.711.711,0,0,0,224.807,391.447Z" transform="translate(-202.778 -338.738)" fill="#0d2380"/>
    <path id="Trazado_188588" data-name="Trazado 188588" d="M112.971,235.887a2.519,2.519,0,1,0-2.519-2.519A2.522,2.522,0,0,0,112.971,235.887Zm0-3.616a1.1,1.1,0,1,1-1.1,1.1A1.1,1.1,0,0,1,112.971,232.271Z" transform="translate(-100.641 -195.095)" fill="#0d2380"/>
  </g>
</svg>
