<svg xmlns="http://www.w3.org/2000/svg" width="42.667" height="42.664" viewBox="0 0 42.667 42.664">
  <g id="_7-Backup_and_Recovery" data-name="7-Backup and Recovery" transform="translate(-0.001)">
    <path id="Trazado_188604" data-name="Trazado 188604" d="M24.043,46.621a.711.711,0,0,1-.711-.647L21.91,30.33a2.866,2.866,0,0,0-2.844-2.908H6.266a2.844,2.844,0,0,0-2.844,2.844.711.711,0,1,1-1.422,0A4.271,4.271,0,0,1,6.266,26h12.8a4.271,4.271,0,0,1,4.266,4.266l1.422,15.579a.711.711,0,0,1-.647.775Z" transform="translate(-0.578 -7.512)" fill="#0d2380"/>
    <path id="Trazado_188605" data-name="Trazado 188605" d="M19.91,51.62H4.267a4.266,4.266,0,0,1-4.2-5.039L1.422,31.646a.714.714,0,1,1,1.422.128L1.737,43.92a4.242,4.242,0,0,1,2.529-.833H19.91a4.266,4.266,0,0,1,0,8.533Zm-18.488-4.2A2.839,2.839,0,0,0,4.267,50.2H19.91a2.844,2.844,0,1,0,0-5.689H4.267a2.849,2.849,0,0,0-2.792,2.3l-.053.6Z" transform="translate(0 -8.956)" fill="#0d2380"/>
    <circle id="Elipse_5120" data-name="Elipse 5120" cx="0.711" cy="0.711" r="0.711" transform="translate(3.556 37.687)" fill="#0d2380"/>
    <circle id="Elipse_5121" data-name="Elipse 5121" cx="0.711" cy="0.711" r="0.711" transform="translate(6.4 37.687)" fill="#0d2380"/>
    <path id="Trazado_188606" data-name="Trazado 188606" d="M25.977,54.422H21.711a.711.711,0,0,1,0-1.422h4.266a.711.711,0,0,1,0,1.422Z" transform="translate(-6.067 -15.313)" fill="#0d2380"/>
    <path id="Trazado_188607" data-name="Trazado 188607" d="M50.043,20.621a.711.711,0,0,1-.711-.647L47.91,4.33a2.866,2.866,0,0,0-2.844-2.908h-12.8a2.844,2.844,0,0,0-2.844,2.844.711.711,0,0,1-1.422,0A4.271,4.271,0,0,1,32.266,0h12.8a4.271,4.271,0,0,1,4.266,4.266l1.422,15.579a.711.711,0,0,1-.647.775Z" transform="translate(-8.09)" fill="#0d2380"/>
    <path id="Trazado_188608" data-name="Trazado 188608" d="M45.939,30.533H30.3a.711.711,0,1,1,0-1.422H45.939a2.844,2.844,0,0,0,0-5.689H30.3A2.852,2.852,0,0,0,27.508,25.7a.711.711,0,1,1-1.394-.284A4.278,4.278,0,0,1,30.3,22H45.939a4.266,4.266,0,1,1,0,8.533Z" transform="translate(-7.541 -6.357)" fill="#0d2380"/>
    <path id="Trazado_188609" data-name="Trazado 188609" d="M26.8,21.353h-.065a.711.711,0,0,1-.64-.775L27.45,5.646a.714.714,0,1,1,1.422.128L27.514,20.706A.711.711,0,0,1,26.8,21.353Z" transform="translate(-7.54 -1.443)" fill="#0d2380"/>
    <circle id="Elipse_5122" data-name="Elipse 5122" cx="0.711" cy="0.711" r="0.711" transform="translate(23.465 19.199)" fill="#0d2380"/>
    <circle id="Elipse_5123" data-name="Elipse 5123" cx="0.711" cy="0.711" r="0.711" transform="translate(26.31 19.199)" fill="#0d2380"/>
    <path id="Trazado_188610" data-name="Trazado 188610" d="M51.977,28.422H47.711a.711.711,0,1,1,0-1.422h4.266a.711.711,0,1,1,0,1.422Z" transform="translate(-13.58 -7.801)" fill="#0d2380"/>
    <circle id="Elipse_5124" data-name="Elipse 5124" cx="0.711" cy="0.711" r="0.711" transform="translate(24.888 31.287)" fill="#0d2380"/>
    <circle id="Elipse_5125" data-name="Elipse 5125" cx="0.711" cy="0.711" r="0.711" transform="translate(27.732 31.287)" fill="#0d2380"/>
    <circle id="Elipse_5126" data-name="Elipse 5126" cx="0.711" cy="0.711" r="0.711" transform="translate(30.576 31.287)" fill="#0d2380"/>
    <circle id="Elipse_5127" data-name="Elipse 5127" cx="0.711" cy="0.711" r="0.711" transform="translate(33.42 31.287)" fill="#0d2380"/>
    <circle id="Elipse_5128" data-name="Elipse 5128" cx="0.711" cy="0.711" r="0.711" transform="translate(33.42 28.443)" fill="#0d2380"/>
    <circle id="Elipse_5129" data-name="Elipse 5129" cx="0.711" cy="0.711" r="0.711" transform="translate(33.42 25.598)" fill="#0d2380"/>
    <circle id="Elipse_5130" data-name="Elipse 5130" cx="0.711" cy="0.711" r="0.711" transform="translate(16.355 9.955)" fill="#0d2380"/>
    <circle id="Elipse_5131" data-name="Elipse 5131" cx="0.711" cy="0.711" r="0.711" transform="translate(13.511 9.955)" fill="#0d2380"/>
    <circle id="Elipse_5132" data-name="Elipse 5132" cx="0.711" cy="0.711" r="0.711" transform="translate(10.666 9.955)" fill="#0d2380"/>
    <circle id="Elipse_5133" data-name="Elipse 5133" cx="0.711" cy="0.711" r="0.711" transform="translate(7.822 9.955)" fill="#0d2380"/>
    <circle id="Elipse_5134" data-name="Elipse 5134" cx="0.711" cy="0.711" r="0.711" transform="translate(7.822 12.799)" fill="#0d2380"/>
    <circle id="Elipse_5135" data-name="Elipse 5135" cx="0.711" cy="0.711" r="0.711" transform="translate(7.822 15.643)" fill="#0d2380"/>
  </g>
</svg>
