<svg xmlns="http://www.w3.org/2000/svg" width="75.302" height="80" viewBox="0 0 75.302 80">
  <g id="Grupo_127999" data-name="Grupo 127999" transform="translate(-125.243 -204)">
    <path id="Trazado_187736" data-name="Trazado 187736" d="M192.123,204a2.381,2.381,0,0,1,1.452,2.492c-.053,2.915-.023,5.832-.014,8.748a1.289,1.289,0,0,1-.76,1.4c-.816.32-1.568-.266-1.58-1.264-.022-1.8-.007-3.593-.007-5.39v-3.6H142.3v20.091c1.443,0,2.844-.047,4.242.011a4.969,4.969,0,0,1,1.67,9.515c-.456.2-.653.428-.6.917a5.45,5.45,0,0,1,0,.936,2.72,2.72,0,0,0,.662,2.022,9.2,9.2,0,0,1,.979,2.7c1.334,0,2.889.01,4.443-.015.155,0,.346-.19.453-.339a2.041,2.041,0,0,1,1.8-.9c1.067.017,2.143-.073,3.2.037a2.757,2.757,0,0,1,1.544.721,1.4,1.4,0,0,0,1.105.5q3.4-.029,6.8,0a1.4,1.4,0,0,0,1.055-.464,2.8,2.8,0,0,1,1.611-.757c2.158-.086,4.321-.044,6.482-.032.815,0,1.289.444,1.3,1.141s-.5,1.185-1.344,1.193c-1.744.015-3.489.005-5.234.005h-.911V249.1c.2.016.4.047.6.047q11.561,0,23.123,0a2.756,2.756,0,0,0,2.768-1.875,2.58,2.58,0,0,0-.975-3.038,3.879,3.879,0,0,0-1.895-.543c-3.723-.05-7.447-.024-11.17-.025-.208,0-.418.012-.625-.007a1.168,1.168,0,0,1-1.169-1.207,1.119,1.119,0,0,1,1.234-1.122c1.927-.017,3.854-.007,5.781-.008h1.977v-.963q0-9.335.005-18.669a3.38,3.38,0,0,1,.128-1.073,1.137,1.137,0,0,1,2.189.259,6.683,6.683,0,0,1,.022.858q0,9.256,0,18.513v1.081c.7,0,1.362-.014,2.025,0a5.081,5.081,0,0,1-.042,10.16c-.622.015-1.245,0-1.983,0v.955c0,9.686-.013,19.372.017,29.058A2.409,2.409,0,0,1,192.123,284H126.651a2.241,2.241,0,0,1-1.4-1.979c-.006-1.431-.03-2.864.01-4.294a2.662,2.662,0,0,1,2-2.5c.242-.07.486-.132.759-.205,0-.554,0-1.073,0-1.591a2.746,2.746,0,0,1,3.014-3c2.655-.006,5.31,0,7.965,0h.852v-4.073c-1.227,0-2.4.016-3.564,0a4.958,4.958,0,0,1-4.658-3.514,4.6,4.6,0,0,1,1.9-5.471,2.506,2.506,0,0,0,1.42-2.96c-.006-.051.015-.11,0-.155-.136-.335-.273-.67-.42-1a5.938,5.938,0,0,1-.833-1.933c-.086-3.277-.067-6.559-.012-9.837a2.382,2.382,0,0,1,.614-1.611,2.123,2.123,0,0,0,.655-1.943,5.92,5.92,0,0,1,0-.936c.065-.539-.147-.792-.653-1.032a4.737,4.737,0,0,1-2.888-4.379,4.577,4.577,0,0,1,2.589-4.471,8.35,8.35,0,0,1,2.842-.636,29.99,29.99,0,0,1,3.064-.023V225.4c0-6.273.023-12.546-.02-18.818A2.471,2.471,0,0,1,141.339,204Zm-34.784,77.608h33.818V251.494h-.981q-9.293,0-18.587.007a2.4,2.4,0,0,1-2.1-.955.907.907,0,0,0-.642-.284c-2.421-.02-4.842-.024-7.263,0a1.125,1.125,0,0,0-.734.386,2.123,2.123,0,0,1-1.682.84q-1.64,0-3.28,0a2.039,2.039,0,0,1-1.681-.836c-.13-.165-.331-.385-.5-.388-1.554-.03-3.109-.018-4.424-.018A10.866,10.866,0,0,1,148.234,253a2.521,2.521,0,0,0-.613,1.8,7.242,7.242,0,0,1,0,1.17c-.041.434.14.633.529.81a4.982,4.982,0,0,1-2.07,9.571c-1.243.009-2.486,0-3.769,0v4.07h.891c2.812,0,5.623-.008,8.434,0a2.777,2.777,0,0,1,2.971,2.984c.006.543,0,1.086,0,1.611,2.155.562,2.733,1.315,2.735,3.49C157.34,279.524,157.339,280.535,157.339,281.608Zm-26.861-6.5h1.013c1.25,0,2.5-.021,3.749.013a1.162,1.162,0,1,1-.018,2.325c-.207.014-.416.006-.625.006-2.057,0-4.114-.014-6.171.018-.274,0-.772.236-.779.381-.062,1.259-.036,2.521-.036,3.75H155c0-1.1-.036-2.139.012-3.177.035-.739-.2-.994-.972-.987-4.218.034-8.436.016-12.655.016a5.861,5.861,0,0,1-.78-.017,1.077,1.077,0,0,1-1.029-1.081,1.1,1.1,0,0,1,.969-1.218,3.266,3.266,0,0,1,.7-.026q5.078,0,10.155,0c.274,0,.549-.022.864-.036,0-.449,0-.81,0-1.172,0-1.125,0-1.126-1.127-1.126H132.386c-2.179,0-2.179,0-1.99,2.168A1.01,1.01,0,0,0,130.478,275.106Zm10.865-33.93c-1.51,0-3.021.021-4.531-.011-.6-.013-.832.161-.826.792q.038,4.452,0,8.905c-.005.628.234.8.83.8q4.492-.032,8.984,0c.594,0,.845-.18.84-.8q-.03-4.452,0-8.905c0-.637-.261-.8-.846-.785C144.312,241.2,142.827,241.176,141.343,241.176Zm-.086,22.836c1.612,0,3.224.01,4.836,0a2.652,2.652,0,1,0,.05-5.3q-4.836-.035-9.673,0a2.653,2.653,0,1,0,.028,5.3C138.084,264.022,139.671,264.011,141.257,264.012Zm.051-29.9c1.612,0,3.225.036,4.835-.01a2.644,2.644,0,0,0,2.7-2.724,2.609,2.609,0,0,0-2.754-2.576c-3.2-.025-6.4-.042-9.592.024a3.514,3.514,0,0,0-1.841.667,2.473,2.473,0,0,0-.765,2.819,2.666,2.666,0,0,0,2.579,1.794C138.083,234.14,139.7,234.114,141.308,234.112Zm19.937,10.839v2.9H169.1v-2.9Zm-23.9-8.449v2.277h7.878V236.5Zm7.878,19.816v-2.257h-7.879v2.257Zm13.572-7.18v-5.408h-2.541v5.408ZM149,247.854h4.787v-2.88H149Z" transform="translate(0 0)" fill="#0d2380"/>
    <path id="Trazado_187737" data-name="Trazado 187737" d="M290.458,251.211a12.124,12.124,0,1,1-12.034-12.189A12.137,12.137,0,0,1,290.458,251.211Zm-12.1-9.847a9.787,9.787,0,1,0,9.758,9.8A9.778,9.778,0,0,0,278.356,241.364Z" transform="translate(-111.599 -27.725)" fill="#0d2380"/>
    <path id="Trazado_187738" data-name="Trazado 187738" d="M308.952,506.263c-3.459,0-6.919.013-10.378-.017a1.827,1.827,0,0,1-1.186-.4,1.292,1.292,0,0,1-.24-1.12c.11-.323.538-.579.879-.767a1.745,1.745,0,0,1,.769-.041h20.365c.1,0,.208,0,.312,0,.908.015,1.45.452,1.454,1.168s-.536,1.172-1.442,1.173Q314.218,506.268,308.952,506.263Z" transform="translate(-136.058 -237.42)" fill="#0d2380"/>
    <path id="Trazado_187739" data-name="Trazado 187739" d="M308.79,451.6H298.646a5,5,0,0,1-.7-.014,1.086,1.086,0,0,1-1.042-1.068,1.1,1.1,0,0,1,.95-1.23,3.019,3.019,0,0,1,.7-.03q10.261,0,20.522,0a4.037,4.037,0,0,1,.623.015,1.145,1.145,0,0,1,1.061,1.154,1.131,1.131,0,0,1-1.122,1.163c-.544.033-1.092.012-1.638.012Z" transform="translate(-135.894 -194.161)" fill="#0d2380"/>
    <path id="Trazado_187740" data-name="Trazado 187740" d="M304.242,531.417c1.977,0,3.954-.009,5.931.005.832.006,1.3.424,1.328,1.109.026.718-.455,1.169-1.312,1.223-.207.013-.416.006-.624.006H298.873c-.182,0-.364,0-.546,0-.951-.032-1.435-.427-1.44-1.171s.472-1.163,1.424-1.167C300.288,531.41,302.265,531.417,304.242,531.417Z" transform="translate(-135.885 -259.203)" fill="#0d2380"/>
    <path id="Trazado_187741" data-name="Trazado 187741" d="M353.674,479.005c-1.8,0-3.591.016-5.387-.007-.976-.013-1.526-.681-1.283-1.5.21-.708.774-.836,1.416-.835q4.138.005,8.275,0c.729,0,1.457-.008,2.186,0,.975.013,1.518.452,1.5,1.194-.019.715-.545,1.138-1.476,1.144C357.161,479.013,355.418,479.006,353.674,479.005Z" transform="translate(-175.516 -215.856)" fill="#0d2380"/>
    <path id="Trazado_187742" data-name="Trazado 187742" d="M301.215,476.661c1.014,0,2.028-.017,3.041.006.826.019,1.292.446,1.307,1.134.015.718-.47,1.186-1.33,1.194q-3,.028-6,0c-.879-.008-1.347-.45-1.341-1.179s.469-1.134,1.365-1.151C299.239,476.646,300.227,476.66,301.215,476.661Z" transform="translate(-135.885 -215.852)" fill="#0d2380"/>
    <path id="Trazado_187743" data-name="Trazado 187743" d="M377.219,531.412c.884,0,1.769-.014,2.653,0,.807.016,1.3.457,1.319,1.128a1.164,1.164,0,0,1-1.263,1.193q-2.73.043-5.461,0a1.161,1.161,0,1,1,.022-2.317C375.4,531.4,376.309,531.412,377.219,531.412Z" transform="translate(-196.327 -259.196)" fill="#0d2380"/>
    <path id="Trazado_187744" data-name="Trazado 187744" d="M303.454,285.228c1.64-1.644,3.1-3.127,4.586-4.576a1.721,1.721,0,0,1,1.041-.57,1.581,1.581,0,0,1,1.051.624,1.045,1.045,0,0,1-.259,1.4q-1.568,1.576-3.139,3.148c-.735.736-1.461,1.48-2.209,2.2a1.191,1.191,0,0,1-1.957.018q-1.7-1.666-3.364-3.365a1.157,1.157,0,0,1-.107-1.732,1.178,1.178,0,0,1,1.734.06c.458.424.9.868,1.325,1.322S302.981,284.692,303.454,285.228Z" transform="translate(-137.366 -60.232)" fill="#0d2380"/>
  </g>
</svg>
