<svg xmlns="http://www.w3.org/2000/svg" width="85" height="72.676" viewBox="0 0 85 72.676">
  <g id="Content_Analytics" transform="translate(-2.798 -12.18)">
    <g id="Grupo_127993" data-name="Grupo 127993" transform="translate(2.798 12.18)">
      <g id="Grupo_127945" data-name="Grupo 127945" transform="translate(1.706 13.267)">
        <g id="Grupo_127940" data-name="Grupo 127940" transform="translate(0 0)">
          <path id="Trazado_188209" data-name="Trazado 188209" d="M6.588,32.377H9.459v6.016H6.588A1.2,1.2,0,0,1,5.4,37.2V33.569a1.2,1.2,0,0,1,1.191-1.191Z" transform="translate(-5.396 -32.377)" fill="#fc502d"/>
        </g>
        <g id="Grupo_127941" data-name="Grupo 127941" transform="translate(4.063)">
          <path id="Trazado_188210" data-name="Trazado 188210" d="M11.581,32.377h3.705v6.016H11.581Z" transform="translate(-11.581 -32.377)" fill="#f3fcff"/>
        </g>
        <g id="Grupo_127942" data-name="Grupo 127942" transform="translate(7.765 0.001)">
          <path id="Trazado_188211" data-name="Trazado 188211" d="M92.416,35.381,84.77,38.4H17.218V32.379H84.77Z" transform="translate(-17.218 -32.379)" fill="#fff2bf"/>
        </g>
        <g id="Grupo_127943" data-name="Grupo 127943" transform="translate(7.765 0.001)">
          <path id="Trazado_188212" data-name="Trazado 188212" d="M92.416,35.381l-3.823,1.511L84.77,35.381H17.218v-3H84.77Z" transform="translate(-17.218 -32.379)" fill="#fff2bf"/>
        </g>
        <g id="Grupo_127944" data-name="Grupo 127944" transform="translate(75.318 0.003)">
          <path id="Trazado_188213" data-name="Trazado 188213" d="M120.058,32.382l7.644,3.005-7.644,3.005Z" transform="translate(-120.058 -32.382)" fill="#ffd01a"/>
        </g>
      </g>
      <g id="Grupo_127958" data-name="Grupo 127958" transform="translate(2.26 19.262)">
        <g id="Grupo_127946" data-name="Grupo 127946" transform="translate(3.951 0.005)">
          <path id="Trazado_188214" data-name="Trazado 188214" d="M84.564,44.15V89.357H12.253V44.15a2.65,2.65,0,0,1,2.654-2.639H81.926a2.638,2.638,0,0,1,2.639,2.639Z" transform="translate(-12.253 -41.511)" fill="#76819f"/>
        </g>
        <g id="Grupo_127947" data-name="Grupo 127947" transform="translate(3.95 0.113)" opacity="0.05">
          <path id="Trazado_188215" data-name="Trazado 188215" d="M84.563,44.213v45.2H12.252V87.622H40.981A41.564,41.564,0,0,0,63.54,81.013l.058-.037a43,43,0,0,0,4.854-3.655c.6-.534,1.192-1.075,1.769-1.637C77.962,68.1,82.772,54.11,82.772,42.414a2.437,2.437,0,0,0-.11-.738,2.636,2.636,0,0,1,1.9,2.537Z" transform="translate(-12.252 -41.676)"/>
        </g>
        <g id="Grupo_127948" data-name="Grupo 127948" transform="translate(3.951 0)" opacity="0.4">
          <path id="Trazado_188216" data-name="Trazado 188216" d="M84.564,44.156v1.558a2.644,2.644,0,0,0-2.644-2.644H14.9a2.644,2.644,0,0,0-2.644,2.644V44.156A2.651,2.651,0,0,1,14.9,41.5H81.921A2.651,2.651,0,0,1,84.564,44.156Z" transform="translate(-12.254 -41.503)" fill="#fff"/>
        </g>
        <g id="Grupo_127949" data-name="Grupo 127949" transform="translate(7.481 3.536)">
          <path id="Trazado_188217" data-name="Trazado 188217" d="M17.628,46.886H82.885V87.678H17.628Z" transform="translate(-17.628 -46.886)" fill="#fff"/>
        </g>
        <g id="Grupo_127950" data-name="Grupo 127950" transform="translate(7.476 41.924)" opacity="0.03">
          <path id="Trazado_188218" data-name="Trazado 188218" d="M17.62,105.328H82.881v2.4H17.62Z" transform="translate(-17.62 -105.328)"/>
        </g>
        <g id="Grupo_127953" data-name="Grupo 127953" transform="translate(16.519 3.534)" opacity="0.5">
          <g id="Grupo_127951" data-name="Grupo 127951">
            <path id="Trazado_188219" data-name="Trazado 188219" d="M72.109,46.883,48.966,87.677H31.387L54.53,46.883Z" transform="translate(-31.387 -46.883)" fill="#d4f4ff"/>
          </g>
          <g id="Grupo_127952" data-name="Grupo 127952" transform="translate(19.804)">
            <path id="Trazado_188220" data-name="Trazado 188220" d="M88.907,46.883,65.765,87.677H61.537L84.679,46.883Z" transform="translate(-61.537 -46.883)" fill="#d4f4ff"/>
          </g>
        </g>
        <g id="Grupo_127954" data-name="Grupo 127954" transform="translate(0.003 47.851)">
          <path id="Trazado_188221" data-name="Trazado 188221" d="M86.458,114.351v2.566a2.671,2.671,0,0,1-2.675,2.668H8.912a2.2,2.2,0,0,1-.314-.022A2.658,2.658,0,0,1,6.573,118.2a.007.007,0,0,1-.007-.007,2.67,2.67,0,0,1-.322-1.272v-2.566Z" transform="translate(-6.244 -114.351)" fill="#76819f"/>
        </g>
        <g id="Grupo_127955" data-name="Grupo 127955" transform="translate(0 48.485)" opacity="0.1">
          <path id="Trazado_188222" data-name="Trazado 188222" d="M86.453,115.315v1.931a2.667,2.667,0,0,1-2.67,2.67H8.909a2.672,2.672,0,0,1-2.67-2.67v-1.931a2.672,2.672,0,0,0,2.67,2.67H83.782A2.667,2.667,0,0,0,86.453,115.315Z" transform="translate(-6.239 -115.315)"/>
        </g>
        <g id="Grupo_127956" data-name="Grupo 127956" transform="translate(31.412 47.852)">
          <path id="Trazado_188223" data-name="Trazado 188223" d="M71.452,114.352h0a2.928,2.928,0,0,1-2.928,2.928H56.988a2.928,2.928,0,0,1-2.928-2.928H71.452Z" transform="translate(-54.06 -114.352)" fill="#a3acbf"/>
        </g>
        <g id="Grupo_127957" data-name="Grupo 127957" transform="translate(31.41 47.852)" opacity="0.4">
          <path id="Trazado_188224" data-name="Trazado 188224" d="M71.449,114.352a2.956,2.956,0,0,1-.24,1.157H54.3a2.957,2.957,0,0,1-.24-1.157Z" transform="translate(-54.057 -114.352)" fill="#fff"/>
        </g>
      </g>
      <g id="Grupo_127969" data-name="Grupo 127969" transform="translate(17.018 0.327)">
        <g id="Grupo_127968" data-name="Grupo 127968">
          <g id="Grupo_127959" data-name="Grupo 127959" transform="translate(40.239 0.002)">
            <path id="Trazado_188225" data-name="Trazado 188225" d="M100.362,23.077H91.6a1.636,1.636,0,0,1-1.636-1.636V12.68Z" transform="translate(-89.964 -12.68)" fill="#d4f4ff"/>
          </g>
          <g id="Grupo_127960" data-name="Grupo 127960" transform="translate(40.239 0.002)">
            <path id="Trazado_188226" data-name="Trazado 188226" d="M100.362,23.077l-1.645-1.645h0a7.107,7.107,0,0,1-7.107-7.107h0L89.964,12.68v8.762A1.636,1.636,0,0,0,91.6,23.078Z" transform="translate(-89.964 -12.68)" fill="#f3fcff"/>
          </g>
          <g id="Grupo_127961" data-name="Grupo 127961">
            <path id="Trazado_188227" data-name="Trazado 188227" d="M28.706,14.316V74.3a1.634,1.634,0,0,0,1.639,1.632H77.639A1.634,1.634,0,0,0,79.278,74.3V23.074H70.512a1.628,1.628,0,0,1-1.632-1.632V12.677H30.345a1.64,1.64,0,0,0-1.639,1.639Z" transform="translate(-28.706 -12.677)" fill="#fff"/>
          </g>
          <g id="Grupo_127962" data-name="Grupo 127962" transform="translate(4.37 8.976)">
            <path id="Trazado_188228" data-name="Trazado 188228" d="M35.358,26.343H54.007V39.835H35.358Z" transform="translate(-35.358 -26.343)" fill="#fc502d"/>
          </g>
          <g id="Grupo_127963" data-name="Grupo 127963" transform="translate(4.37 8.977)">
            <path id="Trazado_188229" data-name="Trazado 188229" d="M54.007,26.343v1.622H36.981v11.87H35.358V26.343Z" transform="translate(-35.358 -26.343)" fill="#fc6868"/>
          </g>
          <g id="Grupo_127964" data-name="Grupo 127964" transform="translate(0.066 0.001)">
            <path id="Trazado_188230" data-name="Trazado 188230" d="M79.377,74.3H77.562c-27.378,0-47.118-22.194-47.118-49.572V12.68h0a1.636,1.636,0,0,0-1.636,1.636V74.3a1.636,1.636,0,0,0,1.636,1.636h47.3A1.636,1.636,0,0,0,79.377,74.3Z" transform="translate(-28.807 -12.68)" fill="#f3fcff"/>
          </g>
          <g id="Grupo_127965" data-name="Grupo 127965" transform="translate(0.064 0.003)">
            <path id="Trazado_188231" data-name="Trazado 188231" d="M28.8,14.32V74.3a1.64,1.64,0,0,0,1.639,1.639H77.737A1.64,1.64,0,0,0,79.375,74.3H77.56c-27.376,0-47.118-22.192-47.118-49.569V12.681A1.64,1.64,0,0,0,28.8,14.32Z" transform="translate(-28.804 -12.681)" fill="#f3fcff"/>
          </g>
          <g id="Grupo_127966" data-name="Grupo 127966" transform="translate(4.37 30.612)">
            <path id="Trazado_188232" data-name="Trazado 188232" d="M76.866,60.595V71.121a1.314,1.314,0,0,1-1.314,1.314H36.672a1.314,1.314,0,0,1-1.314-1.314V60.595a1.314,1.314,0,0,1,1.314-1.314h38.88A1.314,1.314,0,0,1,76.866,60.595Z" transform="translate(-35.358 -59.281)" fill="#d4f4ff"/>
          </g>
          <g id="Grupo_127967" data-name="Grupo 127967" transform="translate(4.37 30.614)">
            <path id="Trazado_188233" data-name="Trazado 188233" d="M76.866,60.6v.427H38.419a1.313,1.313,0,0,0-1.314,1.314v10.1h-.434a1.313,1.313,0,0,1-1.314-1.314V60.6a1.313,1.313,0,0,1,1.314-1.314h38.88A1.313,1.313,0,0,1,76.866,60.6Z" transform="translate(-35.358 -59.283)" fill="#f3fcff"/>
          </g>
        </g>
      </g>
      <g id="Grupo_127980" data-name="Grupo 127980" transform="translate(26.416 32.716)">
        <g id="Grupo_127970" data-name="Grupo 127970" transform="translate(0.001 3.516)">
          <path id="Trazado_188234" data-name="Trazado 188234" d="M45.971,67.69v7.157a.352.352,0,0,1-.352.352H43.366a.352.352,0,0,1-.352-.352V67.69a.352.352,0,0,1,.352-.352H45.62A.352.352,0,0,1,45.971,67.69Z" transform="translate(-43.014 -67.339)" fill="#fc502d"/>
        </g>
        <g id="Grupo_127971" data-name="Grupo 127971" transform="translate(0 3.516)">
          <path id="Trazado_188235" data-name="Trazado 188235" d="M44.441,75.2H43.365a.348.348,0,0,1-.352-.352V67.689a.348.348,0,0,1,.352-.352h1.076a.353.353,0,0,0-.352.352v7.158A.353.353,0,0,0,44.441,75.2Z" transform="translate(-43.013 -67.338)" fill="#fc6868"/>
        </g>
        <g id="Grupo_127972" data-name="Grupo 127972" transform="translate(7.237 0.001)">
          <path id="Trazado_188236" data-name="Trazado 188236" d="M56.988,62.338V73.011a.352.352,0,0,1-.352.352H54.383a.352.352,0,0,1-.352-.352V62.338a.352.352,0,0,1,.352-.352h2.254a.352.352,0,0,1,.352.352Z" transform="translate(-54.031 -61.987)" fill="#00ffc1"/>
        </g>
        <g id="Grupo_127973" data-name="Grupo 127973" transform="translate(7.235)" opacity="0.5">
          <path id="Trazado_188237" data-name="Trazado 188237" d="M55.455,73.362H54.379a.353.353,0,0,1-.352-.352V62.337a.353.353,0,0,1,.352-.352h1.076a.353.353,0,0,0-.352.352V73.011A.353.353,0,0,0,55.455,73.362Z" transform="translate(-54.028 -61.986)" fill="#fff"/>
        </g>
        <g id="Grupo_127974" data-name="Grupo 127974" transform="translate(14.477 3.516)">
          <path id="Trazado_188238" data-name="Trazado 188238" d="M68.006,67.689v7.158a.348.348,0,0,1-.352.352H65.4a.339.339,0,0,1-.246-.1.4.4,0,0,1-.077-.112.315.315,0,0,1-.028-.141V67.689a.348.348,0,0,1,.352-.352h2.25a.348.348,0,0,1,.352.352Z" transform="translate(-65.053 -67.338)" fill="#ffe93e"/>
        </g>
        <g id="Grupo_127975" data-name="Grupo 127975" transform="translate(14.477 3.516)">
          <path id="Trazado_188239" data-name="Trazado 188239" d="M66.481,75.2H65.4a.339.339,0,0,1-.246-.1.4.4,0,0,1-.077-.112.315.315,0,0,1-.028-.141V67.689a.348.348,0,0,1,.352-.352h.724v7.509a.353.353,0,0,0,.352.352Z" transform="translate(-65.053 -67.338)" fill="#ffff9a"/>
        </g>
        <g id="Grupo_127976" data-name="Grupo 127976" transform="translate(21.711 0.001)">
          <path id="Trazado_188240" data-name="Trazado 188240" d="M79.022,62.338V73.011a.352.352,0,0,1-.352.352H76.417a.352.352,0,0,1-.352-.352V62.338a.352.352,0,0,1,.352-.352H78.67a.352.352,0,0,1,.352.352Z" transform="translate(-76.065 -61.987)" fill="#76819f"/>
        </g>
        <g id="Grupo_127977" data-name="Grupo 127977" transform="translate(21.711)" opacity="0.5">
          <path id="Trazado_188241" data-name="Trazado 188241" d="M77.492,73.362H76.417a.353.353,0,0,1-.352-.352V62.337a.353.353,0,0,1,.352-.352h1.076a.353.353,0,0,0-.352.352V73.011A.353.353,0,0,0,77.492,73.362Z" transform="translate(-76.065 -61.986)" fill="#fff"/>
        </g>
        <g id="Grupo_127978" data-name="Grupo 127978" transform="translate(28.947 3.516)">
          <path id="Trazado_188242" data-name="Trazado 188242" d="M90.039,67.69v7.157a.352.352,0,0,1-.352.352H87.434a.352.352,0,0,1-.352-.352V67.69a.352.352,0,0,1,.352-.352h2.254A.352.352,0,0,1,90.039,67.69Z" transform="translate(-87.082 -67.339)" fill="#fff2bf"/>
        </g>
        <g id="Grupo_127979" data-name="Grupo 127979" transform="translate(28.953 3.516)" opacity="0.3">
          <path id="Trazado_188243" data-name="Trazado 188243" d="M88.518,75.2H87.442a.339.339,0,0,1-.246-.1.4.4,0,0,1-.077-.112.315.315,0,0,1-.028-.141V67.689a.348.348,0,0,1,.352-.352h.724v7.509a.353.353,0,0,0,.352.352Z" transform="translate(-87.09 -67.338)" fill="#fff"/>
        </g>
      </g>
      <g id="Grupo_127989" data-name="Grupo 127989">
        <g id="Grupo_127981" data-name="Grupo 127981" transform="translate(50.76 47.73)">
          <path id="Trazado_188244" data-name="Trazado 188244" d="M0,0H2.528V4.062H0Z" transform="translate(0 1.787) rotate(-45)" fill="#8f8f8f"/>
        </g>
        <g id="Grupo_127982" data-name="Grupo 127982" transform="translate(28.178 25.147)">
          <path id="Trazado_188245" data-name="Trazado 188245" d="M69.8,54.589a14.121,14.121,0,1,0-.006,19.973A14.031,14.031,0,0,0,69.8,54.589ZM59.124,75.415c-.117,0-.234-.012-.351-.023A10.871,10.871,0,1,1,70.63,63.536a11.106,11.106,0,0,1,.035,1.391,10.841,10.841,0,0,1-10.5,10.506,8.825,8.825,0,0,1-1.04-.018Z" transform="translate(-45.696 -50.463)" fill="#d3d3d3"/>
        </g>
        <g id="Grupo_127983" data-name="Grupo 127983" transform="translate(31.881 28.774)" opacity="0.05">
          <path id="Trazado_188246" data-name="Trazado 188246" d="M71.735,56.484c-.173-.173-.347-.338-.524-.5A14.119,14.119,0,0,1,51.333,76c.136.153.281.305.429.454A14.12,14.12,0,1,0,71.735,56.484Z" transform="translate(-51.333 -55.985)"/>
        </g>
        <g id="Grupo_127984" data-name="Grupo 127984" transform="translate(28.179 25.148)" opacity="0.5">
          <path id="Trazado_188247" data-name="Trazado 188247" d="M69.8,54.59A14.12,14.12,0,0,0,49.828,74.555q.254.254.52.5a14.12,14.12,0,0,1,19.87-20.018c-.132-.149-.272-.3-.417-.441Z" transform="translate(-45.697 -50.465)" fill="#ededed"/>
        </g>
        <g id="Grupo_127985" data-name="Grupo 127985" transform="translate(51.981 48.951)">
          <path id="Trazado_188248" data-name="Trazado 188248" d="M96.211,98.5l-2.476,2.476a1.2,1.2,0,0,1-1.7,0l-9.748-9.748a1.2,1.2,0,0,1-.039-1.657.28.28,0,0,1,.039-.045l2.476-2.476a1.2,1.2,0,0,1,1.7,0L96.211,96.8c.013.013.026.032.039.045A1.2,1.2,0,0,1,96.211,98.5Z" transform="translate(-81.933 -86.702)" fill="#d3d3d3"/>
        </g>
        <g id="Grupo_127986" data-name="Grupo 127986" transform="translate(51.979 48.949)" opacity="0.5">
          <path id="Trazado_188249" data-name="Trazado 188249" d="M93.747,100.965l-.013.013a1.2,1.2,0,0,1-1.7,0L82.285,91.23a1.191,1.191,0,0,1-.039-1.655.286.286,0,0,1,.039-.046l2.476-2.476a1.2,1.2,0,0,1,1.7,0l.2.2L84.2,89.713a.287.287,0,0,0-.039.046,1.19,1.19,0,0,0,.039,1.655Z" transform="translate(-81.929 -86.698)" fill="#e0e0e0"/>
        </g>
        <g id="Grupo_127988" data-name="Grupo 127988">
          <g id="Grupo_127987" data-name="Grupo 127987" transform="translate(1.374)">
            <path id="Trazado_188250" data-name="Trazado 188250" d="M90.592,12.612l.18.18Z" transform="translate(-34.297 -12.328)" fill="#384b7d"/>
            <path id="Trazado_188251" data-name="Trazado 188251" d="M90.576,12.6l.011.011Z" transform="translate(-34.291 -12.323)" fill="#384b7d"/>
            <path id="Trazado_188252" data-name="Trazado 188252" d="M90.526,12.546l-.1-.1.045.045,0,0Z" transform="translate(-34.242 -12.273)" fill="#384b7d"/>
            <path id="Trazado_188253" data-name="Trazado 188253" d="M90.4,12.422,90.38,12.4h0Z" transform="translate(-34.224 -12.255)" fill="#384b7d"/>
            <path id="Trazado_188254" data-name="Trazado 188254" d="M88.306,28.149,80.794,25.2a.724.724,0,0,0-.253-.079H71.5V22.907a.327.327,0,0,0-.092-.23l-10-9.995-.012-.012-.027-.027.014.014-.25-.25,0,0-.078-.078h0l-.039-.046L61,12.272a.428.428,0,0,0-.1-.066.258.258,0,0,0-.118-.026H22.238a1.965,1.965,0,0,0-1.964,1.964V25.12H6.407A1.522,1.522,0,0,0,4.89,26.638V30.27a1.518,1.518,0,0,0,1.517,1.517l4.079.007a2.972,2.972,0,0,0-1.09,2.3V78.964H5.777a.329.329,0,0,0-.328.328v2.562A3,3,0,0,0,6.578,84.2H5.343a.328.328,0,0,0,0,.657H86.295a.328.328,0,0,0,0-.657h-1.1a3,3,0,0,0,1.13-2.345V79.292a.334.334,0,0,0-.328-.328H82.367V34.093a2.966,2.966,0,0,0-1.333-2.476c4.343-1.706,7.251-2.844,7.318-2.877a.328.328,0,0,0-.046-.591ZM8.956,31.131H6.407a.863.863,0,0,1-.86-.861V26.638a.863.863,0,0,1,.86-.861H8.956ZM71.5,25.777h8.717v2.338H71.5Zm0,3.008h8.717v2.345c-.629-.016-8.65-.013-8.717-.013Zm0,45.344V35.3h6.687V75.437H70.991a1.931,1.931,0,0,0,.506-1.307ZM61.1,13.3l9.282,9.275H62.405A1.311,1.311,0,0,1,61.1,21.271V13.3Zm-40.168.841a1.306,1.306,0,0,1,1.307-1.307h38.2v8.434a1.969,1.969,0,0,0,1.964,1.964H70.84V74.129a1.306,1.306,0,0,1-1.307,1.307h-1.8l2.273-2.273a1.511,1.511,0,0,0,.046-2.109c-.071-.082.3.29-3.56-3.567a.339.339,0,0,0,.25-.322.334.334,0,0,0-.328-.328h-.571L63.273,64.27h3.14a.328.328,0,1,0,0-.657h-3.8l-2.358-2.358a1.534,1.534,0,0,0-2.168,0l-.105.105-.591-.591h9.019a.329.329,0,0,0,.328-.328.334.334,0,0,0-.328-.328H57.346A14.319,14.319,0,0,0,59.305,56.6h5.472a.329.329,0,0,0,.328-.328.325.325,0,0,0-.328-.328H62.162V48.761a.676.676,0,0,0-.677-.677H59.863a14.447,14.447,0,0,0-28.1,0H30.285a.681.681,0,0,0-.683.677v7.186H26.994a.325.325,0,0,0-.328.328.329.329,0,0,0,.328.328h5.327a14.437,14.437,0,0,0,22.516,6.107l.9.9-.168.168a1.507,1.507,0,0,0,.046,2.109l.946.946H24.9a.329.329,0,0,0-.328.328.325.325,0,0,0,.328.328H57.223l2.844,2.844H24.9a.328.328,0,1,0,0,.657H60.724l4.44,4.44H22.238a1.306,1.306,0,0,1-1.307-1.307V14.144ZM60.849,63.613a.2.2,0,0,0-.033-.046.337.337,0,0,0-.466,0l-3.068,3.068-1.2-1.2a.872.872,0,0,1-.059-1.163c.035-.071,2.591-2.611,2.536-2.555a.88.88,0,0,1,1.241,0c9.671,9.682.686.687,9.774,9.787a.869.869,0,0,1-.026,1.2L67.069,75.18a.88.88,0,0,1-1.241,0L57.748,67.1l3.068-3.068a.329.329,0,0,0,.033-.42ZM32.091,55.941l-1.833-.02.026-7.18h1.333a14.486,14.486,0,0,0,.473,7.2ZM45.117,37.673C57.7,36.992,64.44,52.317,55.561,61.2a13.8,13.8,0,0,1-19.5-.007c-8.515-8.515-2.731-22.949,9.058-23.516ZM60.008,48.741h1.478a.017.017,0,0,1,.02.02l-.02,7.186-1.944-.02A14.59,14.59,0,0,0,60.008,48.741ZM56.027,61.655c.224-.224.422-.464.628-.7l.869.869-1.32,1.324-.869-.869C55.569,62.076,55.806,61.876,56.027,61.655ZM20.78,75.437H13.587V35.3h6.687V74.129a1.931,1.931,0,0,0,.506,1.307ZM13.318,25.777h6.956v2.338H13.318Zm0,3h6.956v2.345H13.318Zm-3.7,2.365v-5.36h1.2v2.672h.657V25.777h1.2v5.34l-3.048.02ZM85.665,79.621v2.233A2.346,2.346,0,0,1,83.321,84.2H8.45a2.346,2.346,0,0,1-2.344-2.345V79.621H36.88a3.253,3.253,0,0,0,3.238,2.93H51.653a3.262,3.262,0,0,0,3.238-2.93H85.665Zm-48.129,0h16.7a2.609,2.609,0,0,1-2.581,2.273H40.118a2.609,2.609,0,0,1-2.581-2.273ZM81.711,34.093V78.964H10.053V34.093a2.321,2.321,0,0,1,2.036-2.3l8.185-.007v2.857H13.259a.329.329,0,0,0-.328.328V75.765a.325.325,0,0,0,.328.328H78.512a.325.325,0,0,0,.328-.328V34.973a.329.329,0,0,0-.328-.328H71.5V31.788h8.132a2.317,2.317,0,0,1,2.082,2.306Zm2.8-4.552L80.87,30.973V25.935l3.639,1.432Z" transform="translate(-4.89 -12.18)" fill="#12263f"/>
          </g>
          <path id="Trazado_188255" data-name="Trazado 188255" d="M3.312,121.82H3.127a.328.328,0,0,0,0,.657h.185a.328.328,0,0,0,0-.657Z" transform="translate(-2.798 -49.801)" fill="#384b7d"/>
          <path id="Trazado_188256" data-name="Trazado 188256" d="M130.962,121.82h-.315a.328.328,0,0,0,0,.657h.315a.328.328,0,0,0,0-.657Z" transform="translate(-46.554 -49.801)" fill="#384b7d"/>
          <path id="Trazado_188257" data-name="Trazado 188257" d="M35.189,20.747h31.4a.325.325,0,0,0,.328-.328.329.329,0,0,0-.328-.328h-31.4a.329.329,0,0,0-.328.328A.325.325,0,0,0,35.189,20.747Z" transform="translate(-13.8 -14.894)" fill="#12263f"/>
          <path id="Trazado_188258" data-name="Trazado 188258" d="M35.189,39.989H53.837a.329.329,0,0,0,.328-.328V26.169a.334.334,0,0,0-.328-.328H35.189a.329.329,0,0,0-.328.328V39.661A.325.325,0,0,0,35.189,39.989ZM35.517,26.5H53.509V39.332H35.517Z" transform="translate(-13.8 -16.867)" fill="#12263f"/>
          <path id="Trazado_188259" data-name="Trazado 188259" d="M67.491,26.858a.325.325,0,0,0,.328.328H79.6a.328.328,0,1,0,0-.657H67.819A.325.325,0,0,0,67.491,26.858Z" transform="translate(-24.996 -17.104)" fill="#12263f"/>
          <path id="Trazado_188260" data-name="Trazado 188260" d="M67.5,31.746a.329.329,0,0,0,.322.4H87.892a.329.329,0,0,0,.328-.328.269.269,0,0,0-.007-.072.337.337,0,0,0-.322-.256H67.818A.331.331,0,0,0,67.5,31.746Z" transform="translate(-24.995 -18.806)" fill="#12263f"/>
          <path id="Trazado_188261" data-name="Trazado 188261" d="M87.893,36.46H67.819a.325.325,0,0,0-.328.328.329.329,0,0,0,.328.328H87.893a.224.224,0,0,0,.066-.007c.007,0,.013-.007.02-.007a.337.337,0,0,0,.243-.315A.329.329,0,0,0,87.893,36.46Z" transform="translate(-24.996 -20.511)" fill="#12263f"/>
          <path id="Trazado_188262" data-name="Trazado 188262" d="M87.893,41.42H67.819a.329.329,0,0,0-.328.328.323.323,0,0,0,.328.328H87.893a.33.33,0,0,0,.322-.256v-.013a.182.182,0,0,0,.007-.059A.334.334,0,0,0,87.893,41.42Z" transform="translate(-24.996 -22.213)" fill="#12263f"/>
          <path id="Trazado_188263" data-name="Trazado 188263" d="M87.893,46.39H67.819a.325.325,0,0,0-.328.328.33.33,0,0,0,.328.328H87.893a.225.225,0,0,0,.066-.007.337.337,0,0,0,.263-.322A.329.329,0,0,0,87.893,46.39Z" transform="translate(-24.996 -23.919)" fill="#12263f"/>
          <path id="Trazado_188264" data-name="Trazado 188264" d="M61.291,77.3A11.2,11.2,0,0,0,72.523,66.464a10.915,10.915,0,0,0-.417-3.429c-.022-.079-.051-.155-.075-.233A11.182,11.182,0,0,0,61.35,54.91h-.007A11.03,11.03,0,0,0,50.151,66.1,10.885,10.885,0,0,0,61.291,77.3Zm-8.92-16.708V70.609h-.545a10.312,10.312,0,0,1-1.016-4.471,10.547,10.547,0,0,1,1.562-5.55Zm2.088-2.461.021-.018H68.2a9.083,9.083,0,0,1,1.131,1.123H67.525a.681.681,0,0,0-.683.677v10.7H63.222V63.423a.681.681,0,0,0-.683-.677H60.286a.676.676,0,0,0-.677.677v7.186H55.983v-10.7a.676.676,0,0,0-.677-.677H53.359a9.667,9.667,0,0,1,1.1-1.105Zm.874-.683a10.64,10.64,0,0,1,6.027-1.876l.072,0a10.449,10.449,0,0,1,5.924,1.882H55.322l.011-.008Zm16.534,8.994a10.831,10.831,0,0,1-1.014,4.171h-.391v-9.8a10.4,10.4,0,0,1,1.406,5.627Zm-10.7,10.2-.1,0a10.516,10.516,0,0,1-8.9-5.368H70.521a10.512,10.512,0,0,1-9.354,5.371Zm-8.138-6.054.026-10.694h2.253a.017.017,0,0,1,.02.02l-.02,10.7Zm7.239,0,.02-7.18h2.253c.013,0,.026.007.026.02l-.026,7.186Zm7.232,0,.026-10.694h2.253c.013,0,.026.007.026.02l-.026,10.7Z" transform="translate(-19.046 -26.842)" fill="#12263f"/>
        </g>
      </g>
      <g id="Grupo_127990" data-name="Grupo 127990" transform="translate(31.761 28.725)" opacity="0.5">
        <path id="Trazado_188265" data-name="Trazado 188265" d="M72.21,66.781A10.478,10.478,0,0,1,69.136,73.9l-.013.013a10.617,10.617,0,0,1-1.241,1.064,10.466,10.466,0,0,1-5.853,2c-.131,0-.263.007-.394.007-.2,0-.407-.007-.611-.026-.131,0-.237-.013-.342-.02a10.416,10.416,0,0,1-3.764-1.1h-.007a10.588,10.588,0,0,1-2.68-1.944,10.567,10.567,0,0,1-1.649-12.77,10.916,10.916,0,0,1,1.649-2.135,10.5,10.5,0,0,1,6.825-3.054c.223-.02.44-.026.663-.026.184,0,.368.007.552.013h.007a10.166,10.166,0,0,1,1.616.217,10.021,10.021,0,0,1,2.555.9,10.2,10.2,0,0,1,2.687,1.944,10.522,10.522,0,0,1,3.041,6.45,11.555,11.555,0,0,1,.033,1.347Z" transform="translate(-51.151 -55.91)" fill="#f3fcff"/>
      </g>
      <g id="Grupo_127991" data-name="Grupo 127991" transform="translate(44.504 28.955)" opacity="0.3">
        <path id="Trazado_188266" data-name="Trazado 188266" d="M77.441,71.88a10.54,10.54,0,0,1-1.649,2.135l-.013.013L70.551,56.26a10.021,10.021,0,0,1,2.555.9Z" transform="translate(-70.551 -56.26)" fill="#d4f4ff"/>
      </g>
      <g id="Grupo_127992" data-name="Grupo 127992" transform="translate(33.193 28.725)" opacity="0.3">
        <path id="Trazado_188267" data-name="Trazado 188267" d="M68.629,74.972a10.466,10.466,0,0,1-5.853,2c-.131,0-.263.007-.394.007-.2,0-.407-.007-.611-.026-.131,0-.237-.013-.342-.02a10.416,10.416,0,0,1-3.764-1.1h-.007L53.33,61.126a10.917,10.917,0,0,1,1.649-2.135A10.5,10.5,0,0,1,61.8,55.936c.223-.02.44-.026.663-.026.184,0,.368.007.552.013h.007Z" transform="translate(-53.33 -55.91)" fill="#d4f4ff"/>
      </g>
    </g>
  </g>
</svg>
